<?xml version="1.0" encoding="utf-8"?>
<svg xmlns="http://www.w3.org/2000/svg"
	xmlns:xlink="http://www.w3.org/1999/xlink"
	width="40px" height="40px" viewBox="0 0 40 40">
<path fillRule="evenodd" d="M 20 39.2C 9.4 39.2 0.8 30.6 0.8 20 0.8 9.4 9.4 0.8 20 0.8 30.6 0.8 39.2 9.4 39.2 20 39.2 30.6 30.6 39.2 20 39.2ZM 20 3.2C 10.74 3.2 3.2 10.74 3.2 20 3.2 29.26 10.74 36.84 20 36.84 29.26 36.84 36.8 29.26 36.8 20 36.8 10.74 29.26 3.2 20 3.2ZM 25.17 26.87C 25.17 26.87 19.23 20.93 19.23 20.93 19.21 20.92 19.2 20.89 19.19 20.87 18.95 20.65 18.8 20.35 18.8 20 18.8 20 18.8 8 18.8 8 18.8 7.34 19.34 6.8 20 6.8 20.66 6.8 21.2 7.34 21.2 8 21.2 8 21.2 19.51 21.2 19.51 21.2 19.51 26.86 25.18 26.86 25.18 27.33 25.65 27.33 26.41 26.86 26.87 26.4 27.34 25.64 27.34 25.17 26.87Z" fill="rgb(255,255,255)"/></svg>