<?xml version="1.0" encoding="utf-8"?>
<svg xmlns="http://www.w3.org/2000/svg"
	xmlns:xlink="http://www.w3.org/1999/xlink"
	width="40px" height="38px" viewBox="0 0 40 38">
<path fillRule="evenodd" d="M 38.26 11.19C 36.82 12.97 34.61 13.89 31.69 13.93 30.08 18.73 26.02 22.28 21.14 22.8 21.14 22.8 21.14 31.62 21.14 31.62 21.14 31.62 25.02 31.62 25.02 31.62 25.72 31.62 26.28 32.19 26.28 32.89 26.28 33.59 25.72 34.16 25.02 34.16 25.02 34.16 14.87 34.16 14.87 34.16 14.17 34.16 13.61 33.59 13.61 32.89 13.61 32.19 14.17 31.62 14.87 31.62 14.87 31.62 18.63 31.62 18.63 31.62 18.63 31.62 18.63 22.8 18.63 22.8 13.76 22.27 9.71 18.72 8.1 13.92 5.28 13.84 3.13 12.93 1.72 11.19-0.72 8.17 0.12 3.73 0.16 3.55 0.27 2.96 0.79 2.54 1.39 2.54 1.39 2.54 7.34 2.54 7.34 2.54 7.34 2.54 7.34 1.27 7.34 1.27 7.34 0.57 7.91 0 8.6 0 8.6 0 31.19 0 31.19 0 31.89 0 32.45 0.57 32.45 1.27 32.45 1.27 32.45 2.54 32.45 2.54 32.45 2.54 38.6 2.54 38.6 2.54 39.19 2.54 39.71 2.96 39.83 3.55 39.86 3.73 40.71 8.17 38.26 11.19ZM 2.51 5.07C 2.45 6.22 2.57 8.24 3.68 9.6 4.49 10.6 5.79 11.17 7.49 11.33 7.4 10.68 7.34 10.02 7.34 9.35 7.34 9.35 7.34 5.07 7.34 5.07 7.34 5.07 2.51 5.07 2.51 5.07ZM 29.94 2.54C 29.94 2.54 9.86 2.54 9.86 2.54 9.86 2.54 9.86 9.35 9.86 9.35 9.86 15.41 14.36 20.34 19.9 20.34 25.43 20.34 29.94 15.41 29.94 9.35 29.94 9.35 29.94 2.54 29.94 2.54ZM 37.47 5.07C 37.47 5.07 32.45 5.07 32.45 5.07 32.45 5.07 32.45 9.35 32.45 9.35 32.45 10.03 32.39 10.69 32.3 11.35 34.09 11.21 35.46 10.64 36.31 9.6 37.42 8.24 37.53 6.22 37.47 5.07ZM 11.12 35.46C 11.12 35.46 28.78 35.46 28.78 35.46 29.47 35.46 30.03 36.03 30.03 36.73 30.03 37.43 29.47 37.99 28.78 37.99 28.78 37.99 11.12 37.99 11.12 37.99 10.42 37.99 9.86 37.43 9.86 36.73 9.86 36.03 10.42 35.46 11.12 35.46Z" fill="rgb(255,255,255)"/></svg>