<?xml version="1.0" encoding="utf-8"?>
<svg xmlns="http://www.w3.org/2000/svg"
	xmlns:xlink="http://www.w3.org/1999/xlink"
	width="38px" height="38px" viewBox="0 0 38 38">
<path fillRule="evenodd" d="M 35.99 32.06C 35.99 32.06 32.05 32.06 32.05 32.06 31.77 31.01 31.55 30.23 30.83 29.68 30.83 29.68 35.62 29.68 35.62 29.68 35.62 29.68 35.62 27.57 35.62 27.57 35.47 27.46 35.25 27.34 35.08 27.27 35.01 27.24 34.92 27.2 34.86 27.16 34.86 27.16 27.27 23.02 27.27 23.02 26.57 22.64 26.11 21.93 26.04 21.14 25.97 20.34 26.31 19.57 26.94 19.08 28.99 17.46 29.68 13.92 29.68 12.06 29.68 12.06 29.68 7.05 29.68 7.05 29.68 5.3 26.53 2.37 23.1 2.37 21.38 2.37 19.8 2.95 18.55 3.92 17.62 3.63 16.54 3.63 15.56 3.57 17.27 1.56 20.22-0 23.1-0 27.53-0 32.05 3.73 32.05 7.05 32.05 7.05 32.05 12.06 32.05 12.06 32.05 14.46 31.19 18.76 28.41 20.94 28.41 20.94 35.99 25.08 35.99 25.08 35.99 25.08 38 25.9 38 27.08 38 27.08 38 30.05 38 30.05 38 31.16 37.1 32.06 35.99 32.06ZM 23.74 12.96C 23.74 12.96 23.74 17.97 23.74 17.97 23.74 20.37 22.99 24.66 20.21 26.85 20.21 26.85 27.68 30.98 27.68 30.98 27.68 30.98 29.69 31.81 29.69 32.99 29.69 32.99 29.69 36 29.69 36 29.69 37.1 28.79 38 27.68 38 27.68 38 2 38 2 38 0.9 38-0 37.1-0 36-0 36-0 32.99-0 32.99-0 31.88 2 30.98 2 30.98 2 30.98 9.67 26.83 9.67 26.83 6.87 24.58 5.94 20.15 5.94 17.97 5.94 17.97 5.94 12.96 5.94 12.96 5.94 9.64 10.47 5.94 14.9 5.94 19.33 5.94 23.74 9.64 23.74 12.96ZM 21.37 12.96C 21.37 11.21 18.33 8.32 14.9 8.32 11.53 8.32 8.31 11.25 8.31 12.96 8.31 12.96 8.31 17.97 8.31 17.97 8.31 19.85 9.17 23.38 11.16 24.98 11.78 25.47 12.11 26.25 12.04 27.04 11.97 27.83 11.51 28.54 10.81 28.91 10.81 28.91 3.14 33.07 3.14 33.07 3.08 33.1 3.03 33.13 2.97 33.15 2.78 33.24 2.55 33.38 2.37 33.51 2.37 33.51 2.37 35.63 2.37 35.63 2.37 35.63 27.31 35.63 27.31 35.63 27.31 35.63 27.31 33.48 27.31 33.48 27.16 33.37 26.94 33.25 26.77 33.17 26.7 33.14 26.61 33.1 26.55 33.07 26.55 33.07 19.07 28.93 19.07 28.93 18.37 28.55 17.91 27.84 17.84 27.05 17.77 26.25 18.11 25.48 18.74 24.98 20.79 23.37 21.37 19.82 21.37 17.97 21.37 17.97 21.37 12.96 21.37 12.96Z" fill="rgb(255,255,255)"/></svg>