<?xml version="1.0" encoding="utf-8"?>
<svg xmlns="http://www.w3.org/2000/svg"
	xmlns:xlink="http://www.w3.org/1999/xlink"
	width="33px" height="33px" viewBox="0 0 33 33">
<path fillRule="evenodd" d="M 31.66 12.02C 30.95 13.92 30.23 15.21 28.26 16.96 26.86 18.21 23.48 19.79 21.21 21.05 20.38 21.52 19.5 21.99 19 22.3 19 22.3 19 27.46 19 27.46 19 27.75 18.87 28.03 18.65 28.22 18.65 28.22 14.95 31.91 14.95 31.91 14.76 32.06 14.53 32.15 14.29 32.15 14.19 32.15 14.09 32.13 13.98 32.1 13.65 31.99 13.4 31.72 13.32 31.38 13.32 31.38 12.1 26.23 12.1 26.23 12.1 26.23 9.84 23.72 9.84 23.72 8.76 22.52 8.08 21.77 7.68 21.27 7.68 21.27 1.71 19.9 1.71 19.9 1.37 19.83 1.09 19.57 0.98 19.23 0.87 18.9 0.95 18.53 1.18 18.27 1.18 18.27 4.85 14.29 4.85 14.29 5.04 14.08 5.31 13.96 5.6 13.96 5.6 13.96 11.16 13.96 11.16 13.96 11.51 13.33 11.92 12.52 12.34 11.67 13.45 9.46 14.7 6.81 15.96 5.34 17.47 3.57 19.09 2.41 21.06 1.68 26.44-0.33 32.04 0.07 32.04 0.07 32.54 0.11 32.93 0.51 32.96 1.01 32.98 1.27 33.34 7.5 31.66 12.02ZM 31 2.04C 29.25 2.03 25.45 2.17 21.76 3.55 20.1 4.17 18.78 5.12 17.48 6.64 16.38 7.92 15.13 10.57 14.13 12.56 13.54 13.74 13.03 14.76 12.59 15.48 12.41 15.78 12.08 15.96 11.74 15.96 11.74 15.96 6.05 15.96 6.05 15.96 6.05 15.96 3.8 18.33 3.8 18.33 3.8 18.33 8.38 19.38 8.38 19.38 8.6 19.43 8.79 19.55 8.93 19.72 9.14 19.96 11.92 23.04 13.76 25.08 13.87 25.21 13.95 25.36 13.99 25.52 13.99 25.52 14.89 29.32 14.89 29.32 14.89 29.32 17 27 17 27 17 27 17 21.78 17 21.78 17 21.47 17.14 21.19 17.37 21 17.77 20.67 18.7 20.17 20.24 19.31 22.3 18.15 25.69 16.57 26.93 15.47 28.61 13.98 29.16 12.99 29.78 11.33 30.96 8.16 31.03 3.88 31 2.04ZM 23 14.01C 20.79 14.01 18.99 12.21 18.99 10 18.99 7.79 20.79 5.99 23 5.99 25.21 5.99 27.01 7.79 27.01 10 27.01 12.21 25.21 14.01 23 14.01ZM 23 8C 21.89 8 21 8.9 21 10 21 11.1 21.89 12 23 12 24.1 12 25 11.1 25 10 25 8.9 24.1 8 23 8ZM 4.14 23.83C 4.65 23.58 5.18 23.35 5.75 22.9 5.75 22.9 6.97 24.46 6.97 24.46 6.24 25.02 5.57 25.35 5.03 25.62 3.74 26.26 3.1 26.63 3 30 6.5 29.87 6.89 29 7.52 27.7 7.77 27.19 8.04 26.61 8.49 26 8.49 26 9.97 27.35 9.97 27.35 9.61 27.96 9.48 28.27 9.27 28.72 8.27 30.78 7.28 31.98 1.98 31.98 1.98 31.98 1 32 1 32 1 32 0.98 30.98 0.98 30.98 0.98 25.96 1.99 24.9 4.14 23.83Z" fill="rgb(255,255,255)"/></svg>