<svg xmlns="http://www.w3.org/2000/svg" width="45" height="44" viewBox="0 0 45 44">

    <path fill="#FFF" fill-rule="nonzero" d="M43.944 34.98L30.605 21.864l5.262-5.174 3.112-3.061 4.52-4.446a3.173 3.173 0 0 0 0-4.518L39.72.947A3.279 3.279 0 0 0 37.423 0c-.89 0-1.704.364-2.297.947l-4.52 4.446-3.113 3.06-5.261 5.175L9.04.656c-.815-.802-2.297-.802-3.113 0L.667 5.83c-.89.802-.89 2.186 0 3.061l1.556 1.53 4.224 4.154 4.15 4.081 3.26 3.207-11.896 11.7c-.221.095-.34.292-.405.543L0 42.852c0 .291.074.51.222.656a.678.678 0 0 0 .519.218h.148l8.55-1.554c.059.015.122.024.195.024.222 0 .444-.073.518-.219l12.08-11.879.963.948 2.075 2.04 10.3 10.13c.371.365.816.51 1.26.51.445 0 .89-.146 1.186-.51l5.928-5.83a1.696 1.696 0 0 0 0-2.405zm-34.31 5.394l-2.593-2.55 24.638-24.16 2.558 2.515L9.634 40.374zm26.53-38.406c.666-.656 1.852-.656 2.519 0l3.78 3.716c.666.656.666 1.822 0 2.478l-4.003 3.936-6.298-6.195 4.001-3.935zm-5.04 4.955l3.15 3.098 3.149 3.097-2.075 2.04-6.299-6.194 2.075-2.04zm-16.859 13.3l1.593-1.567a.697.697 0 0 0 0-1.02.725.725 0 0 0-1.037 0l-1.593 1.567-1.075-1.057 2.594-2.55a.697.697 0 0 0 0-1.02.725.725 0 0 0-1.038 0l-2.593 2.55-1.038-1.02 1.556-1.53a.697.697 0 0 0 0-1.021.725.725 0 0 0-1.037 0l-1.556 1.53-1.038-1.02 2.594-2.55a.697.697 0 0 0 0-1.02.725.725 0 0 0-1.038 0l-2.593 2.55-1.112-1.093 1.556-1.53a.697.697 0 0 0 0-1.02.725.725 0 0 0-1.037 0l-1.556 1.53-1.038-1.02L6.373 7.36a.697.697 0 0 0 0-1.02.725.725 0 0 0-1.038 0L2.742 8.89l-1.038-1.02a.697.697 0 0 1 0-1.02l5.262-5.175a.678.678 0 0 1 .519-.218c.148 0 .37.072.518.218l13.191 12.972-6.299 6.195-.63-.62zm13.747-10.166l2.593 2.55-24.639 24.16-2.557-2.515 24.603-24.195zM2.816 35.71l2.431 2.39c.037.084.091.163.163.233l2.678 2.635-6.384 1.082 1.112-6.34zm40.09.656l-5.928 5.83c-.074.073-.296.073-.37 0l-7.67-7.543 2.63-2.587a.697.697 0 0 0 0-1.02.725.725 0 0 0-1.037 0l-2.63 2.587-1.075-1.057 1.556-1.53a.697.697 0 0 0 0-1.02.725.725 0 0 0-1.037 0l-1.557 1.53-1.037-1.02 2.594-2.551a.697.697 0 0 0 0-1.02.725.725 0 0 0-1.038 0l-2.593 2.55-.445-.437 6.299-6.195 13.339 13.118c.074.073.074.292 0 .365z"/>
</svg>
