<svg xmlns="http://www.w3.org/2000/svg" width="50" height="50" viewBox="0 0 50 50">
    <path fill="#FFF" fill-rule="nonzero" d="M47.5 40.812c-4.974-2.593-8.789-4.048-12.185-4.606l.352-.475a.63.63 0 0 0 .166-.655l-.78-3.072c2.065-2.872 3.28-6.462 3.28-9.877V18.85h2.5c.5 0 .834-.328.834-.82 0-.491-.334-.819-.834-.819H40v-.82c0-6.474-4.333-11.964-10.833-13.767v-.164c0-1.312-1.084-2.459-2.5-2.459h-3.334c-1.333 0-2.5 1.065-2.5 2.459v.163C14.333 4.425 10 9.916 10 16.391v.819h-.833c-.5 0-.834.328-.834.82 0 .491.334.819.834.819h2.5v3.278c0 3.415 1.215 7.005 3.28 9.877l-.78 3.072c0 .164 0 .491.166.655l.352.475c-3.396.558-7.211 2.013-12.185 4.606C.917 41.55 0 43.107 0 44.828v3.524c0 .492.333.82.833.82h48.334c.5 0 .833-.328.833-.82v-3.524c0-1.64-1-3.196-2.5-4.016zm-23-.758l.505-1.116 1.245 2.694.815 1.803H23l1.5-3.381zm-2.133 5.02h5.26l.476 2.458h-6.236l.5-2.458zM33.75 33.6l.333 1.476-.851 1.15a.735.735 0 0 0-.149.16l-3.466 4.72-1.1 1.486-2.246-4.971c2.685-.322 5.082-1.648 7.018-3.553l.065-.063.015-.016c.129-.126.256-.256.381-.389zM32.664 5.994c.093.06.185.122.275.185 1.063.778 2.043 1.69 2.811 2.672l-3.833.737.747-3.594zm-14.58 3.594l-3.834-.737c.768-.982 1.749-1.894 2.81-2.672.092-.063.183-.125.276-.185l.747 3.594zm-6.417 6.803c0-2.181.558-4.239 1.568-6.037L19 11.474h.167c.25 0 .416-.082.666-.165a.655.655 0 0 0 .25-.737L18.94 5.096c.603-.285 1.235-.53 1.894-.731v2.191c0 .492.334.82.834.82.5 0 .833-.328.833-.82V2.458c0-.41.333-.819.833-.819h3.334c.416 0 .833.328.833.82V6.556c0 .492.333.82.833.82.5 0 .834-.328.834-.82V4.365c.68.208 1.333.462 1.954.76L30 10.49c0 .246.083.574.25.738a.762.762 0 0 0 .583.245H31l5.727-1.185a12.268 12.268 0 0 1 1.606 6.103v.819H11.667v-.82zm1.666 2.458h23.334v3.278c0 3.574-1.247 6.75-3.118 9.163l-.049.016-.25.246c-.42.55-.862 1.05-1.324 1.503-1.962 1.797-4.303 2.886-6.558 2.994a.953.953 0 0 0-.368-.072.809.809 0 0 0-.347.073c-1.38-.062-2.793-.492-4.133-1.228-1.356-.767-2.633-1.872-3.77-3.27l-.25-.246-.049-.016a14.938 14.938 0 0 1-3.118-9.163V18.85zM23.73 37.621l-2.246 4.971-1.1-1.485-3.466-4.72a1.482 1.482 0 0 0-.087-.077l-.913-1.234.333-1.475c.113.12.228.236.343.35 1.957 1.968 4.396 3.341 7.136 3.67zM1.667 44.828c0-1.065.583-2.049 1.583-2.54 5.312-2.776 9.136-4.169 12.542-4.585l4.973 6.725-.632 3.104H1.667v-2.704zm46.666 2.704H29.867l-.632-3.104 5.027-6.797c3.394.503 7.287 1.895 12.488 4.575 1 .573 1.583 1.557 1.583 2.622v2.704z"/>
</svg>
