<svg xmlns="http://www.w3.org/2000/svg" width="53" height="54" viewBox="0 0 53 54">
    <g fill="#FFF" fill-rule="nonzero">
        <path d="M37.617 50H12.883a.884.884 0 0 0-.883.883v1.767a.884.884 0 0 0 1.767 0v-.883h23.85a.884.884 0 0 0 0-1.767zM19 22.183c0 .488.396.884.883.884h3.534a.884.884 0 0 0 .883-.884v-5.3a.884.884 0 0 0-.883-.883h-3.534a.884.884 0 0 0-.883.883v5.3zm1.767-4.416h1.766V21.3h-1.766v-3.533zM11.483 11H.883a.884.884 0 0 0-.883.883V29.55a.884.884 0 0 0 1.767 0V12.767h9.716a.884.884 0 0 0 0-1.767zM42 44.183c0 .488.396.884.883.884h3.534a.884.884 0 0 0 .883-.884v-5.3a.884.884 0 0 0-.883-.883h-3.534a.884.884 0 0 0-.883.883v5.3zm1.767-4.416h1.766V43.3h-1.766v-3.533zM4.417 32C.05 32 0 43.368 0 43.483a4.424 4.424 0 0 0 3.533 4.328v4.506a.884.884 0 0 0 1.767 0V47.81a4.424 4.424 0 0 0 3.533-4.328C8.833 43.37 8.783 32 4.417 32zm0 14.133a2.653 2.653 0 0 1-2.65-2.65c0-4.4 1.182-9.716 2.65-9.716s2.65 5.316 2.65 9.716a2.653 2.653 0 0 1-2.65 2.65zM9.417 27H5.883a.884.884 0 0 0-.883.883v1.767a.884.884 0 0 0 1.767 0v-.883h1.766v4.416a.884.884 0 0 0 1.767 0v-5.3A.884.884 0 0 0 9.417 27zM42.883 23.067h3.534a.884.884 0 0 0 .883-.884v-5.3a.884.884 0 0 0-.883-.883h-3.534a.884.884 0 0 0-.883.883v5.3c0 .488.396.884.883.884zm.884-5.3h1.766V21.3h-1.766v-3.533z"/>
        <path d="M9.417 16H5.883a.884.884 0 0 0-.883.883v5.3c0 .488.396.884.883.884h3.534a.884.884 0 0 0 .883-.884v-5.3A.883.883 0 0 0 9.417 16zm-.884 5.3H6.767v-3.533h1.766V21.3zM28 22.183c0 .488.396.884.883.884h3.534a.884.884 0 0 0 .883-.884v-5.3a.884.884 0 0 0-.883-.883h-3.534a.884.884 0 0 0-.883.883v5.3zm1.767-4.416h1.766V21.3h-1.766v-3.533zM51.483 11h-10.6a.884.884 0 0 0 0 1.767H50.6v35.496a2.615 2.615 0 0 0-.883-.163c-.153 0-.305.013-.454.04a3.508 3.508 0 0 0-3.08-1.807c-1.31 0-2.47.709-3.079 1.807A2.653 2.653 0 0 0 40 50.75a2.653 2.653 0 0 0 2.65 2.65h7.067a2.653 2.653 0 0 0 2.65-2.65V11.883a.884.884 0 0 0-.884-.883zm-1.766 40.633H42.65a.885.885 0 0 1-.883-.883c0-.487.396-.883.883-.883.17 0 .33.048.479.144a.886.886 0 0 0 1.339-.544 1.756 1.756 0 0 1 1.715-1.367c.824 0 1.53.563 1.716 1.367a.881.881 0 0 0 1.339.544c.575-.371 1.362.083 1.362.739a.885.885 0 0 1-.883.883zM28.883 13.067h3.534a.884.884 0 0 0 .883-.884v-5.3A.884.884 0 0 0 32.417 6h-3.534a.884.884 0 0 0-.883.883v5.3c0 .488.396.884.883.884zm.884-5.3h1.766V11.3h-1.766V7.767zM28 33.183c0 .488.396.884.883.884h3.534a.884.884 0 0 0 .883-.884v-5.3a.884.884 0 0 0-.883-.883h-3.534a.884.884 0 0 0-.883.883v5.3zm1.767-4.416h1.766V32.3h-1.766v-3.533zM19.883 13.067h3.534a.884.884 0 0 0 .883-.884v-5.3A.884.884 0 0 0 23.417 6h-3.534a.884.884 0 0 0-.883.883v5.3c0 .488.396.884.883.884zm.884-5.3h1.766V11.3h-1.766V7.767zM25.256 43.245a.929.929 0 0 0-.256.627c0 .23.097.46.256.628a.929.929 0 0 0 .627.256c.23 0 .46-.097.628-.256a.929.929 0 0 0 .256-.628c0-.23-.097-.459-.256-.627a.925.925 0 0 0-1.255 0zM19 33.183c0 .488.396.884.883.884h3.534a.884.884 0 0 0 .883-.884v-5.3a.884.884 0 0 0-.883-.883h-3.534a.884.884 0 0 0-.883.883v5.3zm1.767-4.416h1.766V32.3h-1.766v-3.533z"/>
        <path d="M17 38.883c0 .488.396.884.883.884h2.65v7.95a.884.884 0 0 0 1.767 0v-7.95h7.067v7.95a.884.884 0 0 0 1.766 0v-7.95h2.65a.884.884 0 0 0 0-1.767h-15.9a.884.884 0 0 0-.883.883zM42 33.183c0 .488.396.884.883.884h3.534a.884.884 0 0 0 .883-.884v-5.3a.884.884 0 0 0-.883-.883h-3.534a.884.884 0 0 0-.883.883v5.3zm1.767-4.416h1.766V32.3h-1.766v-3.533z"/>
        <path d="M37.85 0H14.883A.884.884 0 0 0 14 .883v45.934a.884.884 0 0 0 1.767 0V1.767h21.2v45.05a.884.884 0 0 0 1.766 0V.883A.884.884 0 0 0 37.85 0z"/>
    </g>
</svg>
