<svg xmlns="http://www.w3.org/2000/svg" width="45" height="51" viewBox="0 0 45 51">
    <path fill="#FFF" fill-rule="nonzero" d="M43.889 48.912c-1.42 0-2.742-.783-3.452-2.043a.966.966 0 0 0-.84-.497.966.966 0 0 0-.84.497 3.99 3.99 0 0 1-3.119 2.027c1.846-3.664 3.517-8.307 4.86-12.57.018-.046.033-.094.044-.142a166.507 166.507 0 0 0 1.241-4.146c.43-1.505.8-2.876 1.102-4.032.09-.343-.006-.71-.25-.96C40.086 24.435 37 21.868 33.75 19.6l-.23-7.639c-.037-1.222-.984-2.179-2.155-2.179H27.31l-.417-4.625a.958.958 0 0 0-.006-.067l-.3-3.317C26.498.762 25.718 0 24.775 0h-4.689c-.943 0-1.723.762-1.814 1.773l-.3 3.317a1.025 1.025 0 0 0-.005.065l-.418 4.627h-4.054c-1.171 0-2.118.957-2.155 2.18l-.23 7.638c-3.251 2.268-6.338 4.835-8.885 7.446-.244.25-.34.617-.25.96a186.194 186.194 0 0 0 1.123 4.107c.366 1.278.774 2.651 1.219 4.068.011.05.027.099.046.147 1.342 4.262 3.013 8.905 4.859 12.568A3.99 3.99 0 0 1 6.1 46.87a.966.966 0 0 0-.84-.497.966.966 0 0 0-.84.497C3.713 48.13 2.39 48.912.97 48.912a.982.982 0 0 0-.97.994c0 .55.434.994.97.994 1.636 0 3.186-.7 4.292-1.887A5.876 5.876 0 0 0 9.554 50.9a5.753 5.753 0 0 0 1.491-.198 5.93 5.93 0 0 0 2.8-1.69 5.875 5.875 0 0 0 4.293 1.888c1.636 0 3.186-.7 4.291-1.888a5.876 5.876 0 0 0 4.292 1.888c1.637 0 3.186-.7 4.292-1.889a5.93 5.93 0 0 0 2.882 1.713c.457.115.93.176 1.41.176 1.637 0 3.186-.7 4.292-1.888a5.876 5.876 0 0 0 4.292 1.888c.536 0 .97-.445.97-.995a.982.982 0 0 0-.97-.994zM32.341 21.02c3.096 2.134 6.051 4.554 8.524 7.029a185.19 185.19 0 0 1-.536 1.983c-4.261-3.614-11.781-9.064-16.93-11.48v-2.648c2.858 1.286 5.877 3.017 8.778 5.003.05.043.105.081.164.113zM20.2 1.988h4.46l.201 2.237h-4.863l.202-2.237zm-.382 4.225h5.222l.322 3.569h-5.866l.322-3.569zm-6.54 5.81c.004-.124.086-.253.216-.253H31.365c.13 0 .212.129.216.253l.188 6.246c-3.005-1.945-6.085-3.6-8.96-4.774l-.008-.004-.014-.005-.024-.01-.057-.02-.035-.008-.055-.014-.047-.007-.045-.007a.94.94 0 0 0-.19 0l-.045.007-.046.007-.055.014c-.012.003-.024.005-.035.009a.92.92 0 0 0-.057.02c-.008.003-.017.005-.025.009l-.014.005-.008.004c-2.874 1.173-5.954 2.829-8.96 4.774l.189-6.246zM3.994 28.049c2.472-2.474 5.426-4.894 8.52-7.027a.967.967 0 0 0 .168-.115c2.901-1.987 5.92-3.717 8.777-5.003v2.647c-5.148 2.416-12.668 7.867-16.929 11.48-.195-.705-.374-1.37-.536-1.982zm29.64 20.483a4.027 4.027 0 0 1-1.78-1.663l-.007-.009a.886.886 0 0 0-.034-.053c-.006-.01-.012-.02-.02-.03-.01-.015-.023-.03-.035-.046l-.026-.031-.033-.035c-.012-.012-.023-.025-.036-.036l-.029-.025-.046-.038-.028-.02a.914.914 0 0 0-.053-.035l-.009-.005-.023-.013a.924.924 0 0 0-.052-.027l-.042-.018a1 1 0 0 0-.094-.034l-.038-.011a1.034 1.034 0 0 0-.284-.029.904.904 0 0 0-.187.029l-.04.011a.955.955 0 0 0-.094.034l-.04.018a1.014 1.014 0 0 0-.053.028l-.023.012-.008.005a.916.916 0 0 0-.054.036l-.027.019a.994.994 0 0 0-.047.038l-.029.025-.036.036-.033.035c-.01.01-.017.02-.026.032l-.036.045-.02.03a.991.991 0 0 0-.033.054l-.006.009c-.71 1.26-2.032 2.043-3.452 2.043s-2.742-.783-3.452-2.044a.966.966 0 0 0-.84-.497.966.966 0 0 0-.84.497 3.98 3.98 0 0 1-3.452 2.043c-1.42 0-2.742-.783-3.452-2.043l-.005-.008a1.022 1.022 0 0 0-.035-.055l-.019-.029-.036-.047-.025-.03-.034-.036-.035-.035-.03-.025-.046-.038-.028-.02a1.04 1.04 0 0 0-.053-.035l-.009-.006-.023-.012a1.003 1.003 0 0 0-.052-.027l-.04-.018a.97.97 0 0 0-.227-.064.894.894 0 0 0-.231-.007.873.873 0 0 0-.278.07.905.905 0 0 0-.094.045l-.024.013-.01.006c-.017.01-.034.023-.051.034l-.03.021-.044.036-.031.027c-.012.01-.023.023-.034.034l-.035.037-.025.03c-.012.015-.025.03-.037.047l-.018.029a1.062 1.062 0 0 0-.035.054l-.005.01a4.029 4.029 0 0 1-1.78 1.661C9.402 45.055 7.735 40.51 6.38 36.268l.829-.744a60.26 60.26 0 0 1 1.858-1.6c.416-.346.481-.972.145-1.399a.954.954 0 0 0-1.364-.149 61.96 61.96 0 0 0-1.918 1.653l-.193.173c-.216-.713-.422-1.41-.617-2.083 3.87-3.383 11.243-8.776 16.338-11.365v17.84c0 .549.435.994.97.994.536 0 .97-.445.97-.994v-17.84c5.096 2.59 12.468 7.982 16.339 11.365-.195.674-.401 1.37-.618 2.083l-.192-.173a70.487 70.487 0 0 0-4.189-3.462.954.954 0 0 0-1.358.2 1.01 1.01 0 0 0 .194 1.391 69.475 69.475 0 0 1 4.074 3.366l.829.744c-1.354 4.241-3.021 8.787-4.845 12.264z"/>
</svg>
