<svg xmlns="http://www.w3.org/2000/svg" width="20" height="24" viewBox="0 0 20 24">
    <g fill="#00ABEB" fill-rule="nonzero">
        <path d="M9.622 0C4.323 0 .01 4.317.01 9.62a9.477 9.477 0 0 0 .236 2.128 9.48 9.48 0 0 0 .644 1.897c1.035 2.44 3.313 6.189 8.31 10.204a.682.682 0 0 0 .854 0c4.992-4.015 7.274-7.763 8.31-10.204a9.374 9.374 0 0 0 .709-2.219c.11-.593.17-1.202.17-1.806C19.234 4.317 14.92 0 9.623 0zm8.103 11.19c0 .01-.005.02-.005.03l-.045.216v.01a7.992 7.992 0 0 1-.558 1.64c-.005.006-.005.016-.01.02-.94 2.23-3.001 5.631-7.485 9.34-4.484-3.709-6.545-7.11-7.485-9.34-.006-.004-.006-.014-.01-.02a8.526 8.526 0 0 1-.559-1.64v-.01c-.03-.115-.04-.19-.045-.216 0-.01-.005-.02-.005-.035a8.224 8.224 0 0 1-.15-1.57c0-4.553 3.704-8.262 8.254-8.262 4.55 0 8.254 3.709 8.254 8.262 0 .533-.05 1.062-.15 1.575z"/>
        <path d="M9.622 3.618c-3.363 0-6.103 2.742-6.103 6.108 0 3.366 2.74 6.108 6.103 6.108 3.363 0 6.103-2.742 6.103-6.108 0-3.366-2.74-6.108-6.103-6.108zm0 10.857a4.753 4.753 0 0 1-4.746-4.75 4.756 4.756 0 0 1 4.746-4.749 4.756 4.756 0 0 1 4.745 4.75 4.753 4.753 0 0 1-4.745 4.75z"/>
    </g>
</svg>
