<svg xmlns="http://www.w3.org/2000/svg" width="61" height="44" viewBox="0 0 61 44">
    <g fill="#FFF" fill-rule="nonzero">
        <path d="M56.877 13.328H35.768a18.318 18.318 0 0 0-5.367-8.587C26.487 1.227 21.431-.386 16.162.198 7.714 1.134.957 7.97.096 16.453c-.47 4.63.793 9.207 3.557 12.89a18.214 18.214 0 0 0 10.726 6.89l4.5 4.511a1.961 1.961 0 0 0 2.147.428 1.969 1.969 0 0 0 1.216-1.824V36.19c.74-.166 1.46-.376 2.16-.627v.125a4.013 4.013 0 0 0 4.004 4.013h6.723l3.582 3.59a1.663 1.663 0 0 0 1.82.363 1.67 1.67 0 0 0 1.03-1.546V39.7h15.316c2.208 0 4.004-1.8 4.004-4.013V17.341a4.013 4.013 0 0 0-4.004-4.013zM21.121 34.467a.955.955 0 0 0-.786.94v3.94c0 .023 0 .043-.039.06-.04.016-.053.002-.07-.014l-4.7-4.713a.951.951 0 0 0-.49-.261 16.307 16.307 0 0 1-9.86-6.226c-2.474-3.296-3.604-7.397-3.183-11.547.37-3.657 2.023-7.136 4.651-9.797 2.63-2.66 6.084-4.348 9.728-4.752.634-.07 1.263-.105 1.889-.105 4.03 0 7.834 1.449 10.868 4.173a16.415 16.415 0 0 1 5.442 12.2c0 7.937-5.657 14.708-13.45 16.102zm37.854 1.221c0 1.16-.941 2.102-2.098 2.102H40.608a.954.954 0 0 0-.953.956v2.79l-3.457-3.466a.952.952 0 0 0-.674-.28h-7.118a2.102 2.102 0 0 1-2.097-2.102v-.931a18.251 18.251 0 0 0 10.168-16.391c0-1.056-.092-2.1-.27-3.127h20.67c1.157 0 2.098.943 2.098 2.103v18.346z"/>
        <path d="M53.484 20.743a.952.952 0 0 0-1.348 0l-9.494 9.517-4.408-4.418a.952.952 0 0 0-1.348 0 .957.957 0 0 0 0 1.35l5.082 5.095a.95.95 0 0 0 1.348 0l10.168-10.193a.957.957 0 0 0 0-1.351zM18.239 25.563h-.002a.956.956 0 0 0-.953.956v.001c0 .528.427.956.953.956h.002a.956.956 0 0 0 .954-.956v-.001a.956.956 0 0 0-.954-.956zM22.485 11.05c-1.155-1.157-2.663-1.794-4.247-1.794-3.33 0-6.037 2.715-6.037 6.052a.954.954 0 1 0 1.906 0 4.14 4.14 0 0 1 4.13-4.141c1.076 0 2.105.438 2.9 1.235.794.797 1.232 1.829 1.232 2.906a4.166 4.166 0 0 1-2.942 3.967 2.978 2.978 0 0 0-2.142 2.863v.305a.954.954 0 1 0 1.907 0v-.305c0-.477.314-.892.783-1.033 2.532-.76 4.3-3.145 4.3-5.797 0-1.588-.635-3.1-1.79-4.257z"/>
    </g>
</svg>
