<svg xmlns="http://www.w3.org/2000/svg" width="50" height="50" viewBox="0 0 50 50">
    <g fill="#FFF" fill-rule="nonzero">
        <path d="M49.696 1.014a.944.944 0 0 0-.822-.821A25.948 25.948 0 0 0 37.317 1.4a25.95 25.95 0 0 0-9.857 6.155l-6.295 6.296-9.086 1.171a.945.945 0 0 0-.548.27l-8.76 8.76a.944.944 0 0 0 .495 1.597l6.625 1.227 1.301 1.302-2.771 1.5a.945.945 0 0 0-.218 1.499L18.71 41.685a.945.945 0 0 0 1.499-.218l1.5-2.77 1.302 1.3 1.227 6.625a.945.945 0 0 0 1.597.496l8.761-8.761a.945.945 0 0 0 .27-.547l1.171-9.087 6.295-6.295a25.95 25.95 0 0 0 6.156-9.856 25.951 25.951 0 0 0 1.207-11.558zM10.035 24.982l-4.66-.863 7.265-7.264 6.339-.817-8.944 8.944zm9.117 14.472l-8.718-8.717 2.152-1.165 7.73 7.73-1.164 2.152zm13.881-2.205l-7.263 7.264-.863-4.659 8.944-8.944-.818 6.339zm7.964-16.157l-17.11 17.11L11.688 26l17.11-17.11a24.05 24.05 0 0 1 8.852-5.603 11.328 11.328 0 0 0 3.105 5.847c1.6 1.6 3.643 2.677 5.847 3.105a24.056 24.056 0 0 1-5.604 8.852zm6.172-10.667a9.436 9.436 0 0 1-5.08-2.626 9.435 9.435 0 0 1-2.626-5.08 24.102 24.102 0 0 1 8.438-.731 24.099 24.099 0 0 1-.732 8.437z"/>
        <path d="M27.875 13.91a5.737 5.737 0 0 0 0 8.104 5.712 5.712 0 0 0 4.052 1.676 5.713 5.713 0 0 0 4.052-1.676 5.737 5.737 0 0 0 0-8.104 5.737 5.737 0 0 0-8.104 0zm6.768 6.768a3.846 3.846 0 0 1-5.432 0 3.845 3.845 0 0 1 0-5.433 3.829 3.829 0 0 1 2.716-1.123 3.83 3.83 0 0 1 2.716 1.123 3.846 3.846 0 0 1 0 5.433zM12.389 37.678a.945.945 0 0 0-1.336 0l-8.105 8.104a.944.944 0 1 0 1.336 1.336l8.105-8.104a.945.945 0 0 0 0-1.336zM13.635 40.26l-3.651 3.652a.944.944 0 1 0 1.336 1.336l3.651-3.651a.944.944 0 1 0-1.336-1.336zM8.706 45.582a.953.953 0 0 0-.89.626.955.955 0 0 0 .305 1.06c.32.254.789.268 1.124.033a.953.953 0 0 0 .332-1.136.95.95 0 0 0-.871-.583z"/>
        <path d="M9.596 46.213c.095.226-.09-.225 0 0zM6.034 47.862l-.503.503A.945.945 0 1 0 6.867 49.7l.503-.503a.944.944 0 1 0-1.336-1.336zM5.353 39.548a.945.945 0 0 0-1.336 0L.366 43.2a.944.944 0 1 0 1.336 1.335l3.651-3.65a.945.945 0 0 0 0-1.337zM6.86 39.186a.954.954 0 0 0 .711-.823.952.952 0 0 0-.516-.936.95.95 0 0 0-1.104.188.955.955 0 0 0-.103 1.183.955.955 0 0 0 1.012.388zM9.303 36.934l.503-.503a.944.944 0 1 0-1.336-1.335l-.503.502a.944.944 0 1 0 1.336 1.336z"/>
    </g>
</svg>
