<svg xmlns="http://www.w3.org/2000/svg" width="50" height="50" viewBox="0 0 50 50">
    <path fill="#FFF" fill-rule="nonzero" d="M47.165 37.14a6.658 6.658 0 0 0-3.449-1.167c-4.564-2.94-7.553-5.145-9.298-6.862l-5.362-5.272 3.253-3.582a5.638 5.638 0 0 0 1.942.66c.5.083.833.083 1.166.083.667 0 .833 0 1.5.573-.333.246-.5.656-.5 1.065 0 .41.167.902.5 1.23l2.916 2.867c.417.492 1.083.737 1.75.737.666 0 1.333-.245 1.75-.819l5.915-5.817c.5-.41.75-1.065.75-1.72 0-.656-.25-1.23-.75-1.721l-2.916-2.868a1.659 1.659 0 0 0-1.167-.492c-.416 0-.833.246-1.166.492-.667-.574-.667-.738-.667-1.393 0-.328 0-.737-.167-1.23-.166-1.146-.75-2.293-1.666-3.195l-3-2.95c-1.749-1.72-2.582-2.54-4.831-3.522C28.835.024 23.92.434 16.755 3.63c-.417.164-.584.491-.5.9.083.41.416.656.833.656h1.083c3.666 0 5.582 0 8.915 3.278 1.459 1.435 1.501 3.635.194 5.254a.766.766 0 0 0-.444.235l-3.701 4.063-2.798-2.752c-3.075-3.024-5.238-5.885-6.902-9.07a6.44 6.44 0 0 0-1.93-4.285C10.09.516 8.09-.139 6.09.025c-.25.082-.5.245-.583.41a.734.734 0 0 0 0 .819L7.84 5.35c-.5 1.066-1.666 1.721-2.833 1.64L2.591 3.055c-.083-.246-.416-.41-.666-.41-.25-.081-.5.082-.667.328-2 2.95-1.25 6.883 1.75 8.931a6.676 6.676 0 0 0 3.376 1.212c.013.006.026.013.04.017 3.249 1.639 6.165 3.769 9.247 6.8l3.048 2.929-17.71 19.44c-.667.655-1 1.556-1 2.458 0 .901.333 1.72 1 2.376l1.166 1.147c.666.574 1.5.901 2.332.901.834 0 1.75-.327 2.417-.983l17.69-19.473 5.138 5.053c1.748 1.719 3.995 4.746 6.99 9.164a6.437 6.437 0 0 0 1.925 4.19c1.25 1.23 2.916 1.885 4.665 1.885H44c.25 0 .5-.163.666-.41a.734.734 0 0 0 0-.819l-2.416-4.014c.583-1.065 1.667-1.721 2.916-1.64l2.333 3.934c.083.246.417.41.667.41.333-.082.583-.164.75-.41 1.999-2.95 1.166-6.883-1.75-8.931zM28.169 7.154c-2.666-2.54-4.666-3.36-6.915-3.605 4.749-1.475 8.248-1.393 11.747.164 2 .819 2.666 1.475 4.416 3.195l3 2.95c.666.655 1.082 1.475 1.166 2.294.083.41.083.737.083.983 0 .901.083 1.557 1.083 2.54.333.328.833.492 1.25.492.5 0 .916-.164 1.166-.492l2.916 2.868c.167.164.25.327.25.573 0 .246-.083.41-.25.574l-5.915 5.817a.815.815 0 0 1-1.167 0l-2.916-2.868c.334-.245.5-.655.417-1.147 0-.41-.167-.901-.5-1.229-1-.983-1.666-1.065-2.583-1.065-.25 0-.583 0-1-.082-.916-.082-1.666-.491-2.332-1.147l-3.583-3.523c1.833-2.212 1.666-5.326-.333-7.292zM2.008 5.187l1.75 2.95c.166.245.416.409.666.409h.417c1.916.082 3.666-.901 4.499-2.54l.166-.41a.606.606 0 0 0 0-.737L7.673 1.745c1 .164 1.917.656 2.667 1.393.859.915 1.409 2.073 1.441 3.316a.829.829 0 0 0-.025.207c0 .38-.047.75-.133 1.107a5.027 5.027 0 0 1-2.117 2.908c-1.666 1.065-3.916 1.065-5.582-.082-1.75-1.229-2.5-3.441-1.916-5.407zm14.83 13.6c-2.5-2.54-4.999-4.506-7.665-6.063.417-.163.916-.41 1.333-.655 1.25-.82 2.083-1.885 2.583-3.196 1.583 2.622 3.582 5.08 6.082 7.538l2.861 2.815-2.244 2.463-2.95-2.901zM5.758 46.974c-.667.656-1.75.737-2.417.082L2.175 45.99a1.605 1.605 0 0 1-.5-1.147c0-.492.166-.902.583-1.311l.472-.52 1.194 1.175a.762.762 0 0 0 .583.246c.25 0 .417-.082.584-.246a.783.783 0 0 0 0-1.147l-1.26-1.239 1.1-1.211 1.326 1.303a.762.762 0 0 0 .583.246c.25 0 .417-.082.583-.246a.783.783 0 0 0 0-1.147l-1.39-1.368L27.463 15.8l3.5 3.441-3.439 3.783a.854.854 0 0 0-.272.189l-3.332 3.687a.84.84 0 0 0-.203.313L5.757 46.973zm19.996-19.5l2.28-2.51 5.384 5.295c1.5 1.557 4.082 3.524 7.831 5.982-.5.163-1 .41-1.5.737-1.033.635-1.765 1.517-2.275 2.493l-.022.042a7.685 7.685 0 0 0-.281.606l-.01.026a8.53 8.53 0 0 0-.077.192c-.474-.682-.929-1.326-1.367-1.933l1.117-1.098a.783.783 0 0 0 0-1.147.815.815 0 0 0-1.167 0l-.929.913a69.03 69.03 0 0 0-1.003-1.307l.766-.753a.783.783 0 0 0 0-1.148.815.815 0 0 0-1.167 0l-.636.626a27.403 27.403 0 0 0-1.696-1.855l-5.248-5.16zM48.08 43.86l-1.75-2.95c-.166-.245-.416-.409-.666-.409h-.417c-1.916-.164-3.666.901-4.499 2.54l-.166.41a.606.606 0 0 0 0 .737l1.833 3.114c-1-.164-1.917-.656-2.667-1.393-.842-.898-1.387-2.029-1.438-3.245a.839.839 0 0 0 .022-.196c0-1.038.335-2.01.92-2.833.358-.491.807-.921 1.33-1.264.833-.574 1.75-.82 2.749-.82 1 0 2 .328 2.833.902 1.75 1.229 2.5 3.441 1.916 5.407z"/>
</svg>
