<?xml version="1.0" encoding="utf-8"?>
<svg xmlns="http://www.w3.org/2000/svg"
	xmlns:xlink="http://www.w3.org/1999/xlink"
	width="20px" height="19px" viewBox="0 0 20 19">
<filter filterUnits="objectBoundingBox" x="0.00" y="0.00" width="100.00" height="105.56" id="filter0">
<feGaussianBlur in="SourceAlpha" stdDeviation="0.00" result="dsBlurOut1"/>
<feFlood flood-color="rgb(255,255,255)" result="dsFloodOut1"/>
<feComposite in="dsFloodOut1" in2="dsBlurOut1" operator="in" result="dsShadow1"/>
<feOffset in="dsShadow1" dx="0.50" dy="0.87" result="dsOffset1"/>
<feComposite in="dsOffset1" in2="SourceAlpha" operator="out" result="dropShadow1"/>
<feBlend in="dropShadow1" in2="SourceGraphic" mode="normal" result="sourceGraphic"/>
</filter>
<path fillRule="evenodd" d="M 18.29 12.2C 18.29 12.2 17.61 15.85 17.61 15.85 17.61 15.85 2.38 15.85 2.38 15.85 2.38 15.85 1.7 12.2 1.7 12.2 1.7 12.2-0 12.2-0 12.2-0 12.2-0 18-0 18-0 18 19.99 18 19.99 18 19.99 18 19.99 12.2 19.99 12.2 19.99 12.2 18.29 12.2 18.29 12.2ZM 17.86 5.72C 17.86 5.72 12.85 5.72 12.85 5.72 12.85 5.72 12.85 3.62 12.85 3.62 12.85 3.62 7.14 3.62 7.14 3.62 7.14 3.62 7.14 5.72 7.14 5.72 7.14 5.72 2.18 5.72 2.18 5.72 2.18 5.72 9.97 13.93 9.97 13.93 9.97 13.93 17.86 5.72 17.86 5.72ZM 12.85-0C 12.85-0 7.14-0 7.14-0 7.14-0 7.14 0.76 7.14 0.76 7.14 0.76 12.85 0.76 12.85 0.76 12.85 0.76 12.85-0 12.85-0ZM 12.85 1.43C 12.85 1.43 7.14 1.43 7.14 1.43 7.14 1.43 7.14 2.89 7.14 2.89 7.14 2.89 12.85 2.89 12.85 2.89 12.85 2.89 12.85 1.43 12.85 1.43Z" fill="rgb(157,157,157)" filter="url(#filter0)"/></svg>