<?xml version="1.0" encoding="utf-8"?>
<svg xmlns="http://www.w3.org/2000/svg"
	xmlns:xlink="http://www.w3.org/1999/xlink"
	width="31px" height="17px" viewBox="0 0 31 17">
<filter filterUnits="objectBoundingBox" x="0.00" y="0.00" width="100.00" height="106.25" id="filter0">
<feGaussianBlur in="SourceAlpha" stdDeviation="0.00" result="dsBlurOut1"/>
<feFlood flood-color="rgb(255,255,255)" result="dsFloodOut1"/>
<feComposite in="dsFloodOut1" in2="dsBlurOut1" operator="in" result="dsShadow1"/>
<feOffset in="dsShadow1" dx="0.50" dy="0.87" result="dsOffset1"/>
<feComposite in="dsOffset1" in2="SourceAlpha" operator="out" result="dropShadow1"/>
<feBlend in="dropShadow1" in2="SourceGraphic" mode="normal" result="sourceGraphic"/>
</filter>
<path fillRule="evenodd" d="M 29.62 16C 29.62 16 24.15 16 18.03 16 17.12 16 16.42 12.84 15.5 12.84 14.44 12.84 13.49 16 12.46 16 6.69 16 1.38 16 1.38 16 0.62 16-0 15.39-0 14.65-0 14.65-0 5.85-0 5.85-0 5.85 31 5.85 31 5.85 31 5.85 31 14.65 31 14.65 31 15.39 30.38 16 29.62 16ZM 12.4 9.91C 12.4 8.79 11.47 7.88 10.33 7.88 10.33 7.88 4.13 7.88 4.13 7.88 2.99 7.88 2.07 8.79 2.07 9.91 2.07 9.91 2.07 11.94 2.07 11.94 2.07 13.06 2.99 13.97 4.13 13.97 4.13 13.97 10.33 13.97 10.33 13.97 11.47 13.97 12.4 13.06 12.4 11.94 12.4 11.94 12.4 9.91 12.4 9.91ZM 28.93 9.91C 28.93 8.79 28.01 7.88 26.87 7.88 26.87 7.88 20.67 7.88 20.67 7.88 19.52 7.88 18.6 8.79 18.6 9.91 18.6 9.91 18.6 11.94 18.6 11.94 18.6 13.06 19.52 13.97 20.67 13.97 20.67 13.97 26.87 13.97 26.87 13.97 28.01 13.97 28.93 13.06 28.93 11.94 28.93 11.94 28.93 9.91 28.93 9.91ZM 21.75 2.47C 20.57 2.47 20.27 3.05 19.49 2.96 18.7 2.86 19.39 1.51 20.08 0.54 20.76-0.43 22.34 0.06 23.52 0.73 24.7 1.41 30.98 5.15 30.98 5.15 30.98 5.15 25.49 5.15 25.49 5.15 25.49 5.15 22.93 2.47 21.75 2.47ZM 11.51 2.96C 10.73 3.05 10.43 2.47 9.25 2.47 8.07 2.47 5.51 5.15 5.51 5.15 5.51 5.15 0.02 5.15 0.02 5.15 0.02 5.15 6.3 1.41 7.48 0.73 8.66 0.06 10.23-0.43 10.92 0.54 11.61 1.51 12.3 2.86 11.51 2.96Z" fill="rgb(156,156,156)" filter="url(#filter0)"/></svg>