<svg xmlns="http://www.w3.org/2000/svg" width="26" height="38"><path d="M13 14.42c-3.36 0-6.08 4.95-6.08 9.71 0 4.77 2.72 7.54 6.08 7.54s6.09-2.77 6.09-7.54c0-4.76-2.73-9.71-6.09-9.71zm12.9 8.99c-.37-3.44-1.85-6.63-3.16-9.45-.38-.82-.74-1.59-1.05-2.33-.72-1.7-1.3-3.41-1.82-4.91-.93-2.73-1.6-4.69-2.69-5.63C16.34.36 15.43 0 14.49 0c-.49 0-.99.1-1.47.31C12.55.1 12.05 0 11.55 0c-.94 0-1.85.36-2.69 1.09-1.11.95-1.79 2.94-2.73 5.68-.5 1.47-1.07 3.13-1.78 4.83-.29.71-.63 1.46-.99 2.26-1.3 2.87-2.77 6.13-3.21 9.52-.54 4.08.4 7.62 2.69 10.22 2.84 3.22 7.07 4.38 10.11 4.4h.08c2.94 0 7.09-1.13 9.94-4.29 2.36-2.62 3.37-6.18 2.93-10.3zm-4.82 8.61c-2.27 2.52-5.7 3.43-7.98 3.45h-.16c-2.38-.02-5.91-.95-8.19-3.53-1.83-2.08-2.53-4.85-2.08-8.23.39-3.02 1.78-6.1 3.01-8.82.36-.81.71-1.58 1.02-2.32.74-1.77 1.32-3.48 1.84-4.98.68-2.01 1.39-4.08 1.98-4.58.37-.32.72-.49 1.03-.49.24 0 .49.1.75.27l.72.51.73-.51c.6-.41 1.12-.34 1.78.22.56.48 1.26 2.54 1.94 4.52.53 1.55 1.12 3.3 1.88 5.08.33.78.69 1.57 1.08 2.41 1.23 2.64 2.62 5.64 2.95 8.66.37 3.44-.41 6.24-2.3 8.34z" fill="#FFF"/></svg>