<?xml version="1.0" standalone="no"?>
<!DOCTYPE svg PUBLIC "-//W3C//DTD SVG 1.1//EN" "http://www.w3.org/Graphics/SVG/1.1/DTD/svg11.dtd" >
<svg>
<metadata>
Created by FontForge 20090914 at Thu Jan 18 21:02:53 2018
 By www-data
(c) 1999 Nick Curtis. All Rights Reserved. Generated by Fontographer 3.52 
</metadata>
<defs>
<font id="DymaxionScript" horiz-adv-x="146" >
  <font-face 
    font-family="DymaxionScript"
    font-weight="400"
    font-stretch="normal"
    units-per-em="1000"
    panose-1="0 0 0 0 0 0 0 0 0 0"
    ascent="800"
    descent="-200"
    x-height="344"
    cap-height="730.997"
    bbox="-86 -216 1246 902.994"
    underline-thickness="50"
    underline-position="-55"
    unicode-range="U+0020-U+F002"
  />
<missing-glyph 
 />
    <glyph glyph-name=".notdef" 
 />
    <glyph glyph-name="space" unicode=" " 
 />
    <glyph glyph-name="space" unicode="&#xa0;" 
 />
    <glyph glyph-name="exclam" unicode="!" horiz-adv-x="204" 
d="M89 97c0 -10.667 -3.83301 -19.667 -11.5 -27s-16.834 -11 -27.501 -11s-19.834 3.66699 -27.501 11s-11.5 16.333 -11.5 27c0 11.333 3.83301 20.666 11.5 27.999s16.834 11 27.501 11s19.834 -3.66699 27.501 -11s11.5 -16.666 11.5 -27.999v0zM205 560l-107 -371
l-44 12l103 359h48v0z" />
    <glyph glyph-name="quotedbl" unicode="&#x22;" horiz-adv-x="165" 
d="M100 725l-52.999 -113l-35 12c2 6 4.5 15 7.5 27s6.5 24.333 10.5 37c0.666992 3.33301 1.5 6.5 2.5 9.5s1.83301 6.16699 2.5 9.5l11 34c3.33301 10 6.33301 16 9 18c3.33301 2.66699 6.66602 4.66699 9.99902 6s7 2 11 2s7.83301 -0.666992 11.5 -2
s6.83398 -3.33301 9.50098 -6c1.33301 -1.33301 2.5 -2.83301 3.5 -4.5s1.83301 -3.16699 2.5 -4.5c0.666992 -2 1.16699 -3.83301 1.5 -5.5s0.5 -3.16699 0.5 -4.5c-0.666992 -2.66699 -1.33398 -5.16699 -2.00098 -7.5s-1.66699 -4.83301 -3 -7.5v0zM175.001 725
l-52.999 -113l-35 12c2 6 4.5 15 7.5 27s6.5 24.333 10.5 37c0.666992 3.33301 1.5 6.5 2.5 9.5s1.83301 6.16699 2.5 9.5l11 34c3.33301 10 6.33301 16 9 18c3.33301 2.66699 6.66602 4.66699 9.99902 6s7 2 11 2s7.83301 -0.666992 11.5 -2s6.83398 -3.33301 9.50098 -6
c1.33301 -1.33301 2.5 -2.83301 3.5 -4.5s1.83301 -3.16699 2.5 -4.5c0.666992 -2 1.16699 -3.83301 1.5 -5.5s0.5 -3.16699 0.5 -4.5c-0.666992 -2.66699 -1.33398 -5.16699 -2.00098 -7.5s-1.66699 -4.83301 -3 -7.5v0z" />
    <glyph glyph-name="numbersign" unicode="#" horiz-adv-x="334" 
d="M333 386l-17 -51h-82l-9 -29h85l-15 -50h-84l-60 -209h-50l59 209h-25l-59 -209h-51l59 209h-82l15 50h81l9 29h-82l14 51h82l52 183h50l-51 -183h25l52 183h50l-52 -183h86v0zM183 335h-26l-8 -29h25l9 29v0z" />
    <glyph glyph-name="dollar" unicode="$" horiz-adv-x="435" 
d="M408 746l-69.0029 -238.998c25.333 -0.666992 44.333 -6 57 -16s19 -22.667 19 -38c0 -6.66699 -1.16699 -13.5 -3.5 -20.5s-6.16602 -14.167 -11.499 -21.5c-6.66699 -10 -16 -20 -28 -30s-26.667 -19.333 -44 -28l-20 41c43.333 21.333 62.833 37.166 58.5 47.499
s-18.166 15.5 -41.499 15.5l-47 -164c17.333 -12.667 31.666 -27.167 42.999 -43.5s17 -33.833 17 -52.5c0 -9.33301 -1.83301 -19 -5.5 -29s-9.5 -20 -17.5 -30c-12 -13.333 -26.167 -24 -42.5 -32s-34.166 -13.667 -53.499 -17l-75 -263h-46l74 257
c-2.66699 0 -5.5 -0.166992 -8.5 -0.5s-5.83301 -0.5 -8.5 -0.5c-19.333 -0.666992 -38.333 -1 -57 -1h-52h-13.5h-12.5v46h9.5h14.5c6 -0.666992 12.5 -1 19.5 -1h22.5c10 0 20.5 0.166992 31.5 0.5s22.167 0.833008 33.5 1.5c6 0 11.833 0.333008 17.5 1l16.5 2l42 144
c-1.33301 0.666992 -2.66602 1.5 -3.99902 2.5s-2.66602 1.83301 -3.99902 2.5c-18.667 12 -35.834 25.5 -51.501 40.5s-23.5 35.5 -23.5 61.5v7.5c0 2.33301 0.333008 4.83301 1 7.5l2 9c10 24 25.833 43.167 47.5 57.5s44.5 25.166 68.5 32.499l8 2l8 2
c1.33301 0 2.5 0.166992 3.5 0.5s2.16699 0.833008 3.5 1.5c0.666992 0 1.66699 0.166992 3 0.5s2.33301 0.5 3 0.5l70 243h46v0zM290.997 196.002c0 11.333 -2.50098 21.167 -7.50098 29.5s-11.167 15.833 -18.5 22.5l-31 -108c16 5.33301 29.333 12.5 40 21.5
s16.334 20.5 17.001 34.5v0zM276.996 450.003c-20.667 -4.66699 -39.667 -12.333 -57 -23s-27.666 -24 -30.999 -40v-1.5v-1.5c0 -2.66699 0.5 -5.66699 1.5 -9s2.16699 -6.33301 3.5 -9c4 -7.33301 9.16699 -14.333 15.5 -21s13.166 -12.667 20.499 -18
c1.33301 -1.33301 2.83301 -2.5 4.5 -3.5s3.16699 -2.16699 4.5 -3.5l38 130v0z" />
    <glyph glyph-name="percent" unicode="%" horiz-adv-x="335" 
d="M289 582l-182 -515h-51l181 515h52v0zM338 148c0 -22 -8 -41.001 -24 -57.001s-35 -24 -57 -24c-22.667 0 -42 7.83301 -58 23.5s-24 34.834 -24 57.501s8 42.167 24 58.5s35.333 24.5 58 24.5c22 0 41 -8.16699 57 -24.5s24 -35.833 24 -58.5v0zM291 147.999
c0 9.33301 -3.33301 17.5 -10 24.5s-14.667 10.5 -24 10.5c-10 0 -18.333 -3.33301 -25 -10s-10 -15 -10 -25c0 -9.33301 3.33301 -17.333 10 -24s15 -10 25 -10c9.33301 0 17.333 3.33301 24 10s10 14.667 10 24v0zM167 500.999c0 -22.667 -8.16699 -42 -24.5 -58
s-35.5 -24 -57.5 -24c-22.667 0 -42 8 -58 24s-24 35.333 -24 58c0 22 8 41.167 24 57.5s35.333 24.5 58 24.5c22 0 41.167 -8.16699 57.5 -24.5s24.5 -35.5 24.5 -57.5v0zM119 500.999c0 9.33301 -3.33301 17.5 -10 24.5s-14.667 10.5 -24 10.5s-17.5 -3.5 -24.5 -10.5
s-10.5 -15.167 -10.5 -24.5c0 -10 3.5 -18.333 10.5 -25s15.167 -10 24.5 -10s17.333 3.33301 24 10s10 15 10 25v0z" />
    <glyph glyph-name="ampersand" unicode="&#x26;" horiz-adv-x="440" 
d="M417 542c1.33301 -2.66699 2.16895 -5.1709 2.50195 -7.50391s0.5 -5.16602 0.5 -8.49902c0 -7.33301 -1.83301 -15 -5.5 -23s-8.5 -16.333 -14.5 -25s-13.167 -17.334 -21.5 -26.001l-24.5 -25c-12 -11.333 -23.5 -21.5 -34.5 -30.5s-19.5 -16.167 -25.5 -21.5l-31 34
l90 83c9.33301 8 15.333 14.833 18 20.5s4 9.5 4 11.5v1v0l-0.5 0.5c-0.333008 0.333008 -0.833008 0.5 -1.5 0.5c-1.33301 0.666992 -3 1.16699 -5 1.5s-4.66699 0.5 -8 0.5h-76h-4h-4c-25.333 -1.33301 -49 -9.5 -71 -24.5s-36.667 -34.833 -44 -59.5l-2 -11.5
c-0.666992 -3.66699 -1 -7.16699 -1 -10.5c0 -4.66699 0.5 -9 1.5 -13s2.16699 -7.66699 3.5 -11l30 -64c1.33301 -2.66699 2.33301 -5.33398 3 -8.00098s1 -5.66699 1 -9v-2.5c0 -1 -0.333008 -2.16699 -1 -3.5c-0.666992 -5.33301 -2.5 -10.666 -5.5 -15.999
s-7.16699 -9.66602 -12.5 -12.999l-15 -12c-34.667 -26.667 -59.5 -50.667 -74.5 -72s-22.5 -38.333 -22.5 -51v-4c0 -1.33301 0.333008 -2.66602 1 -3.99902c2 -6 7.66699 -10.833 17 -14.5s21.333 -5.5 36 -5.5c8.66699 0 17.667 0.833008 27 2.5
s18.333 3.83398 27 6.50098c18.667 6 37 14.5 55 25.5s34.667 23.833 50 38.5l-47 73l38 25l41 -64c12.667 15.333 23.834 31.833 33.501 49.5s17.167 35.834 22.5 54.501l44 -13c-6.66699 -24 -16.5 -47 -29.5 -69s-27.833 -42.667 -44.5 -62l72 -113l-38 -25l-67 105
c-24.667 -22 -53 -40.667 -85 -56s-65 -23 -99 -23c-24.667 0 -43.834 3.33301 -57.501 10s-23.5 14 -29.5 22l-5.5 9.5c-1.66699 3 -2.83398 5.83301 -3.50098 8.5c-1.33301 3.33301 -2.33301 7 -3 11s-1 8.33301 -1 13c0.666992 22.667 10.834 47.5 30.501 74.5
s47.834 54.833 84.501 83.5l2.5 2c1.66699 1.33301 3.5 2.66602 5.5 3.99902v0h1c1.33301 1.33301 2.66602 2.33301 3.99902 3s2.33301 1.33398 3 2.00098l-6 12c-2.66699 5.33301 -5.33398 11 -8.00098 17v0.5v0.5c-4 8 -7.5 15.333 -10.5 22l-4.5 10
c-2.66699 6.66699 -4.83398 13.5 -6.50098 20.5s-2.5 14.167 -2.5 21.5c0 5.33301 0.5 11 1.5 17s2.16699 12 3.5 18c9.33301 34 29.666 62 60.999 84s66.333 33 105 33h76c12 0 23.333 -2.33301 34 -7s18.334 -12.667 23.001 -24v0z" />
    <glyph glyph-name="quotesingle" unicode="'" horiz-adv-x="143" 
d="M120 713l-53.001 -112.001l-34 12c2 6 4.5 15 7.5 27s6.5 24.667 10.5 38c0.666992 2 1.33398 4.33301 2.00098 7s1.33398 5 2.00098 7c4 13.333 7.83301 25.333 11.5 36s6.5 17.334 8.5 20.001c3.33301 2.66699 6.83301 4.5 10.5 5.5s7.5 1.5 11.5 1.5
s7.66699 -0.666992 11 -2s6.33301 -3 9 -5c1.33301 -2 2.5 -3.83301 3.5 -5.5s1.83301 -3.16699 2.5 -4.5s1.16699 -2.83301 1.5 -4.5s0.5 -3.5 0.5 -5.5c-0.666992 -2.66699 -1.33398 -5.16699 -2.00098 -7.5s-1.66699 -4.83301 -3 -7.5v0z" />
    <glyph glyph-name="parenleft" unicode="(" horiz-adv-x="200" 
d="M149 -216c-44.667 2 -75.1621 22.667 -91.4951 62s-24.5 85.666 -24.5 138.999c0 10.667 0.333008 22 1 34s1.66699 24 3 36c2 28.667 5.5 56.834 10.5 84.501s10.167 53.167 15.5 76.5c3.33301 15.333 6.66602 29.5 9.99902 42.5s6.33301 24.167 9 33.5
c7.33301 24.667 18.666 59.5 33.999 104.5s34.666 92.167 57.999 141.5c32 68 70.667 130.5 116 187.5s96.333 87.167 153 90.5l-34 -64c-2 0 -4.16699 -0.333008 -6.5 -1s-4.5 -1.33398 -6.5 -2.00098c-32.667 -10.667 -64.667 -39 -96 -85s-59.333 -95.667 -84 -149
c-22 -46.667 -40.833 -91.167 -56.5 -133.5s-25.834 -72.166 -30.501 -89.499l-8.5 -35c-3.66699 -15.333 -7.5 -33 -11.5 -53l-10.5 -65c-3.66699 -23.333 -6.83398 -47 -9.50098 -71c-1.33301 -14 -2.33301 -28.167 -3 -42.5s-1 -27.833 -1 -40.5c0 -42 5 -78 15 -108
s28 -45.333 54 -46l-5 -47v0z" />
    <glyph glyph-name="parenright" unicode=")" horiz-adv-x="200" 
d="M298 292c-6.66699 -24 -17.834 -57.8379 -33.501 -101.505s-34.834 -89.5 -57.501 -137.5c-32.667 -65.333 -71.667 -125.833 -117 -181.5s-95.333 -84.5 -150 -86.5l14 55c6 0.666992 11.667 1.83398 17 3.50098s11 3.83398 17 6.50098
c28.667 14.667 57.5 43.334 86.5 86.001s55.167 88 78.5 136c22.667 46.667 41.834 91 57.501 133s25.834 71 30.501 87c2.66699 9.33301 6.16699 22.666 10.5 39.999s8.83301 37 13.5 59c4 19.333 8 40 12 62s7.33301 44.333 10 67c2 18 3.66699 35.833 5 53.5
s2 34.5 2 50.5c0 37.333 -4.33301 69 -13 95s-24 40.333 -46 43l4 54c44 -2.66699 74 -23.167 90 -61.5s24 -83.5 24 -135.5c0 -13.333 -0.333008 -26.666 -1 -39.999s-2 -26.666 -4 -39.999c-2.66699 -28 -6.5 -55.667 -11.5 -83s-10.167 -52.666 -15.5 -75.999
l-12.5 -49.5c-3.66699 -15 -7.16699 -27.833 -10.5 -38.5v0z" />
    <glyph glyph-name="asterisk" unicode="*" horiz-adv-x="304" 
d="M290 635c0 -10.667 -3.83496 -20 -11.502 -28s-17.167 -12 -28.5 -12c-4.66699 0 -9.16699 1.5 -13.5 4.5l-13.5 9.5c-4 3.33301 -8.16699 6.5 -12.5 9.5s-8.5 4.5 -12.5 4.5h-25l12 -21c2 -4 5.16699 -7 9.5 -9l13.5 -6c0.666992 0 1.33398 -0.166992 2.00098 -0.5
s1.33398 -0.5 2.00098 -0.5c7.33301 -2.66699 14 -6.33398 20 -11.001s9 -13 9 -25c0 -11.333 -3.83301 -20.833 -11.5 -28.5s-17.167 -11.5 -28.5 -11.5c-9.33301 0 -18 3.16699 -26 9.5s-12 14.5 -12 24.5c0 2.66699 0.166992 5.33398 0.5 8.00098
s0.833008 5.33398 1.5 8.00098s1.16699 5.33398 1.5 8.00098s0.5 5.33398 0.5 8.00098c0 4.66699 -0.833008 9 -2.5 13s-3.5 7.66699 -5.5 11l-2 4c-0.666992 1.33301 -1.66699 2.66602 -3 3.99902c0 0.666992 -0.166992 1.33398 -0.5 2.00098
s-0.833008 1.33398 -1.5 2.00098c-0.666992 -1.33301 -1.5 -2.83301 -2.5 -4.5s-1.83301 -3.16699 -2.5 -4.5c0 -0.666992 -0.166992 -1.16699 -0.5 -1.5l-1.5 -1.5c-2 -4 -3.83301 -7.83301 -5.5 -11.5s-2.5 -7.83398 -2.5 -12.501
c0 -2.66699 0.166992 -5.33398 0.5 -8.00098s0.833008 -5.33398 1.5 -8.00098c0 -3.33301 0.166992 -6.33301 0.5 -9s0.5 -5.33398 0.5 -8.00098c0 -11.333 -4.16699 -19.5 -12.5 -24.5s-17.5 -7.83301 -27.5 -8.5h-1.5h-1.5c-9.33301 0 -16.833 3.66699 -22.5 11
s-9.16699 15.333 -10.5 24c-0.666992 1.33301 -1 3 -1 5v5c0 9.33301 3 16 9 20s12.667 7.33301 20 10h1h1c4.66699 2 9.33398 4.16699 14.001 6.5s8.33398 5.5 11.001 9.5l12 22h-25c-3.33301 0 -6.5 -0.833008 -9.5 -2.5l-9.5 -5.5
c-1.33301 -1.33301 -2.5 -2.33301 -3.5 -3s-2.16699 -1.66699 -3.5 -3c-4 -3.33301 -8.5 -6.5 -13.5 -9.5s-11.167 -4.5 -18.5 -4.5s-14 3 -20 9s-10 12.667 -12 20c-0.666992 2 -1.16699 3.83301 -1.5 5.5s-0.5 3.5 -0.5 5.5c0 10.667 4 20 12 28s17.333 12 28 12
c4 0 7.16699 -0.666992 9.5 -2s4.83301 -3 7.5 -5c1.33301 -0.666992 2.66602 -1.66699 3.99902 -3s3 -2.66602 5 -3.99902c4.66699 -3.33301 10.667 -6.5 18 -9.5s18.333 -4.5 33 -4.5l-13 22c-2 4 -5.16699 7 -9.5 9l-13.5 6h-1.5c-0.333008 0 -0.833008 0.333008 -1.5 1
c-7.33301 2.66699 -14 6.16699 -20 10.5s-9 12.5 -9 24.5c0 11.333 4 20.833 12 28.5s17.333 11.5 28 11.5h1.5h1.5c8.66699 -0.666992 16.5 -4.16699 23.5 -10.5s10.5 -14.166 10.5 -23.499c0 -2.66699 -0.166992 -5.33398 -0.5 -8.00098s-0.5 -5.33398 -0.5 -8.00098
c-0.666992 -2.66699 -1.16699 -5.33398 -1.5 -8.00098s-0.5 -5.33398 -0.5 -8.00098c0 -4.66699 0.666992 -8.66699 2 -12s3 -6.66602 5 -9.99902c0.666992 -1.33301 1.5 -2.83301 2.5 -4.5s2.16699 -3.16699 3.5 -4.5c0 -0.666992 0.166992 -1.33398 0.5 -2.00098
s0.833008 -1.33398 1.5 -2.00098c1.33301 2 2.66602 4.16699 3.99902 6.5s2.66602 4.5 3.99902 6.5l4 10c1.33301 3.33301 2 7.33301 2 12c0 2.66699 -0.166992 5.33398 -0.5 8.00098s-0.5 5.33398 -0.5 8.00098c-0.666992 2.66699 -1.16699 5.33398 -1.5 8.00098
s-0.5 5.33398 -0.5 8.00098c0 9.33301 3.5 17.166 10.5 23.499s14.833 9.83301 23.5 10.5h1.5h1.5c11.333 0 20.833 -3.83301 28.5 -11.5s11.5 -17.167 11.5 -28.5s-3 -19.333 -9 -24s-12.667 -8.66699 -20 -12c-0.666992 0 -1.5 -0.166992 -2.5 -0.5
s-1.83301 -0.5 -2.5 -0.5c-4.66699 -2 -8.83398 -4 -12.501 -6s-6.5 -4.66699 -8.5 -8l-13 -22h26c4 0 7.83301 1.16699 11.5 3.5s7.16699 4.83301 10.5 7.5c0.666992 0.666992 1.33398 1.16699 2.00098 1.5s1.33398 0.833008 2.00098 1.5c4 3.33301 8.16699 6.5 12.5 9.5
s8.83301 4.5 13.5 4.5c10.667 0 20 -4 28 -12s12 -17.333 12 -28v0z" />
    <glyph glyph-name="plus" unicode="+" horiz-adv-x="400" 
d="M376 292h-146v-145h-66v145h-145v66h145v146h66v-146h146v-66v0z" />
    <glyph glyph-name="comma" unicode="," horiz-adv-x="115" 
d="M101 97l-0.000976562 -1.99512v-2c0 -0.666992 -0.166992 -1.33398 -0.5 -2.00098s-0.5 -1.33398 -0.5 -2.00098v-2c0 -0.666992 -0.333008 -1.33398 -1 -2.00098l-20 -71h-47l14 48c-6.66699 3.33301 -12 8.16602 -16 14.499s-6 13.166 -6 20.499
c0 11.333 3.83301 20.666 11.5 27.999s16.834 11 27.501 11s19.667 -3.66699 27 -11s11 -16.666 11 -27.999v0z" />
    <glyph glyph-name="hyphen" unicode="-" horiz-adv-x="200" 
d="M188 287h-188v76h188v-76v0z" />
    <glyph glyph-name="period" unicode="." horiz-adv-x="98" 
d="M89 97c0 -10.667 -3.83301 -19.667 -11.5 -27s-16.834 -11 -27.501 -11s-19.834 3.66699 -27.501 11s-11.5 16.333 -11.5 27c0 11.333 3.83301 20.666 11.5 27.999s16.834 11 27.501 11s19.834 -3.66699 27.501 -11s11.5 -16.666 11.5 -27.999v0z" />
    <glyph glyph-name="slash" unicode="/" horiz-adv-x="305" 
d="M291 772l-207 -772h-55l207 772h55v0z" />
    <glyph glyph-name="zero" unicode="0" horiz-adv-x="361" 
d="M337 237c-12.667 -42.667 -35.666 -79.999 -68.999 -111.999s-69 -51.333 -107 -58c-4 -0.666992 -8.16699 -1.16699 -12.5 -1.5s-8.5 -0.5 -12.5 -0.5c-19.333 0 -37 3.83301 -53 11.5s-29.333 18.834 -40 33.501c-8.66699 11.333 -15.167 24.166 -19.5 38.499
s-6.5 29.5 -6.5 45.5c0 9.33301 0.666992 18.666 2 27.999s3.33301 18.666 6 27.999c12 42.667 34.667 80 68 112s69 51.333 107 58c4 0.666992 8.16699 1.16699 12.5 1.5s8.5 0.5 12.5 0.5c19.333 0 37.166 -3.83301 53.499 -11.5s29.833 -18.834 40.5 -33.501
c8.66699 -11.333 15.167 -24.166 19.5 -38.499s6.5 -29.833 6.5 -46.5c0 -8.66699 -0.666992 -17.667 -2 -27s-3.33301 -18.666 -6 -27.999v0zM293.001 250.001c2 7.33301 3.5 14.5 4.5 21.5s1.5 13.833 1.5 20.5c0 11.333 -1.5 22 -4.5 32s-7.16699 18.667 -12.5 26
c-6.66699 8.66699 -14.834 15.334 -24.501 20.001s-20.5 7 -32.5 7c-4.66699 0 -9.5 -0.333008 -14.5 -1s-9.83301 -1.66699 -14.5 -3c-27.333 -8 -53.166 -24.667 -77.499 -50s-41.166 -54 -50.499 -86c-2 -7.33301 -3.5 -14.5 -4.5 -21.5s-1.5 -13.833 -1.5 -20.5
c0 -11.333 1.5 -22 4.5 -32s7.16699 -18.667 12.5 -26c6.66699 -8.66699 14.834 -15.334 24.501 -20.001s20.5 -7 32.5 -7c4.66699 0 9.5 0.333008 14.5 1s9.83301 1.66699 14.5 3c27.333 8 53.166 24.667 77.499 50s41.166 54 50.499 86v0z" />
    <glyph glyph-name="one" unicode="1" horiz-adv-x="182" 
d="M174 438l-105 -363.999h-47l83 289l-80 -31l-17 42c27.333 11.333 54.833 22.166 82.5 32.499l83.5 31.5v0z" />
    <glyph glyph-name="two" unicode="2" horiz-adv-x="354" 
d="M335 330c-3.33301 -12 -9.50098 -23.4971 -18.501 -34.4971s-20.167 -20.5 -33.5 -28.5l-39.5 -25.5l-44.5 -28.5l-39.5 -28.5c-13 -9.66699 -24.833 -19.167 -35.5 -28.5c-7.33301 -6.66699 -14 -13 -20 -19s-11.333 -12 -16 -18h135h3.5c1 0 2.16699 0.333008 3.5 1
c10 1.33301 19.333 5.83301 28 13.5s14.334 16.167 17.001 25.5l43 -12c-5.33301 -20.667 -17.166 -38 -35.499 -52s-38.166 -21 -59.499 -21h-103.5h-103.5c17.333 46.667 44.5 85.667 81.5 117s76.167 60 117.5 86l22 14l22 14c8.66699 5.33301 15.667 11.333 21 18
s9 13.334 11 20.001c0 0.666992 0.166992 1.5 0.5 2.5s0.5 1.83301 0.5 2.5c0.666992 0.666992 1 1.5 1 2.5v2.5c0 2.66699 -0.5 5.16699 -1.5 7.5s-2.5 4.5 -4.5 6.5c-4 6 -10.167 10.667 -18.5 14s-18.166 5 -29.499 5h-4.5h-5.5c-18.667 -2 -36.334 -8.33301 -53.001 -19
s-27 -23 -31 -37c-0.666992 -1.33301 -1 -2.66602 -1 -3.99902v-4v-2c0 -0.666992 0.333008 -1.33398 1 -2.00098v-1.5v-1.5c-2.66699 -0.666992 -5.16699 -1.33398 -7.5 -2.00098s-4.5 -1.33398 -6.5 -2.00098c-6 -1.33301 -11.333 -2.83301 -16 -4.5
s-8.33398 -2.16699 -11.001 -1.5c-2.66699 0 -4.66699 0.833008 -6 2.5s-2 4.16699 -2 7.5s0.5 7.16602 1.5 11.499s2.5 9.83301 4.5 16.5c7.33301 24.667 24.166 45.5 50.499 62.5s55.166 25.5 86.499 25.5c18 0 34.5 -3.16699 49.5 -9.5s26.833 -15.166 35.5 -26.499
c4.66699 -6.66699 8.16699 -13.834 10.5 -21.501s3.5 -15.5 3.5 -23.5c0 -2.66699 -0.166992 -5.83398 -0.5 -9.50098s-1.16602 -7.16699 -2.49902 -10.5v0z" />
    <glyph glyph-name="three" unicode="3" horiz-adv-x="346" 
d="M327 323c-6.66699 -22.667 -18.832 -39.6641 -36.499 -50.9971s-36.5 -20.666 -56.5 -27.999c-0.666992 -0.666992 -1.33398 -1.16699 -2.00098 -1.5s-1.33398 -0.5 -2.00098 -0.5c9.33301 -4 17.666 -8.83301 24.999 -14.5s13.666 -12.167 18.999 -19.5
c6 -8 10.5 -16.667 13.5 -26s4.5 -19 4.5 -29v-7.5c0 -2.33301 -0.333008 -4.5 -1 -6.5c0 -2.66699 -0.333008 -5.16699 -1 -7.5s-1.33398 -4.83301 -2.00098 -7.5c-9.33301 -32.667 -31.166 -60.5 -65.499 -83.5s-71.833 -34.5 -112.5 -34.5h-94v45h12h12h31
c10.667 0 21.667 0.333008 33 1c30.667 1.33301 59.5 7.66602 86.5 18.999s45.167 33 54.5 65c0.666992 3.33301 1.16699 6.16602 1.5 8.49902s0.5 4.83301 0.5 7.5c0 5.33301 -0.666992 10.5 -2 15.5s-3.66602 9.5 -6.99902 13.5c-6.66699 9.33301 -16 16.333 -28 21
s-25.667 7 -41 7c-8 0 -15.833 -0.666992 -23.5 -2s-15.167 -3.33301 -22.5 -6c-2.66699 -0.666992 -5.16699 -1.33398 -7.5 -2.00098s-4.83301 -1.66699 -7.5 -3c-0.666992 2.66699 -1.66699 5.66699 -3 9l-4 10c0 1.33301 -0.333008 2.66602 -1 3.99902
s-1 2.66602 -1 3.99902l-3.5 9c-1 2.66699 -2.16699 5 -3.5 7l141 53c2 0.666992 3.83301 1.33398 5.5 2.00098s3.5 1.66699 5.5 3c8.66699 3.33301 16.667 8.33301 24 15s12.333 14.667 15 24c0.666992 1.33301 1 2.83301 1 4.5v3.5c0 3.33301 -0.5 6.66602 -1.5 9.99902
s-2.5 6.33301 -4.5 9c-4.66699 7.33301 -12.167 13 -22.5 17s-21.833 6 -34.5 6h-6c-2 0 -4 -0.333008 -6 -1c-20 -2.66699 -38.5 -10 -55.5 -22s-27.5 -25.333 -31.5 -40c-0.666992 -2.66699 -1.16699 -5.16699 -1.5 -7.5s-0.5 -5.16602 -0.5 -8.49902
c-3.33301 0 -6.66602 -0.333008 -9.99902 -1s-6.66602 -1 -9.99902 -1l-10 -2c-3.33301 -0.666992 -6 -1 -8 -1c-2.66699 0 -4.83398 0.833008 -6.50098 2.5s-2.5 4.16699 -2.5 7.5s0.5 6.83301 1.5 10.5l3.5 13.5c7.33301 26.667 24.833 49.167 52.5 67.5
s57.834 27.5 90.501 27.5c19.333 0 37.333 -3.5 54 -10.5s30 -17.167 40 -30.5c5.33301 -6.66699 9.16602 -14 11.499 -22s3.5 -16 3.5 -24c0 -3.33301 -0.166992 -6.83301 -0.5 -10.5s-1.16602 -7.16699 -2.49902 -10.5v0z" />
    <glyph glyph-name="four" unicode="4" horiz-adv-x="389" 
d="M372 429l-89 -310h42v-45h-55l-38 -133l-44 12l35 121h-205c19.333 94 59.5 170.5 120.5 229.5s138.833 100.833 233.5 125.5v0zM305 362c-52.667 -20.667 -100 -52.667 -142 -96s-71.667 -92.333 -89 -147h162l69 243v0z" />
    <glyph glyph-name="five" unicode="5" horiz-adv-x="376" 
d="M359 386l-175 0.00390625c-2 0 -4.16699 -0.833008 -6.5 -2.5s-4.5 -3.83398 -6.5 -6.50098c-4 -4 -7.66699 -9.33301 -11 -16l-10 -20l-11 -29c-3.33301 -8.66699 -5.33301 -14 -6 -16c10.667 5.33301 21.667 9.66602 33 12.999s23 5 35 5
c17.333 0 33.166 -3.33301 47.499 -10s26.166 -16.667 35.499 -30c7.33301 -10 13 -21.167 17 -33.5s6 -25.5 6 -39.5c0 -7.33301 -0.5 -14.833 -1.5 -22.5s-2.83301 -15.5 -5.5 -23.5c-10.667 -37.333 -30.5 -69.833 -59.5 -97.5s-59.833 -44.5 -92.5 -50.5
c-4 -0.666992 -7.83301 -1.16699 -11.5 -1.5s-7.16699 -0.5 -10.5 -0.5h-109v45h109c26 0 50 9.66699 72 29s38.667 40.666 50 63.999c2 4 3.66699 8 5 12l4 12c1.33301 6 2.5 12 3.5 18s1.5 11.667 1.5 17c0 9.33301 -1.16699 17.666 -3.5 24.999s-5.83301 14 -10.5 20
c-5.33301 7.33301 -12 12.833 -20 16.5s-17 5.5 -27 5.5c-5.33301 0 -10.666 -0.5 -15.999 -1.5s-10.666 -2.5 -15.999 -4.5c-16 -6 -31.5 -15.667 -46.5 -29s-27.5 -29 -37.5 -47l-41 21l79 179c6 13.333 14.5 24 25.5 32s22.833 12 35.5 12h175v-45v0z" />
    <glyph glyph-name="six" unicode="6" horiz-adv-x="371" 
d="M346 242c-12.667 -43.333 -36.4961 -81.334 -71.4961 -114.001s-72.167 -51.667 -111.5 -57c-4 -0.666992 -7.83301 -1.16699 -11.5 -1.5s-7.16699 -0.5 -10.5 -0.5c-20.667 0 -39.334 4.16699 -56.001 12.5s-30.667 19.833 -42 34.5
c-8.66699 11.333 -15.167 24.333 -19.5 39s-6.5 30 -6.5 46c0 7.33301 0.5 14.666 1.5 21.999s2.16699 14.666 3.5 21.999c3.33301 14 7.33301 28.333 12 43s10 29.334 16 44.001l6.5 14.5c2.33301 5 4.83301 9.83301 7.5 14.5c20 38 43.167 72 69.5 102
s53.166 53.667 80.499 71c16 10 31.833 17.667 47.5 23s30.834 8 45.501 8c4 0 8 -0.166992 12 -0.5s8 -1.16602 12 -2.49902l-11 -44c-2.66699 0.666992 -5.16699 1.16699 -7.5 1.5s-4.83301 0.5 -7.5 0.5c-6.66699 0 -13.667 -1.16699 -21 -3.5s-15 -5.16602 -23 -8.49902
c-12.667 -6.66699 -25.5 -15 -38.5 -25s-24.833 -20.333 -35.5 -31c-9.33301 -8.66699 -17.833 -17.334 -25.5 -26.001s-13.834 -16.334 -18.501 -23.001c14 7.33301 28.5 13 43.5 17s29.833 6 44.5 6c20 0 38.333 -3.83301 55 -11.5s30.667 -19.167 42 -34.5
c8.66699 -11.333 15.167 -24.166 19.5 -38.499s6.5 -29.5 6.5 -45.5c0 -5.33301 -0.333008 -11.166 -1 -17.499s-1.66699 -12.5 -3 -18.5c-0.666992 -2.66699 -1.33398 -5.5 -2.00098 -8.5s-1.33398 -6.16699 -2.00098 -9.5v0zM303.004 253.999
c2 7.33301 3.49805 14.5039 4.49805 21.5039s1.5 13.833 1.5 20.5c0 11.333 -1.5 21.833 -4.5 31.5s-7.16699 18.167 -12.5 25.5c-6.66699 9.33301 -15.167 16.333 -25.5 21s-22.166 7 -35.499 7c-4 0 -8 -0.166992 -12 -0.5s-8 -1.16602 -12 -2.49902
c-30 -6 -58.167 -21.833 -84.5 -47.5s-44.5 -55.167 -54.5 -88.5v-1.5v-0.5c-0.666992 -0.666992 -1 -1.16699 -1 -1.5v-1.5c0 -0.666992 -0.166992 -1.33398 -0.5 -2.00098s-0.5 -1.33398 -0.5 -2.00098c0 -1.33301 -0.166992 -2.33301 -0.5 -3
s-0.5 -1.33398 -0.5 -2.00098c-0.666992 -2.66699 -1.16699 -5.16699 -1.5 -7.5s-0.5 -4.5 -0.5 -6.5c-0.666992 -2.66699 -1 -5.16699 -1 -7.5v-7.5c0 -10.667 1.5 -20.834 4.5 -30.501s7.16699 -18.167 12.5 -25.5c7.33301 -8.66699 16.333 -15.5 27 -20.5
s22.334 -7.5 35.001 -7.5c4.66699 0 9.16699 0.333008 13.5 1l13.5 2c28.667 7.33301 56 23.666 82 48.999s43.667 54.333 53 87v0z" />
    <glyph glyph-name="seven" unicode="7" horiz-adv-x="341" 
d="M326 431l-186.002 -296c-2.66699 -4 -7 -12.333 -13 -25s-12.333 -27 -19 -43c-2 -4.66699 -3.83301 -9.33398 -5.5 -14.001l-5.5 -15c-2.66699 -6 -5 -12.167 -7 -18.5l-6 -18.5l-43 13c16.667 55.333 39.167 107.333 67.5 156s58.166 96.667 89.499 144
c0.666992 1.33301 1.33398 2.5 2.00098 3.5s1.33398 2.16699 2.00098 3.5l21 32.5l21 32.5h-169c-1.33301 0 -2.66602 -0.333008 -3.99902 -1l-4 -2c0 -0.666992 -0.166992 -1.16699 -0.5 -1.5s-0.833008 -0.5 -1.5 -0.5c-1.33301 -1.33301 -2.33301 -3.16602 -3 -5.49902
s-1 -5.16602 -1 -8.49902v-2v-2l6 -79l-45 -4l-6 79v4.5v4.5c0 8.66699 1.33301 16.667 4 24s6.66699 13.666 12 18.999c5.33301 6.66699 11.833 11.667 19.5 15s15.5 5 23.5 5h63h63h62.5h62.5v0z" />
    <glyph glyph-name="eight" unicode="8" horiz-adv-x="383" 
d="M357 402l-44 10.999l6 22c1.33301 3.33301 2 6.16602 2 8.49902v5.5c0 2 -0.166992 3.5 -0.5 4.5s-0.833008 1.5 -1.5 1.5l-1.5 1.5l-0.5 0.5c-2.66699 1.33301 -5.83398 2.5 -9.50098 3.5s-7.83398 1.5 -12.501 1.5c-7.33301 0 -15.166 -0.833008 -23.499 -2.5
s-16.833 -3.83398 -25.5 -6.50098c-12 -4 -23.833 -9 -35.5 -15s-21.167 -12.333 -28.5 -19c-6.66699 -6.66699 -11.167 -13 -13.5 -19s-3.5 -11 -3.5 -15v-2c0 -0.666992 0.333008 -1.33398 1 -2.00098v-1v-1l19 -19.5l32 -34.5l68 39l23 -39l-59 -34l24 -25.5l10 -10.5
c12.667 -13.333 21.167 -26.333 25.5 -39s6.5 -24 6.5 -34c0 -6.66699 -0.666992 -12.834 -2 -18.501s-3 -10.5 -5 -14.5c-10.667 -24 -30.834 -43.333 -60.501 -58s-64.167 -22 -103.5 -22c-30 0 -54.667 1.83301 -74 5.5s-33.666 11.5 -42.999 23.5
c-2 2.66699 -3.5 5.33398 -4.5 8.00098s-2.16699 5.33398 -3.5 8.00098c-0.666992 2 -1.16699 4.33301 -1.5 7s-0.5 5.33398 -0.5 8.00098c0 4 0.333008 7.66699 1 11l2 10c0.666992 0.666992 1.16699 1.66699 1.5 3s0.5 2.33301 0.5 3
c8.66699 29.333 24.334 53.666 47.001 72.999s47 36.666 73 51.999l17.5 10l17.5 10c-4 4 -7.83301 8.16699 -11.5 12.5s-7.5 8.5 -11.5 12.5l-11.5 12l-11.5 12c-3.33301 4 -6 9 -8 15s-3 12.333 -3 19c0 4.66699 0.333008 9.33398 1 14.001s2 9.33398 4 14.001
c2.66699 6.66699 6.16699 13.5 10.5 20.5s9.5 13.5 15.5 19.5c10.667 10 25 19.5 43 28.5s36.667 15.833 56 20.5c7.33301 2 14.666 3.5 21.999 4.5s14.666 1.5 21.999 1.5c8.66699 0 16.834 -0.833008 24.501 -2.5s14.834 -4.5 21.501 -8.5c10 -6 16.833 -13 20.5 -21
s5.5 -16.667 5.5 -26c0 -4 -0.333008 -7.83301 -1 -11.5l-2 -11.5l-2 -8l-2 -8c0 -1.33301 -0.166992 -2.66602 -0.5 -3.99902s-0.833008 -2.66602 -1.5 -3.99902v0zM267 166.999c0.666992 1.33301 1.16602 2.66895 1.49902 4.00195s0.5 2.66602 0.5 3.99902
c0.666992 1.33301 1 2.66602 1 3.99902v4c0 6.66699 -1.66699 13.5 -5 20.5s-8.33301 13.833 -15 20.5l-12 13l-29 31l-34.5 -20.5l-14.5 -8.5c-36 -20.667 -60 -39 -72 -55s-19.667 -29.333 -23 -40c-0.666992 -4 -1.16699 -7.16699 -1.5 -9.5s-0.5 -4.16602 -0.5 -5.49902
v-3v-1c0.666992 -0.666992 1.66699 -1.33398 3 -2.00098s3.33301 -1.33398 6 -2.00098c4.66699 -1.33301 12.667 -2.66602 24 -3.99902s27.333 -2 48 -2c32 0 58.333 4.83301 79 14.5s34.334 20.5 41.001 32.5c0.666992 0.666992 1.16699 1.5 1.5 2.5
s0.833008 1.83301 1.5 2.5v0z" />
    <glyph glyph-name="nine" unicode="9" horiz-adv-x="371" 
d="M349 260c-2.66699 -14 -6.33398 -28.3311 -11.001 -42.998s-10.334 -29.334 -17.001 -44.001l-6.5 -14.5c-2.33301 -5 -4.83301 -9.83301 -7.5 -14.5c-20 -38 -43.167 -71.667 -69.5 -101s-53.166 -52.666 -80.499 -69.999c-16 -10.667 -31.833 -18.667 -47.5 -24
s-30.834 -8 -45.501 -8c-4 0 -8 0.166992 -12 0.5s-8 1.16602 -12 2.49902l11 43c0.666992 0.666992 1.5 0.833984 2.5 0.500977s1.83301 -0.5 2.5 -0.5c1.33301 0 2.83301 -0.166992 4.5 -0.5s3.5 -0.5 5.5 -0.5c14.667 0.666992 31.667 5.66699 51 15
s38.666 23.333 57.999 42c9.33301 8.66699 18.5 18 27.5 28s17.833 20.667 26.5 32c-14 -7.33301 -28.333 -13.333 -43 -18s-29.667 -7 -45 -7c-20 0 -38.5 4.16699 -55.5 12.5s-31.167 19.833 -42.5 34.5c-8.66699 11.333 -15.167 24.166 -19.5 38.499s-6.5 29.5 -6.5 45.5
c0 6 0.333008 12 1 18s1.66699 12 3 18c0.666992 2.66699 1.33398 5.66699 2.00098 9s1.33398 6.33301 2.00098 9c12.667 46 37.667 85.5 75 118.5s77 51.167 119 54.5h6h6c20 0 38.5 -4 55.5 -12s30.833 -19.667 41.5 -35c8.66699 -11.333 15.334 -24.333 20.001 -39
s6.66699 -30 6 -46c0 -6.66699 -0.333008 -13.834 -1 -21.501s-2 -15.167 -4 -22.5v0zM306 277.002c0.666992 2.66699 1.16504 5.16602 1.49805 7.49902s0.5 4.83301 0.5 7.5c0.666992 2 1 4.16699 1 6.5v7.5c0 11.333 -1.5 21.666 -4.5 30.999
s-7.16699 17.666 -12.5 24.999c-6.66699 9.33301 -15.167 16.333 -25.5 21s-22.166 7 -35.499 7c-4 0 -8 -0.166992 -12 -0.5s-8 -1.16602 -12 -2.49902c-30 -6 -58.167 -21.833 -84.5 -47.5s-44.5 -55.167 -54.5 -88.5c-2 -7.33301 -3.5 -14.5 -4.5 -21.5
s-1.5 -13.833 -1.5 -20.5c0 -10.667 1.5 -21 4.5 -31s7.16699 -18.667 12.5 -26c7.33301 -8.66699 16.333 -15.5 27 -20.5s22.334 -7.5 35.001 -7.5c4.66699 0 9.16699 0.333008 13.5 1l13.5 2c28.667 7.33301 56 23.666 82 48.999s43.667 54.333 53 87v1.5
c0 0.333008 0.333008 0.833008 1 1.5v0.5v1.5c0 0.666992 0.166992 1.33398 0.5 2.00098s0.5 1.66699 0.5 3c0 0.666992 0.166992 1.33398 0.5 2.00098s0.5 1.33398 0.5 2.00098v0z" />
    <glyph glyph-name="colon" unicode=":" horiz-adv-x="98" 
d="M89 97c0 -10.667 -3.83301 -19.667 -11.5 -27s-16.834 -11 -27.501 -11s-19.834 3.66699 -27.501 11s-11.5 16.333 -11.5 27c0 11.333 3.83301 20.666 11.5 27.999s16.834 11 27.501 11s19.834 -3.66699 27.501 -11s11.5 -16.666 11.5 -27.999v0zM89 277
c0 -10.667 -3.83301 -19.667 -11.5 -27s-16.834 -11 -27.501 -11s-19.834 3.66699 -27.501 11s-11.5 16.333 -11.5 27c0 11.333 3.83301 20.666 11.5 27.999s16.834 11 27.501 11s19.834 -3.66699 27.501 -11s11.5 -16.666 11.5 -27.999v0z" />
    <glyph glyph-name="semicolon" unicode=";" horiz-adv-x="98" 
d="M91 97l-0.000976562 -1.99512v-2c0 -0.666992 -0.166992 -1.33398 -0.5 -2.00098s-0.5 -1.33398 -0.5 -2.00098v-2c0 -0.666992 -0.333008 -1.33398 -1 -2.00098l-20 -71h-47l14 48c-6.66699 3.33301 -12 8.16602 -16 14.499s-6 13.166 -6 20.499
c0 11.333 3.83301 20.666 11.5 27.999s16.834 11 27.501 11s19.667 -3.66699 27 -11s11 -16.666 11 -27.999v0zM88.999 277.005c0 -10.667 -3.83301 -19.667 -11.5 -27s-16.834 -11 -27.501 -11s-19.834 3.66699 -27.501 11s-11.5 16.333 -11.5 27
c0 11.333 3.83301 20.666 11.5 27.999s16.834 11 27.501 11s19.834 -3.66699 27.501 -11s11.5 -16.666 11.5 -27.999v0z" />
    <glyph glyph-name="less" unicode="&#x3c;" horiz-adv-x="400" 
d="M379 111l-375 217v57l375 217v-92l-250 -154l250 -154v-91v0z" />
    <glyph glyph-name="equal" unicode="=" horiz-adv-x="400" 
d="M400 207h-405v76h405v-76v0zM400 357h-405v76h405v-76v0z" />
    <glyph glyph-name="greater" unicode="&#x3e;" horiz-adv-x="400" 
d="M381 328l-375 -217v91l251 154l-251 154v92l375 -217v-57v0z" />
    <glyph glyph-name="question" unicode="?" horiz-adv-x="345" 
d="M113 97c0 -10.667 -3.83301 -19.667 -11.5 -27s-16.834 -11 -27.501 -11s-19.834 3.66699 -27.501 11s-11.5 16.333 -11.5 27c0 11.333 3.83301 20.666 11.5 27.999s16.834 11 27.501 11s19.834 -3.66699 27.501 -11s11.5 -16.666 11.5 -27.999v0zM324 520
c2 -4.66699 3.5 -9.83105 4.5 -15.498s1.5 -11.167 1.5 -16.5v-4.5c0 -1.66699 -0.333008 -3.5 -1 -5.5c-1.33301 -14.667 -6 -29.167 -14 -43.5s-18.667 -27.166 -32 -38.499l-104 -87c-18 -15.333 -31 -32.833 -39 -52.5s-15 -39.834 -21 -60.501
c0 -0.666992 -0.166992 -1.5 -0.5 -2.5s-0.5 -1.83301 -0.5 -2.5l-44 12c7.33301 26.667 16.166 52 26.499 76s26.833 45.333 49.5 64l103 88c4 3.33301 7.5 6.66602 10.5 9.99902s5.5 6.33301 7.5 9c4.66699 6.66699 8 13.334 10 20.001s3 12.667 3 18
c0 3.33301 -0.166992 6.16602 -0.5 8.49902s-1.16602 4.83301 -2.49902 7.5c-2.66699 7.33301 -7 13.166 -13 17.499s-13 6.5 -21 6.5h-111h-3.5c-1 0 -1.83301 -0.333008 -2.5 -1c-8 -1.33301 -15.667 -5.33301 -23 -12s-12 -13.667 -14 -21l-34 -117l-43 13l33 117
c5.33301 18 16.333 33.5 33 46.5s34.667 19.5 54 19.5h111c17.333 0 33 -4.66699 47 -14s24 -22.333 30 -39v0z" />
    <glyph glyph-name="at" unicode="@" horiz-adv-x="581" 
d="M554 332c0 -4 -0.167969 -8.16504 -0.500977 -12.498s-0.5 -8.5 -0.5 -12.5c-6 -46.667 -25.167 -89.5 -57.5 -128.5s-73.5 -58.5 -123.5 -58.5c-12 0 -21 2.16699 -27 6.5s-11.333 10.833 -16 19.5l-2 4l-2 4c-13.333 -10.667 -28.5 -19.5 -45.5 -26.5
s-34.167 -10.5 -51.5 -10.5c-30.667 0 -53.167 10.833 -67.5 32.5s-22.833 45.5 -25.5 71.5c-0.666992 4 -1.16699 8.33301 -1.5 13s-0.5 9 -0.5 13c0 53.333 18.833 99.666 56.5 138.999s82.834 59 135.501 59c13.333 0 23.5 -2.33301 30.5 -7s13.167 -10.334 18.5 -17.001
l4 -4l4 -4c2 -2.66699 4.33301 -5.16699 7 -7.5s5.33398 -4.5 8.00098 -6.5l8 31h40l-54.5 -151c-11 -30 -18.833 -56 -23.5 -78c-1.33301 -4 -2.5 -8.33301 -3.5 -13s-1.83301 -9.66699 -2.5 -15v-0.5v-1.5v-1.5v-0.5c0 -6 2.33301 -10.333 7 -13s9.66699 -4.66699 15 -6h4
h4c25.333 0 47.333 11.5 66 34.5s33 48.167 43 75.5c5.33301 13.333 9.33301 26.666 12 39.999s4 25 4 35c0 55.333 -21.167 99.833 -63.5 133.5s-89.833 50.5 -142.5 50.5c-66 0 -124.833 -23 -176.5 -69s-77.5 -103 -77.5 -171v-9c-0.666992 -66 23.833 -119 73.5 -159
s104.5 -62.333 164.5 -67c3.33301 -0.666992 7 -1 11 -1h12c41.333 0 75.333 7.83301 102 23.5s52 37.167 76 64.5c1.33301 2.66699 2.83301 5 4.5 7s3.5 4 5.5 6h40c-26.667 -45.333 -59.834 -79.333 -99.501 -102s-86.167 -34 -139.5 -34c-76.667 0 -144 24.5 -202 73.5
s-87 113.833 -87 194.5c0 86.667 29.833 154.667 89.5 204s130.167 74 211.5 74c64 0 119.333 -20.667 166 -62s70 -94.666 70 -159.999v0zM372.999 347.002l-0.00488281 1.49707c0 0.333008 -0.333008 0.833008 -1 1.5c-3.33301 16.667 -9.66602 31.834 -18.999 45.501
s-23.666 20.5 -42.999 20.5c-29.333 0 -55.166 -12.167 -77.499 -36.5s-38.5 -51.166 -48.5 -80.499c-4 -10 -7 -20.167 -9 -30.5s-3 -20.166 -3 -29.499c0 -18.667 3.5 -36 10.5 -52s20.5 -26.333 40.5 -31l0.5 -0.5c0.333008 -0.333008 0.833008 -0.5 1.5 -0.5h1.5h0.5
c1.33301 0 2.5 -0.166992 3.5 -0.5s1.83301 -0.5 2.5 -0.5c1.33301 0 2.5 -0.166992 3.5 -0.5s1.83301 -0.5 2.5 -0.5c34.667 0 59.334 10.167 74.001 30.5s27.334 46.833 38.001 79.5c2.66699 10 5.66699 20.333 9 31s7 21.667 11 33c0 0.666992 0.166992 1.66699 0.5 3
s0.5 3 0.5 5v0.5v1.5v6c0 2 0.333008 3.33301 1 4v0z" />
    <glyph glyph-name="A" unicode="A" horiz-adv-x="873" 
d="M895 633l-95.999 -337h61v-45h-75l-57 -201l-168 199l-9 -12c-30.667 -42.667 -69 -80.5 -115 -113.5s-119.333 -49.5 -220 -49.5h-173v46h173c69.333 0 126.5 10.167 171.5 30.5s87.5 58.166 127.5 113.499c4.66699 6 8.16699 10.167 10.5 12.5s3.83301 4.5 4.5 6.5
c0 1.33301 -0.833008 2.83301 -2.5 4.5s-4.16699 4.5 -7.5 8.5h18l265 366c5.33301 7.33301 11.166 13.5 17.499 18.5s12.833 8.83301 19.5 11.5c4.66699 2 9 3.5 13 4.5s8 1.5 12 1.5c9.33301 0 17.333 -3 24 -9s10 -15.667 10 -29c0 -4 -0.333008 -8.16699 -1 -12.5
s-1.66699 -9.16602 -3 -14.499v0zM738.001 251h-120l90 -107l7.5 27l7.5 27c2.66699 8.66699 5.16699 17.5 7.5 26.5s4.83301 17.833 7.5 26.5v0zM853.001 650c-2 -1.33301 -4 -3.16797 -6 -5.50098s-4.66699 -5.16602 -8 -8.49902l-45 -62.5l-99 -136.5l-54.5 -76
l-46.5 -65h157l101 350l1 4v0z" />
    <glyph glyph-name="B" unicode="B" horiz-adv-x="657" 
d="M672 704c10 -8.66699 17.0039 -18.3291 21.0039 -28.9961s6 -22.334 6 -35.001c0 -8.66699 -0.833008 -17.5 -2.5 -26.5s-4.16699 -17.833 -7.5 -26.5c-6.66699 -18 -15.334 -35.667 -26.001 -53s-21.667 -33 -33 -47c-6 -6.66699 -11.833 -12.834 -17.5 -18.501
s-11.167 -10.5 -16.5 -14.5l-113 -85c27.333 -16.667 52.166 -36.167 74.499 -58.5s33.5 -49.166 33.5 -80.499c0 -6.66699 -0.5 -13.167 -1.5 -19.5s-2.83301 -13.166 -5.5 -20.499c-15.333 -47.333 -47.666 -78 -96.999 -92s-102 -21.667 -158 -23h-12.5h-12.5h-271v45
h271h1.5h0.5c13.333 0 29.166 0.166992 47.499 0.5s37.166 1.83301 56.499 4.5c28.667 4.66699 55.667 12.667 81 24s42 29.666 50 54.999c1.33301 4.66699 2.33301 9 3 13s1 8 1 12c-0.666992 22.667 -10.334 42.667 -29.001 60s-39.334 32.666 -62.001 45.999l-27.5 15.5
l-25.5 14.5c13.333 10 28.166 20.5 44.499 31.5l48.5 33.5c38.667 27.333 74.334 57.666 107.001 90.999s49.667 71.333 51 114c0 8 -0.833008 15 -2.5 21s-4.16699 10.333 -7.5 13c-3.33301 3.33301 -7.16602 5.66602 -11.499 6.99902s-9.16602 2 -14.499 2
c-12.667 0 -27.167 -4 -43.5 -12s-32.833 -18.333 -49.5 -31c-9.33301 -6.66699 -18.5 -13.667 -27.5 -21l-26.5 -22c-15.333 -14 -29.333 -27.5 -42 -40.5l-30 -31.5c-0.666992 -3.33301 -1.5 -6.5 -2.5 -9.5s-1.83301 -6.16699 -2.5 -9.5
c-0.666992 -1.33301 -1.16699 -2.66602 -1.5 -3.99902s-0.833008 -2.66602 -1.5 -3.99902l-40.5 -140.5l-18.5 -63.5c-8 -27.333 -20.167 -51.333 -36.5 -72s-33.5 -35 -51.5 -43c-4 -1.33301 -8.16699 -2.5 -12.5 -3.5s-8.5 -1.5 -12.5 -1.5c-2 0 -4 0.166992 -6 0.5
s-4 0.833008 -6 1.5s-4.33301 1.5 -7 2.5s-5.33398 2.83301 -8.00098 5.5c-4.66699 3.33301 -9 8.66602 -13 15.999s-6 17 -6 29c0 4.66699 0.333008 9.5 1 14.5s1.66699 10.5 3 16.5c10.667 42 31.167 87 61.5 135s70.166 99 119.499 153l53 184l44 -12l-29 -102
c6 6 13.667 13 23 21s19.666 16.333 30.999 25c12.667 9.33301 26.334 18.5 41.001 27.5s29.334 16.5 44.001 22.5c9.33301 4 18.833 7.16699 28.5 9.5s19.167 3.5 28.5 3.5s18.5 -1.33301 27.5 -4s17.167 -7.33398 24.5 -14.001v0zM326.004 438.005l-22 -30.5l-29 -42.5
c-4.66699 -6.66699 -9.16699 -13.667 -13.5 -21l-12.5 -21c-9.33301 -17.333 -17.333 -34.333 -24 -51s-10 -31 -10 -43c0 -2.66699 0.166992 -5.16699 0.5 -7.5s0.833008 -4.5 1.5 -6.5h1.5h1.5c15.333 0 29.333 11.833 42 35.5s23.667 49.5 33 77.5
c8 24 14.667 46.667 20 68s9 35.333 11 42v0z" />
    <glyph glyph-name="C" unicode="C" horiz-adv-x="476" 
d="M548 663c0.666992 -2.66699 1.16016 -5.50195 1.49316 -8.50195s0.5 -5.83301 0.5 -8.5c0 -26.667 -12.333 -50.834 -37 -72.501s-51.667 -40.5 -81 -56.5c-16 -9.33301 -31.5 -17.666 -46.5 -24.999l-39.5 -19l-20 41l36 17c15.333 7.33301 31.333 15.666 48 24.999
s32.667 19.333 48 30s27 21.334 35 32.001c4 5.33301 7 10.333 9 15s3 9.33398 3 14.001v1.5v1.5c-0.666992 0.666992 -1 1.16699 -1 1.5v1.5c0 0.666992 -0.166992 1.16699 -0.5 1.5l-0.5 0.5c-2 2.66699 -6.66699 5.16699 -14 7.5s-17.666 3.5 -30.999 3.5
c-19.333 0 -40 -3.66699 -62 -11s-44.333 -17.666 -67 -30.999c-46.667 -27.333 -91.167 -64.166 -133.5 -110.499s-73.833 -94.5 -94.5 -144.5c-2.66699 -6 -5.16699 -12.333 -7.5 -19l-6.5 -19c-5.33301 -18 -9.33301 -35.167 -12 -51.5s-4 -31.833 -4 -46.5
c0 -18 2.16699 -34.333 6.5 -49s10.5 -27.667 18.5 -39c12.667 -16 29.334 -28 50.001 -36s45.334 -12 74.001 -12c12 0 24.333 1 37 3s25.667 5 39 9c18.667 5.33301 37 12.333 55 21s34.333 18.334 49 29.001l27 -36c-19.333 -14.667 -41.166 -27.5 -65.499 -38.5
s-49.166 -19.5 -74.499 -25.5c-11.333 -2.66699 -22.666 -4.66699 -33.999 -6s-22.333 -2 -33 -2c-36 0 -67.5 5.66699 -94.5 17s-48.833 28 -65.5 50c-11.333 15.333 -19.833 32.666 -25.5 51.999s-8.5 40.666 -8.5 63.999c0 16.667 1.5 34 4.5 52s7.16699 37 12.5 57
c0.666992 1.33301 1.16699 2.83301 1.5 4.5s0.833008 3.16699 1.5 4.5c20.667 66 57.834 129 111.501 189s110.834 105.333 171.501 136c22 10.667 44 19.167 66 25.5s43 9.5 63 9.5c27.333 0 47.5 -4 60.5 -12s21.5 -16.667 25.5 -26
c1.33301 -2 2.16602 -3.83301 2.49902 -5.5s0.833008 -3.5 1.5 -5.5v0z" />
    <glyph glyph-name="D" unicode="D" horiz-adv-x="695" 
d="M687 304c0 -7.33301 -0.170898 -14.6709 -0.503906 -22.0039s-1.16602 -14.666 -2.49902 -21.999c-6.66699 -46.667 -28.5 -89.334 -65.5 -128.001s-103.167 -58 -198.5 -58h-387v46h18h18c7.33301 -0.666992 14.833 -1 22.5 -1h23.5c42 0.666992 82.333 7 121 19
s68.334 40.667 89.001 86l155 333l-34 37.5c-12.667 14.333 -26.334 28.833 -41.001 43.5l-28.5 27.5l-28.5 25.5c-13.333 12 -26.833 22.667 -40.5 32s-26.5 16.333 -38.5 21c-10.667 4.66699 -21 7.83398 -31 9.50098s-19 2.5 -27 2.5
c-8.66699 0 -16.167 -1.16699 -22.5 -3.5s-10.5 -5.16602 -12.5 -8.49902c-0.666992 -0.666992 -1.16699 -1.83398 -1.5 -3.50098s-0.5 -3.5 -0.5 -5.5c0 -13.333 12.333 -36.166 37 -68.499s73.334 -74.5 146.001 -126.5l-26 -37l-38.5 28c-19 14 -39.5 30.667 -61.5 50
c-14.667 13.333 -29 27.5 -43 42.5s-26 30.167 -36 45.5c-7.33301 11.333 -13.166 22.5 -17.499 33.5s-6.5 21.833 -6.5 32.5c0 5.33301 0.666992 10.5 2 15.5s3.33301 9.83301 6 14.5c6.66699 12 16.834 21.167 30.501 27.5s29.167 9.5 46.5 9.5
c11.333 -0.666992 23.166 -2.16699 35.499 -4.5s24.833 -6.16602 37.5 -11.499c20.667 -8.66699 46.167 -25.667 76.5 -51s61.833 -54.333 94.5 -87l22 -22.5l22 -23.5l35 76l41 -19l-43 -93c31.333 -34.667 58.833 -67.5 82.5 -98.5s39.834 -55.167 48.501 -72.5
c7.33301 -14.667 12.833 -29.667 16.5 -45s5.5 -30.666 5.5 -45.999v0zM641.996 303.995c0 12 -1.49902 24.001 -4.49902 36.001s-7.5 23.667 -13.5 35c-6.66699 13.333 -20 33.166 -40 59.499s-43.667 54.833 -71 85.5l-20.5 -44l-21.5 -45l-72 -155.5l-33 -70.5
c-8 -18 -18 -34 -30 -48s-26 -26.333 -42 -37h63.5h62.5c63.333 0 116.166 13.167 158.499 39.5s63.5 74.5 63.5 144.5v0z" />
    <glyph glyph-name="E" unicode="E" horiz-adv-x="512" 
d="M577 676c1.33301 -2.66699 2.16602 -5.66699 2.49902 -9s0.5 -6.66602 0.5 -9.99902c0 -7.33301 -1.16699 -14.666 -3.5 -21.999s-5.16602 -15 -8.49902 -23c-4 -8 -8.66699 -15.833 -14 -23.5l-16 -23.5l-13.5 -19.5l-12.5 -17.5l-38 25l12.5 17
c5 6.66699 10.167 14 15.5 22l4.5 6.5c1.66699 2.33301 3.16699 4.83301 4.5 7.5c6.66699 10 12.334 19.667 17.001 29s7 17 7 23v0.5v1.5c-0.666992 0.666992 -1 1.16699 -1 1.5v0.5c-1.33301 5.33301 -3.66602 9.5 -6.99902 12.5s-7.66602 5.5 -12.999 7.5
c-3.33301 1.33301 -7.5 2.33301 -12.5 3s-10.167 1 -15.5 1c-12.667 0 -28 -2.5 -46 -7.5s-37.667 -13.833 -59 -26.5c-15.333 -8.66699 -29.666 -18.167 -42.999 -28.5s-25 -20.5 -35 -30.5c-12.667 -12 -22.834 -23.833 -30.501 -35.5s-12.5 -22.167 -14.5 -31.5v-1.5
v-0.5v-1.5v-1.5c0 -4.66699 1.16699 -9.66699 3.5 -15s5.5 -11 9.5 -17l6.5 -8.5l7.5 -9.5c4 -5.33301 8 -10.333 12 -15l10 -12c-13.333 -7.33301 -28.5 -16.333 -45.5 -27s-34.5 -22.667 -52.5 -36c-34 -24.667 -65.333 -52.834 -94 -84.501s-43 -64.167 -43 -97.5
c0 -5.33301 0.5 -11 1.5 -17s2.83301 -12 5.5 -18c5.33301 -12 13.5 -21 24.5 -27s22.833 -10.333 35.5 -13c7.33301 -1.33301 14.666 -2.33301 21.999 -3s14 -1 20 -1h303v-46h-303c-5.33301 0 -10.666 0.166992 -15.999 0.5s-10.666 0.833008 -15.999 1.5
c-22.667 2.66699 -44.5 9.33398 -65.5 20.001s-36.5 27.334 -46.5 50.001c-2.66699 8 -4.83398 16 -6.50098 24s-2.5 16.333 -2.5 25c0 21.333 5.16699 43.666 15.5 66.999s25.166 46.666 44.499 69.999c18 21.333 39.833 42.666 65.5 63.999s54.834 42 87.501 62
l-12.5 16.5l-5.5 7.5c-3.33301 5.33301 -6 11.166 -8 17.499s-3 12.833 -3 19.5v4c0 1.33301 0.333008 3 1 5c0 1.33301 0.166992 2.66602 0.5 3.99902s0.5 2.66602 0.5 3.99902c2 10.667 6.33301 21.834 13 33.501s15 23.5 25 35.5c13.333 15.333 29 30.333 47 45
s38 28.334 60 41.001c23.333 13.333 45.666 23.5 66.999 30.5s41.333 10.5 60 10.5c8 0 15.667 -0.666992 23 -2s14.333 -3.33301 21 -6c11.333 -4 21.166 -10.167 29.499 -18.5s14.166 -18.166 17.499 -29.499v0z" />
    <glyph glyph-name="F" unicode="F" horiz-adv-x="507" 
d="M518 715c10 -5.33301 17.334 -12.6592 22.001 -21.9922s7 -21.333 7 -36c0 -20.667 -4.16699 -47.334 -12.5 -80.001s-19.5 -73.334 -33.5 -122.001l-12 -42c-4 -14 -7.66699 -27.667 -11 -41l-12 -42l-12 -42h46v-45h-59l-121 -438l-44 12l118 426h-116v45h129
c2.66699 10 8.5 29.833 17.5 59.5l28.5 98.5l4 16l4 16c10.667 38 19.834 74.167 27.501 108.5s11.5 59.166 11.5 74.499c0 4 -0.333008 7.16699 -1 9.5s-1.66699 3.83301 -3 4.5c-2.66699 1.33301 -5.83398 2.33301 -9.50098 3s-8.16699 1 -13.5 1
c-20.667 0 -48.5 -6.66699 -83.5 -20s-71.5 -33.333 -109.5 -60c-11.333 -8 -22.833 -16.667 -34.5 -26s-22.834 -19.333 -33.501 -30c-46.667 -44.667 -81.834 -86.5 -105.501 -125.5s-35.5 -67.5 -35.5 -85.5v0v0v-1v0v-2c0 -0.666992 0.333008 -1.33398 1 -2.00098
c0 -0.666992 0.166992 -1.33398 0.5 -2.00098s0.833008 -1.33398 1.5 -2.00098c2.66699 -2.66699 5.33398 -4.5 8.00098 -5.5s5.33398 -1.5 8.00098 -1.5h1.5h1.5c14.667 1.33301 34.667 12.5 60 33.5s55.666 51.833 90.999 92.5c8.66699 10 16.834 20.333 24.501 31
l23.5 32c0.666992 0.666992 1.33398 1.5 2.00098 2.5s1.33398 2.16699 2.00098 3.5c5.33301 6.66699 10.5 13.5 15.5 20.5s10.167 13.833 15.5 20.5l36 -28c-6.66699 -8 -13 -16.167 -19 -24.5l-18 -25.5l-22.5 -30.5c-7.66699 -10.333 -15.834 -20.5 -24.501 -30.5
c-42 -48.667 -77.5 -84.334 -106.5 -107.001s-54.5 -34.667 -76.5 -36h-0.5h-1.5h-1.5h-0.5c-8.66699 0 -17 1.5 -25 4.5s-15.667 7.83301 -23 14.5l-1.5 1.5l-1.5 1.5c-3.33301 3.33301 -6.5 8 -9.5 14s-4.83301 14 -5.5 24v1.5v1.5c0 25.333 11 56.666 33 93.999
s52 76 90 116c4.66699 5.33301 9.66699 10.666 15 15.999l16 16c19.333 18.667 40.166 36.167 62.499 52.5s44.833 30.833 67.5 43.5c30 16.667 59.5 29.834 88.5 39.501s54.5 14.5 76.5 14.5c8.66699 0 16.667 -0.833008 24 -2.5s13.666 -4.16699 18.999 -7.5v0z" />
    <glyph glyph-name="G" unicode="G" horiz-adv-x="646" 
d="M662 750c3.33301 -6.66699 5.99512 -13.9961 7.99512 -21.9961s3 -16.333 3 -25c0 -15.333 -3.16699 -31.333 -9.5 -48s-16.5 -33.667 -30.5 -51c-12 -14 -26.667 -28.167 -44 -42.5s-38 -28.166 -62 -41.499l-22 40l24.5 15c9.66699 6 19.834 13.333 30.501 22
c17.333 14 33.166 30 47.499 48s21.5 36.667 21.5 56c0 5.33301 -0.5 10.166 -1.5 14.499s-2.83301 8.83301 -5.5 13.5c-4.66699 9.33301 -11.667 16.5 -21 21.5s-19.666 7.5 -30.999 7.5c-6.66699 0 -13.667 -1 -21 -3s-14.666 -4.66699 -21.999 -8
c-20.667 -10 -46 -24.833 -76 -44.5s-61 -46.5 -93 -80.5c-18.667 -20.667 -37.334 -44.167 -56.001 -70.5s-36.334 -55.833 -53.001 -88.5c-21.333 -42 -36.333 -78.667 -45 -110s-13 -57 -13 -77c0.666992 -10 1.83398 -18.5 3.50098 -25.5s3.83398 -12.833 6.50098 -17.5
c0.666992 -0.666992 1.33398 -1.5 2.00098 -2.5s1.33398 -1.83301 2.00098 -2.5c2.66699 -2.66699 6.16699 -5 10.5 -7s10.166 -3 17.499 -3c18 0 36.667 3.83301 56 11.5s39 18.834 59 33.501c30.667 22 60.834 51.333 90.501 88s56.167 78 79.5 124l42 -17l-25.5 -84.5
l-25.5 -84.5l-25.5 -84.5l-25.5 -84.5h185l-20 -45h-183c-26.667 -54 -67.5 -98.333 -122.5 -133s-112.833 -53.667 -173.5 -57h-7.5h-7.5c-16.667 0 -31.667 2 -45 6s-24.666 10.333 -33.999 19c-8.66699 7.33301 -15.334 16.5 -20.001 27.5s-7 22.833 -7 35.5
c0 3.33301 0.166992 6.66602 0.5 9.99902s0.833008 6.66602 1.5 9.99902c6 31.333 25 60.333 57 87s72 40 120 40h208c7.33301 22 14.166 44 20.499 66l19.5 66l10 33.5l10 32.5l-10 -12c-3.33301 -4 -6.66602 -7.66699 -9.99902 -11
c-27.333 -30.667 -60 -58.834 -98 -84.501s-77.667 -38.5 -119 -38.5c-16 0 -30 3.16699 -42 9.5s-21.667 15.833 -29 28.5c-5.33301 8.66699 -9.33301 18.667 -12 30s-4 23.666 -4 36.999c0 27.333 5.33301 58.5 16 93.5s26.334 72.833 47.001 113.5c18 35.333 37 67 57 95
s40.333 53 61 75c34 36.667 67 65.667 99 87s59 37 81 47c11.333 5.33301 22.333 9.16602 33 11.499s21 3.5 31 3.5c21.333 0 39.833 -5 55.5 -15s27.5 -22.667 35.5 -38v0zM387.995 75.0039h-185.999c-6.66699 0 -13.667 -0.5 -21 -1.5s-14.666 -2.83301 -21.999 -5.5
c-22.667 -6.66699 -43.5 -18.167 -62.5 -34.5s-28.5 -36.5 -28.5 -60.5c0 -6 1 -11.5 3 -16.5s5 -9.16699 9 -12.5c5.33301 -4.66699 12.166 -8.16699 20.499 -10.5s17.833 -3.5 28.5 -3.5h2.5h3.5c50.667 1.33301 99.167 15.333 145.5 42s82.166 61 107.499 103v0z" />
    <glyph glyph-name="H" unicode="H" horiz-adv-x="704" 
d="M725 262l-121.998 0.00195312l-65 -225l-43 13l60 212h-102c-24.667 -52 -62.834 -95 -114.501 -129s-105.834 -54 -162.501 -60c-6 -0.666992 -11.833 -1.16699 -17.5 -1.5s-11.5 -0.5 -17.5 -0.5c-16.667 0 -31.667 2.16699 -45 6.5s-24.666 10.5 -33.999 18.5
c-8.66699 8 -15.334 17.5 -20.001 28.5s-7 22.833 -7 35.5c0 3.33301 0.166992 6.66602 0.5 9.99902s0.833008 6.66602 1.5 9.99902c6 32 25 61.333 57 88s72 40 120 40h208l31.5 103.5l30.5 104.5c2 8.66699 4.33301 17.5 7 26.5s5 17.833 7 26.5l15.5 52l14.5 52l43 -12
l-102 -353h99l106 367l43 -13l-101 -354h109v-46v0zM401.002 262.002l-187 0.000976562c-6.66699 0 -13.667 -0.5 -21 -1.5s-14.666 -2.83301 -21.999 -5.5c-22.667 -6.66699 -43.5 -18.167 -62.5 -34.5s-28.5 -36.5 -28.5 -60.5c0 -6.66699 1 -12.334 3 -17.001s5 -9 9 -13
c5.33301 -4.66699 12.166 -8 20.499 -10s17.833 -3 28.5 -3h5.5h5.5c50 2 98 16.667 144 44s81 61 105 101v0z" />
    <glyph glyph-name="I" unicode="I" horiz-adv-x="494" 
d="M526 602l-19.998 -68.0039l-44 -151l-10 -34.5l-10 -34.5c9.33301 -4.66699 19.166 -9 29.499 -13s21.5 -7.66699 33.5 -11l-13 -44c-10.667 3.33301 -21.167 6.83301 -31.5 10.5s-20.5 7.83398 -30.5 12.501l-23.5 -80l-9.5 -32c-6 -22 -18.5 -40.833 -37.5 -56.5
s-39.5 -24.5 -61.5 -26.5h-3.5h-3.5h-266v46h266h3.5h3.5c12 2 23.5 7.66699 34.5 17s18.167 20 21.5 32l10 36l25 88c-24 17.333 -41.667 38.166 -53 62.499s-17 52.833 -17 85.5c0 9.33301 0.5 18.833 1.5 28.5s2.16699 19.834 3.5 30.501
c1.33301 9.33301 5.5 24.5 12.5 45.5s15.833 43.167 26.5 66.5c14.667 29.333 32.334 56.5 53.001 81.5s44 37.5 70 37.5c7.33301 0 14 -1.66699 20 -5s11.333 -7.66602 16 -12.999c4 -5.33301 7 -11.833 9 -19.5s3.33301 -15.167 4 -22.5v-4v-4v-2v-2
c0 -8 -0.666992 -15.667 -2 -23s-2.33301 -13.666 -3 -18.999c-0.666992 -3.33301 -1.33398 -6.16602 -2.00098 -8.49902s-1.33398 -4.5 -2.00098 -6.5v0zM486.002 684.996c-4.66699 0 -9.66895 -1.50195 -15.002 -4.50195s-10.666 -7.16699 -15.999 -12.5
c-10 -10 -19.833 -23 -29.5 -39s-18.5 -32.667 -26.5 -50c-8 -16 -14.5 -31.833 -19.5 -47.5s-8.5 -28.5 -10.5 -38.5c-1.33301 -9.33301 -2.5 -18.333 -3.5 -27s-1.5 -17 -1.5 -25c0 -21.333 3.33301 -40.166 10 -56.499s16.334 -30.833 29.001 -43.5
c2 8 4.33301 16.167 7 24.5s5 16.833 7 25.5c0.666992 0.666992 1 1.33398 1 2.00098v2l44 151.5l20 68.5c3.33301 10 5.5 19.167 6.5 27.5s1.5 15.5 1.5 21.5c0 5.33301 -0.333008 10 -1 14s-1.66699 6.33301 -3 7v0z" />
    <glyph glyph-name="J" unicode="J" horiz-adv-x="521" 
d="M553 603l-16.0039 -55l-35 -121l-23 -80l-18 -65c6 0 11.333 0.166992 16 0.5s8.66699 0.5 12 0.5c4 0 7.33301 0.166992 10 0.5s5 0.5 7 0.5c4.66699 0 7.66699 -0.666992 9 -2s1.66602 -4 0.999023 -8c0 -2 -0.166992 -4.16699 -0.5 -6.5s-0.5 -5.16602 -0.5 -8.49902
c0 -2.66699 -0.166992 -6 -0.5 -10s-0.5 -8.33301 -0.5 -13c-6 0.666992 -12 1 -18 1h-18h-8h-7c-2.66699 -0.666992 -5.33398 -1 -8.00098 -1h-8c-6 -18 -14.333 -37.833 -25 -59.5s-23 -43.5 -37 -65.5c-11.333 -18.667 -23.166 -36.834 -35.499 -54.501
s-25.166 -34.5 -38.499 -50.5c-8 -10 -16.333 -19.667 -25 -29l-25 -26c-32 -30 -62 -52.667 -90 -68s-52.667 -23 -74 -23c-5.33301 0 -10.5 0.5 -15.5 1.5s-9.83301 2.5 -14.5 4.5l-7 4.5c-2.66699 1.66699 -5 3.5 -7 5.5c-6.66699 6 -12.667 14.667 -18 26
s-8 26.666 -8 45.999v4.5v4.5c1.33301 18 5.16602 37 11.499 57s15.833 40.667 28.5 62c15.333 27.333 35.833 54.166 61.5 80.499s56.5 49.5 92.5 69.5c30 17.333 60.833 30 92.5 38s64.834 13.333 99.501 16c4.66699 15.333 11 37.333 19 66l26 90l35 123l16 56
c4.66699 16 7.66699 28.667 9 38s2 16.333 2 21c0 2 -0.166992 3.66699 -0.5 5s-0.5 2.33301 -0.5 3s-0.166992 1.33398 -0.5 2.00098l-0.5 1h-1.5h-3.5c-6 0 -12 -1.16699 -18 -3.5s-12 -5.5 -18 -9.5c-13.333 -10 -26.666 -23.333 -39.999 -40s-24.666 -34 -33.999 -52
c-7.33301 -13.333 -13.166 -26.5 -17.499 -39.5s-6.83301 -24.5 -7.5 -34.5c-0.666992 -30 1.83301 -57 7.5 -81s14.834 -45.333 27.501 -64l-37 -26c-16 23.333 -27.167 48.666 -33.5 75.999s-9.5 55 -9.5 83v3.5v3.5v3.5v3.5c0.666992 12.667 3.5 27 8.5 43
s11.833 32.333 20.5 49c16.667 32.667 38.5 62.5 65.5 89.5s55.5 40.833 85.5 41.5c20 0.666992 33.5 -5.16602 40.5 -17.499s10.5 -26.5 10.5 -42.5v-7.5c0 -2.33301 -0.333008 -4.83301 -1 -7.5c-0.666992 -8 -1.66699 -15.833 -3 -23.5s-3 -14.834 -5 -21.501
c0 -1.33301 -0.166992 -2.66602 -0.5 -3.99902s-0.833008 -2.66602 -1.5 -3.99902v0zM397.996 233c-31.333 -3.33301 -59.3281 -8.66406 -83.9951 -15.9971s-48.334 -17.666 -71.001 -30.999c-29.333 -16.667 -55 -35.834 -77 -57.501s-40 -43.5 -54 -65.5
c-12 -20 -21.333 -39.167 -28 -57.5s-10.667 -35.5 -12 -51.5v-8.5c0 -3 0.333008 -6.16699 1 -9.5c0 -6 1 -11.667 3 -17s5.33301 -9 10 -11c1.33301 -1.33301 3.16602 -2 5.49902 -2h7.5c13.333 0 31.166 6.16699 53.499 18.5s48.166 32.166 77.499 59.499
c8 7.33301 16.167 15.666 24.5 24.999l25.5 30c11.333 14 22.333 28.833 33 44.5l31 47.5c11.333 18 21.666 35.667 30.999 53s17 33.666 23 48.999v0z" />
    <glyph glyph-name="K" unicode="K" horiz-adv-x="801" 
d="M877 695l-347 -374.998l248 -281l-34 -30l-272 308c-18.667 -64.667 -56.667 -121.334 -114 -170.001s-121 -73 -191 -73c-24.667 0 -47.5 3.66699 -68.5 11s-39.833 17.666 -56.5 30.999l29 35c13.333 -10.667 28.333 -18.5 45 -23.5s33.667 -7.5 51 -7.5
c4 0 8.16699 0.166992 12.5 0.5s8.5 0.833008 12.5 1.5c51.333 6 99.5 27.833 144.5 65.5s74.833 82.167 89.5 133.5l112 392l44 -13l-107 -372l368 398l34 -31v0z" />
    <glyph glyph-name="L" unicode="L" horiz-adv-x="522" 
d="M551 541c-5.33301 -14 -11.002 -27.502 -17.002 -40.502s-12.333 -25.833 -19 -38.5c-9.33301 -17.333 -19.666 -34.833 -30.999 -52.5s-24.333 -36.5 -39 -56.5l-37 26c23.333 32 41.666 59.5 54.999 82.5s24.333 45.5 33 67.5
c2.66699 4.66699 4.83398 9.5 6.50098 14.5s3.5 9.83301 5.5 14.5c4 10 7 19.5 9 28.5s3 17.167 3 24.5c0 11.333 -2 20.666 -6 27.999s-10 12.333 -18 15c-2.66699 1.33301 -5.33398 2.16602 -8.00098 2.49902s-5.66699 0.5 -9 0.5s-6.83301 -0.333008 -10.5 -1
s-7.16699 -1.66699 -10.5 -3c-10 -3.33301 -19.833 -9.33301 -29.5 -18s-17.167 -20 -22.5 -34l-11.5 -28l-10.5 -28l-14 -41.5l-14 -42.5c-10 -32.667 -20.833 -66.167 -32.5 -100.5s-27.167 -70.5 -46.5 -108.5l-4 -8c-1.33301 -2.66699 -3 -5.33398 -5 -8.00098
c-12 -21.333 -26.667 -42.166 -44 -62.499s-37 -38.166 -59 -53.499h301v-46h-439v46c46.667 0 88.334 15.667 125.001 47s64.667 66.333 84 105c18 36.667 32.833 71.667 44.5 105s22.5 66 32.5 98l23 71c8 24 17.333 48.333 28 73c10 22 23.167 39.667 39.5 53
s33.5 22.333 51.5 27l12.5 2c4.33301 0.666992 8.5 1 12.5 1c6 0 11.833 -0.5 17.5 -1.5s10.834 -2.5 15.501 -4.5c14 -5.33301 26.167 -15.166 36.5 -29.499s15.5 -33.166 15.5 -56.499c0 -10 -1 -20.667 -3 -32s-5.66699 -23.666 -11 -36.999v0z" />
    <glyph glyph-name="M" unicode="M" horiz-adv-x="626" 
d="M686 664c3.33301 -4.66699 5.83008 -10.498 7.49707 -17.498s2.5 -15.167 2.5 -24.5c0 -22.667 -4.66699 -52.667 -14 -90s-21.666 -81.666 -36.999 -132.999l-120 -413l-44 13l30 103.5l30 103.5l30.5 102.5l30.5 103.5l10 33l13 43c2 5.33301 3.83301 10.833 5.5 16.5
s3.16699 11.5 4.5 17.5c4.66699 18 8.66699 35.5 12 52.5s5 31.5 5 43.5v8.5c0 2.33301 -0.333008 4.5 -1 6.5c-5.33301 -0.666992 -10.833 -2.66699 -16.5 -6s-11.167 -7.66602 -16.5 -12.999c-13.333 -14 -27.333 -34.333 -42 -61s-30.667 -57.667 -48 -93l-24.5 -49.5
l-28.5 -54.5l-128 -244c-6 -10.667 -12 -18.5 -18 -23.5s-12.333 -7.5 -19 -7.5h-2.5c-1 0 -1.83301 0.333008 -2.5 1c-0.666992 0 -1.5 0.166992 -2.5 0.5s-1.83301 0.5 -2.5 0.5c-6 2.66699 -10.333 6.83398 -13 12.501s-4 12.834 -4 21.501c0 8 1 17 3 27
s4.66699 21.333 8 34l52 185l10.5 35c3.66699 12 7.16699 24.333 10.5 37c0.666992 0.666992 1.16699 1.5 1.5 2.5s0.5 1.83301 0.5 2.5c0.666992 3.33301 1.66699 6.66602 3 9.99902s2.33301 6.66602 3 9.99902c2 6.66699 4.16699 13.5 6.5 20.5l7.5 21.5
c0.666992 4 1.66699 8 3 12l4 12c6.66699 21.333 12.5 42 17.5 62s7.83301 35.333 8.5 46c-10 -4.66699 -29.5 -24.667 -58.5 -60s-70.5 -107.666 -124.5 -216.999l-57 -112.5l-93 -176.5c-2.66699 1.33301 -5.5 2.83301 -8.5 4.5s-5.83301 3.16699 -8.5 4.5
c-4.66699 2.66699 -9.16699 5 -13.5 7s-8.83301 3.66699 -13.5 5l141 478c4.66699 15.333 7.83398 28.5 9.50098 39.5s2.5 19.833 2.5 26.5c0 6 -0.333008 10.667 -1 14s-1.66699 6 -3 8c0 0.666992 -0.166992 1.33398 -0.5 2.00098s-0.833008 1 -1.5 1h-1.5h-1.5
c-4 0 -10.5 -3 -19.5 -9s-18.5 -15.667 -28.5 -29c-2 -2.66699 -3.83301 -5.33398 -5.5 -8.00098l-5.5 -9c-6.66699 -11.333 -12.5 -22 -17.5 -32s-9.5 -20 -13.5 -30s-7.83301 -20.333 -11.5 -31s-7.16699 -22.334 -10.5 -35.001l-44 11c5.33301 20.667 11.5 40 18.5 58
s15.167 36 24.5 54l7.5 13.5l7.5 13.5c8.66699 14.667 18.167 27.667 28.5 39s20.833 20.333 31.5 27c6.66699 4 13.334 7 20.001 9s13 3 19 3c3.33301 0 6.83301 -0.333008 10.5 -1s6.83398 -1.66699 9.50098 -3c8.66699 -3.33301 16.334 -9.83301 23.001 -19.5
s10 -25.167 10 -46.5c0 -10 -1 -21.5 -3 -34.5s-5.66699 -27.833 -11 -44.5l-82 -278l13.5 25.5c4.33301 8.33301 8.5 16.833 12.5 25.5c4.66699 8 9.16699 16.167 13.5 24.5s8.5 16.833 12.5 25.5c64 130.667 113.667 214.167 149 250.5s62.666 54.5 81.999 54.5h5.5
c1.66699 0 3.16699 -0.333008 4.5 -1c4.66699 -0.666992 8.66699 -2.33398 12 -5.00098s6.33301 -6 9 -10c2 -3.33301 3.5 -7.33301 4.5 -12s1.5 -9.66699 1.5 -15c0 -16.667 -4.16699 -40.334 -12.5 -71.001s-20.166 -71.334 -35.499 -122.001l-15.5 -49l-14.5 -46l-8 -29
l-18 -65c-1.33301 -5.33301 -2.83301 -11 -4.5 -17s-3.16699 -11.667 -4.5 -17l8 14.5c2.66699 5 5 9.83301 7 14.5l45.5 86l20.5 39l28 54l25 49l32.5 65.5c10.333 20.333 20.5 38.5 30.5 54.5c16 24.667 32.167 44 48.5 58s35.166 21 56.499 21c6 0 11.667 -1.33301 17 -4
s9.66602 -6.33398 12.999 -11.001v0z" />
    <glyph glyph-name="N" unicode="N" horiz-adv-x="458" 
d="M519 660c3.33301 -6 5.83301 -13.0039 7.5 -21.0039s2.5 -17 2.5 -27c0 -14.667 -1.66699 -31.334 -5 -50.001s-8.33301 -40 -15 -64l-147 -512l-43 13l146 511c7.33301 26 12.333 47.333 15 64s4 29.334 4 38.001c0 5.33301 -0.333008 9.83301 -1 13.5
s-1.33398 6.5 -2.00098 8.5l-1.5 1.5c-0.333008 0.333008 -0.5 0.833008 -0.5 1.5c-0.666992 1.33301 -1.16699 2.16602 -1.5 2.49902s-0.833008 0.5 -1.5 0.5h-1.5h-2.5c-14.667 0 -39.167 -17.167 -73.5 -51.5s-70.833 -85.5 -109.5 -153.5l-205 -363l-41 17l155 547l8 28
h-1.5h-1.5c-4 0 -7.5 -0.5 -10.5 -1.5s-5.83301 -2.83301 -8.5 -5.5c-3.33301 -3.33301 -6.5 -7.5 -9.5 -12.5s-6.5 -11.5 -10.5 -19.5l-12 -23.5l-12 -22.5c-4.66699 -7.33301 -9 -14.833 -13 -22.5l-12 -22.5l-16.5 -29.5l-17.5 -30.5l-8 -14.5l-8 -15.5l-40 21l24.5 46
l25.5 45l11.5 21.5c3.66699 7 7.5 13.833 11.5 20.5l11.5 21.5c3.66699 7 7.5 13.833 11.5 20.5c0 0.666992 0.166992 1.33398 0.5 2.00098s0.833008 1 1.5 1c8.66699 17.333 18.5 32.833 29.5 46.5s27.833 20.5 50.5 20.5c9.33301 0 17.333 -1.5 24 -4.5
s12 -7.16699 16 -12.5c3.33301 -4 5.5 -8.16699 6.5 -12.5s1.5 -8.83301 1.5 -13.5c0 -6 -0.666992 -12.167 -2 -18.5s-3 -12.166 -5 -17.499c0 -1.33301 -0.166992 -2.5 -0.5 -3.5s-0.833008 -2.16699 -1.5 -3.5l-103 -363l110 196l8.5 14.5l8.5 14.5
c16.667 26.667 34.334 52.834 53.001 78.501s37.667 47.834 57 66.501c17.333 16.667 34.333 30 51 40s32.334 15 47.001 15c2.66699 0 5.16699 -0.166992 7.5 -0.5s4.5 -0.833008 6.5 -1.5c6.66699 -1.33301 12.667 -4.16602 18 -8.49902s9.66602 -9.5 12.999 -15.5v0z" />
    <glyph glyph-name="O" unicode="O" horiz-adv-x="423" 
d="M533 644l-139.996 0.00292969c-51.333 0 -98.833 -21.167 -142.5 -63.5s-79.834 -89.166 -108.501 -140.499c-12 -22 -22.667 -44 -32 -66s-16.666 -42 -21.999 -60c-6 -20 -10.333 -39 -13 -57s-4 -34.667 -4 -50c0 -16 1.66699 -30.333 5 -43s8.33301 -23.667 15 -33
c7.33301 -10 16.833 -17.333 28.5 -22s25.5 -7 41.5 -7c15.333 0 36 6 62 18s53 31 81 57c21.333 19.333 42.166 43.166 62.499 71.499s38.5 61.166 54.5 98.499c19.333 45.333 32.166 82.5 38.499 111.5s9.5 51.833 9.5 68.5c0 9.33301 -0.666992 17 -2 23s-3 10.667 -5 14
c0 0.666992 -0.166992 1.33398 -0.5 2.00098s-0.833008 1.33398 -1.5 2.00098c0 0.666992 -0.166992 1.16699 -0.5 1.5l-0.5 0.5c-2.66699 3.33301 -6.5 6.33301 -11.5 9s-12.833 4 -23.5 4c-6.66699 0 -13.834 -1.16699 -21.501 -3.5s-15.5 -5.5 -23.5 -9.5
c-18 -10.667 -35.333 -26.667 -52 -48s-29.334 -47.333 -38.001 -78c-2 -6.66699 -3.33301 -13 -4 -19s-1 -11.333 -1 -16c0 -6 0.5 -10.5 1.5 -13.5s1.83301 -5.16699 2.5 -6.5l-1 -44c-6.66699 0 -13.167 1.5 -19.5 4.5s-11.5 7.16699 -15.5 12.5
c-4.66699 6 -8 13.167 -10 21.5s-3 17.166 -3 26.499c0 7.33301 0.5 14.833 1.5 22.5s2.83301 15.5 5.5 23.5c13.333 47.333 36 87.166 68 119.499s65.667 50.166 101 53.499h4.5h4.5c18 0 32.5 -3 43.5 -9s19.5 -12.333 25.5 -19c0.666992 -1.33301 1.5 -2.5 2.5 -3.5
s1.83301 -2.16699 2.5 -3.5c5.33301 -8.66699 9.5 -18.5 12.5 -29.5s4.5 -23.5 4.5 -37.5c0 -24 -4.33301 -52.5 -13 -85.5s-21.667 -70.167 -39 -111.5c-19.333 -46.667 -42.333 -87.167 -69 -121.5s-53.667 -62.833 -81 -85.5c-28 -22.667 -55.5 -39.5 -82.5 -50.5
s-50.167 -16.5 -69.5 -16.5c-25.333 0 -46 4 -62 12s-28.333 17 -37 27c-1.33301 1.33301 -2.5 2.83301 -3.5 4.5s-2.16699 3.16699 -3.5 4.5c-10 13.333 -17.5 28.666 -22.5 45.999s-7.5 37 -7.5 59c0 17.333 1.66699 35.833 5 55.5s8 40.5 14 62.5
c0.666992 2.66699 1.5 5.5 2.5 8.5s1.83301 5.83301 2.5 8.5c28 86 73.833 165 137.5 237s132.5 108 206.5 108h140v-45v0z" />
    <glyph glyph-name="P" unicode="P" horiz-adv-x="435" 
d="M542 632c2 -7.33301 3.50195 -15.167 4.50195 -23.5s1.5 -16.833 1.5 -25.5c0 -16.667 -1.83301 -34 -5.5 -52s-9.16699 -36.333 -16.5 -55c-5.33301 -14 -11.833 -28.167 -19.5 -42.5s-16.167 -28.166 -25.5 -41.499c-24 -35.333 -51 -66.5 -81 -93.5
s-60.667 -48.5 -92 -64.5c-19.333 -9.33301 -38.333 -16.666 -57 -21.999s-36.667 -8 -54 -8h-4c-1.33301 0 -2.33301 0.333008 -3 1h-4h-4l4 46h3.5h3.5c1.33301 -0.666992 2.5 -1 3.5 -1h3.5c4.66699 0 9.5 0.333008 14.5 1l14.5 2c32 6.66699 63.167 21 93.5 43
s57.166 45.667 80.499 71c8 8.66699 15.5 17.334 22.5 26.001s13.167 17 18.5 25c7.33301 10.667 14 21.667 20 33s11.333 22.666 16 33.999c7.33301 17.333 12.833 34.5 16.5 51.5s5.5 32.833 5.5 47.5c0 6.66699 -0.333008 13 -1 19s-1.66699 11.667 -3 17
c-0.666992 2.66699 -1.5 5.16699 -2.5 7.5s-1.83301 4.83301 -2.5 7.5c-2.66699 6 -6.33398 11.5 -11.001 16.5s-10.334 9.16699 -17.001 12.5c-2.66699 1.33301 -6.5 2.66602 -11.5 3.99902s-10.5 2 -16.5 2c-4.66699 0 -10.167 -0.5 -16.5 -1.5
s-13.166 -3.16699 -20.499 -6.5c-24.667 -10.667 -59.834 -42 -105.501 -94s-95.5 -151.333 -149.5 -298l-75 -261l-44 12l73 255l46 159c8 29.333 14.167 62.666 18.5 99.999s6.5 76.333 6.5 117v5.5v5.5v5.5v5.5l45 1v-8c0 -2.66699 0.333008 -5.66699 1 -9v-8v-9
c0 -10 -0.166992 -20.167 -0.5 -30.5s-1.16602 -20.833 -2.49902 -31.5c-0.666992 -10.667 -1.5 -21.167 -2.5 -31.5s-2.16699 -20.5 -3.5 -30.5c34.667 59.333 67 103 97 131s56.333 46.667 79 56c10 4.66699 19.667 7.83398 29 9.50098s18 2.5 26 2.5
c9.33301 0 18 -1 26 -3s14.667 -4.33301 20 -7c14 -6.66699 26 -16.334 36 -29.001s17.333 -27.667 22 -45v0z" />
    <glyph glyph-name="Q" unicode="Q" horiz-adv-x="562" 
d="M610 607c1.33301 -4.66699 2.33301 -9.83496 3 -15.502s1 -11.5 1 -17.5c-0.666992 -29.333 -8.83398 -62.5 -24.501 -99.5s-38.5 -75.833 -68.5 -116.5c-39.333 -54.667 -81.666 -100 -126.999 -136s-94 -69.333 -146 -100c21.333 -4.66699 43 -8 65 -10s45 -3 69 -3
c19.333 0 39.333 0.833008 60 2.5s41.334 3.83398 62.001 6.50098l6 -45l-32.5 -4c-11 -1.33301 -21.833 -2.33301 -32.5 -3s-21.5 -1.16699 -32.5 -1.5s-21.833 -0.5 -32.5 -0.5c-30 0 -59.667 1.66699 -89 5s-58.333 9 -87 17l-41 -11
c-8 -4.66699 -17.667 -8.16699 -29 -10.5s-23 -3.5 -35 -3.5c-3.33301 0 -7 0.166992 -11 0.5s-8 0.5 -12 0.5c-7.33301 1.33301 -14.666 3.5 -21.999 6.5s-13.333 7.5 -18 13.5c-1.33301 2 -2.5 4.16699 -3.5 6.5s-1.83301 4.83301 -2.5 7.5v3.5v3.5v4.5
c0 1.66699 0.333008 3.16699 1 4.5c3.33301 12 12.333 21.667 27 29s32.667 11 54 11c4 0 8.5 -0.166992 13.5 -0.5s10.167 -1.16602 15.5 -2.49902c1.33301 0 2.66602 -0.166992 3.99902 -0.5s2.66602 -0.833008 3.99902 -1.5h-1l8 -2
c5.33301 -1.33301 11.666 -3 18.999 -5c1.33301 0 2.83301 -0.166992 4.5 -0.5s3.16699 -0.833008 4.5 -1.5c58.667 32.667 112.834 67.5 162.501 104.5s95.834 84.5 138.501 142.5c27.333 36.667 48 71.667 62 105s21 62 21 86c0 4 -0.166992 7.83301 -0.5 11.5
s-0.833008 6.83398 -1.5 9.50098c-2.66699 9.33301 -6.5 17.166 -11.5 23.499s-12.167 11.833 -21.5 16.5c-8.66699 4 -17.167 7 -25.5 9s-16.833 3 -25.5 3c-30.667 0 -60.5 -10 -89.5 -30s-54.833 -42 -77.5 -66l-20 -23.5l-18 -21.5c-12.667 -16.667 -24 -32.667 -34 -48
s-18.667 -30.333 -26 -45l-41 19c8.66699 18.667 18.667 36.5 30 53.5s23.333 33.5 36 49.5l33.5 39.5c11 12.333 22.167 23.5 33.5 33.5c29.333 28 58.833 49.167 88.5 63.5s58.167 21.5 85.5 21.5c12 0 24 -1.5 36 -4.5s23.333 -7.16699 34 -12.5
c15.333 -7.33301 27.666 -17 36.999 -29s16 -26 20 -42v0zM111 106.999h-2.5h-2.5c-1.33301 -0.666992 -2.33301 -1 -3 -1h-2h2.5h2.5c0.666992 0 1.5 0.166992 2.5 0.5s1.83301 0.5 2.5 0.5v0z" />
    <glyph glyph-name="R" unicode="R" horiz-adv-x="497" 
d="M586 629c0.666992 -2.66699 1.00195 -5.49707 1.00195 -8.49707v-9.5c0 -12 -1.33301 -24.333 -4 -37s-6.66699 -25.334 -12 -38.001c-6.66699 -17.333 -15.5 -34.333 -26.5 -51s-23.5 -32.667 -37.5 -48c-9.33301 -10 -18.5 -19.167 -27.5 -27.5l-26.5 -23.5
c-28 -22.667 -56.667 -41.167 -86 -55.5s-62 -27.833 -98 -40.5c-5.33301 -2 -11 -4 -17 -6l-18 -6l172 -179l-33 -31l-103.5 108l-104.5 108l-11.5 -24l-10.5 -24l-10.5 -24.5l-10.5 -24.5l-24.5 -54l-27.5 -60l-42 16l175 610l44 -12l-95 -329
c21.333 40 44.666 79 69.999 117s51.333 75 78 111c15.333 21.333 32 40.166 50 56.499s36 30.166 54 41.499c16 9.33301 32 16.666 48 21.999s31.333 8 46 8c9.33301 0 18.333 -1.16699 27 -3.5s16.667 -6.16602 24 -11.499c10.667 -7.33301 19.167 -17 25.5 -29
s10.166 -25.667 11.499 -41v0zM541.002 624.003c0 2 -0.167969 4.16699 -0.500977 6.5s-1.16602 4.83301 -2.49902 7.5c-0.666992 4.66699 -2.33398 9 -5.00098 13s-6 7.33301 -10 10c-3.33301 2.66699 -7.33301 4.5 -12 5.5s-9.66699 1.5 -15 1.5
c-13.333 0 -28.666 -3.83301 -45.999 -11.5s-35 -18.834 -53 -33.501c-10.667 -8 -21.167 -17.5 -31.5 -28.5s-20.166 -22.833 -29.499 -35.5c-39.333 -53.333 -71.5 -100.166 -96.5 -140.499s-46.167 -77.833 -63.5 -112.5c7.33301 2.66699 14.833 5.16699 22.5 7.5
s15.167 4.83301 22.5 7.5c47.333 16.667 91.666 35.167 132.999 55.5s81.333 50.833 120 91.5c3.33301 3.33301 6.5 6.83301 9.5 10.5l8.5 10.5c18 23.333 30.833 46 38.5 68s11.5 40.667 11.5 56v3v3c-0.666992 0.666992 -1 1.5 -1 2.5v2.5v0z" />
    <glyph glyph-name="S" unicode="S" horiz-adv-x="594" 
d="M655 648c0 -27.333 -10.8359 -50.667 -32.5029 -70s-45.167 -36 -70.5 -50l-11.5 -6l-11.5 -6l-20 41l20 10c8 4 16.333 8.66699 25 14c14 9.33301 26.833 19.666 38.5 30.999s17.5 23.666 17.5 36.999c0 4.66699 -1 8.83398 -3 12.501s-5 6.83398 -9 9.50098
c-6.66699 5.33301 -16 9.5 -28 12.5s-26.667 4.5 -44 4.5c-11.333 0 -23.5 -0.833008 -36.5 -2.5s-27.167 -4.16699 -42.5 -7.5c-33.333 -8.66699 -62.166 -20.334 -86.499 -35.001s-43.5 -29.667 -57.5 -45c-7.33301 -8.66699 -13 -17 -17 -25s-6.33301 -15.667 -7 -23
v-0.5v-1.5v-1.5v-0.5c0 -4 0.333008 -7.83301 1 -11.5s2 -7.5 4 -11.5c6 -16.667 17 -32.834 33 -48.501s32.667 -30.167 50 -43.5c16.667 -12.667 32.334 -23.667 47.001 -33s25.667 -17 33 -23c24.667 -18.667 43.334 -39.667 56.001 -63s18.667 -47 18 -71
c0 -10.667 -1.33301 -21.334 -4 -32.001s-7 -21.334 -13 -32.001c-18.667 -32.667 -48 -58 -88 -76s-87.667 -27 -143 -27h-242v45h242c10 0 20.667 0.5 32 1.5s22.333 2.5 33 4.5c26 4 50.5 11.833 73.5 23.5s40.833 28.834 53.5 51.501c4 7.33301 6.83301 14.5 8.5 21.5
s2.5 14.167 2.5 21.5c0 2.66699 -0.166992 5.33398 -0.5 8.00098s-0.833008 5.66699 -1.5 9c-2.66699 13.333 -8.5 26.833 -17.5 40.5s-21.5 26.5 -37.5 38.5c-10 8 -22 16.667 -36 26l-43 30c-26.667 20 -51 42.5 -73 67.5s-33 52.5 -33 82.5v2v2v2v2
c2 35.333 22 68.666 60 99.999s85.333 54.333 142 69c16 4 31.667 7 47 9s30 3 44 3c21.333 0 40.5 -2.16699 57.5 -6.5s31.167 -11.166 42.5 -20.499c9.33301 -7.33301 16.333 -16.166 21 -26.499s7 -21.166 7 -32.499v0z" />
    <glyph glyph-name="T" unicode="T" horiz-adv-x="436" 
d="M518 719l-380.003 -887l-42 18l344 803l-300 -72c-2.66699 -0.666992 -5.16699 -1.33398 -7.5 -2.00098s-4.83301 -1.33398 -7.5 -2.00098c-22 -6 -36.5 -12 -43.5 -18s-10.833 -10 -11.5 -12c-0.666992 -2.66699 5 -10 17 -22s39.667 -27.667 83 -47l-18 -41
c-6.66699 2.66699 -15.167 6.33398 -25.5 11.001s-21.166 10.334 -32.499 17.001c-17.333 10 -33.166 21.833 -47.499 35.5s-21.5 28.834 -21.5 45.501c0 2 0.166992 4 0.5 6s0.833008 4.33301 1.5 7c4 14.667 12.833 26.5 26.5 35.5s28.167 16.167 43.5 21.5
c5.33301 2 10.833 3.66699 16.5 5s10.834 2.66602 15.501 3.99902l195 46.5l194 47.5v0z" />
    <glyph glyph-name="U" unicode="U" horiz-adv-x="487" 
d="M528 645l-100.995 -351.999c-4 -15.333 -8 -32 -12 -50s-7.66699 -36.333 -11 -55c-4 -21.333 -7.33301 -42 -10 -62s-4.33398 -38 -5.00098 -54l-45 2c0.666992 13.333 1.66699 26.666 3 39.999s3 27 5 41c3.33301 23.333 7.33301 46.833 12 70.5s10 46.5 16 68.5
l-16.5 -30l-17.5 -31c-27.333 -45.333 -58.333 -87 -93 -125s-73.667 -57 -117 -57c-14.667 0 -26.667 2.5 -36 7.5s-16.666 10.167 -21.999 15.5c-0.666992 1.33301 -1.33398 2.33301 -2.00098 3l-2 2c-6.66699 9.33301 -11.667 20.5 -15 33.5s-5 26.833 -5 41.5
c0 15.333 1.33301 31.5 4 48.5s6 33.833 10 50.5l8 31.5l8 30.5c1.33301 5.33301 2.83301 10.666 4.5 15.999l4.5 15c4.66699 15.333 9.5 32.166 14.5 50.499s10.5 37.166 16.5 56.499l33 119l15 54c0.666992 1.33301 1.16699 3 1.5 5s0.833008 4 1.5 6
c0 1.33301 0.166992 2.5 0.5 3.5s0.5 1.83301 0.5 2.5c1.33301 3.33301 2.16602 6.33301 2.49902 9s0.5 5 0.5 7v0h-1c-6 0 -12.667 -3.5 -20 -10.5s-15 -15.833 -23 -26.5l-14.5 -23.5c-5 -8.33301 -9.83301 -16.833 -14.5 -25.5c-9.33301 -16.667 -17.5 -32.5 -24.5 -47.5
l-15.5 -32.5l-41 20c5.33301 10.667 11.333 23.334 18 38.001s14.334 29.667 23.001 45c14.667 26.667 31.5 51.334 50.5 74.001s39.5 34 61.5 34c8 0 14.667 -1.33301 20 -4s9.66602 -5.33398 12.999 -8.00098l2 -2l2 -2c3.33301 -4.66699 5.66602 -9.5 6.99902 -14.5
s2 -10.167 2 -15.5c0 -6 -0.5 -11.667 -1.5 -17s-2.16699 -10.333 -3.5 -15c-0.666992 -2 -1.16699 -4 -1.5 -6s-0.833008 -4 -1.5 -6l-74 -260c-2.66699 -8 -5.5 -17.333 -8.5 -28l-9.5 -34c-2.66699 -8.66699 -5.16699 -17.5 -7.5 -26.5s-4.5 -17.833 -6.5 -26.5
c-3.33301 -15.333 -6.16602 -30.166 -8.49902 -44.499s-3.5 -27.833 -3.5 -40.5c0 -10 1 -19.167 3 -27.5s5 -15.166 9 -20.499l1.5 -1.5c0.333008 -0.333008 1.16602 -0.833008 2.49902 -1.5c2 -2 4.66699 -3.66699 8 -5s8 -2 14 -2c31.333 0 61.166 16.167 89.499 48.5
s54.166 67.833 77.499 106.5l23 39.5l20 36.5l1 1c4.66699 8.66699 13.5 28.167 26.5 58.5l40.5 98.5c0.666992 0.666992 1.16699 1.5 1.5 2.5s0.5 1.83301 0.5 2.5l18 44.5l17 41.5l21 51.5l13 32.5l43 -15v0z" />
    <glyph glyph-name="V" unicode="V" horiz-adv-x="567" 
d="M614 696c-6.66699 -28 -18.6719 -69.9893 -36.0049 -125.989s-39 -114.333 -65 -175c-36 -84 -78.167 -160.667 -126.5 -230s-100.166 -104 -155.499 -104c-10.667 0 -20.167 1.66699 -28.5 5s-15.5 8.33301 -21.5 15c-6.66699 8.66699 -11.667 19.167 -15 31.5
s-5 27.166 -5 44.499c0 12.667 0.666992 26.667 2 42s3.33301 32.333 6 51c3.33301 21.333 6.5 42.833 9.5 64.5s6.16699 42.834 9.5 63.501l2 12.5l2 12.5c3.33301 20.667 6.5 41.667 9.5 63s5.83301 42.666 8.5 63.999c2.66699 16.667 4.83398 33.5 6.50098 50.5
s2.83398 33.833 3.50098 50.5v2v3v4.5v4.5c0 3.33301 -0.166992 6.66602 -0.5 9.99902s-1.16602 5.66602 -2.49902 6.99902c-0.666992 1.33301 -1.83398 2 -3.50098 2h-6.5c-4 0 -7.5 -0.5 -10.5 -1.5s-5.5 -2.83301 -7.5 -5.5
c-2.66699 -2.66699 -5.5 -6.33398 -8.5 -11.001s-6.5 -11 -10.5 -19l-101 -183l-40 22l16 29.5l16 28.5l33 58.5l31 58.5c0 0.666992 0.166992 1.16699 0.5 1.5l1.5 1.5c0 0.666992 0.333008 1.5 1 2.5s1.33398 2.16699 2.00098 3.5
c8.66699 15.333 18.334 29.166 29.001 41.499s26.667 18.5 48 18.5c9.33301 0 17.5 -1.5 24.5 -4.5s13.167 -7.16699 18.5 -12.5c4.66699 -4.66699 8.16699 -10.167 10.5 -16.5s3.83301 -12.833 4.5 -19.5c0.666992 -2 1 -4.16699 1 -6.5v-6.5v-4v-4
c-0.666992 -1.33301 -1 -2.66602 -1 -3.99902v-4c-0.666992 -10.667 -1.5 -21.334 -2.5 -32.001s-1.83301 -21.667 -2.5 -33c-3.33301 -28 -7 -55.833 -11 -83.5l-12 -83.5l-2 -12.5l-2 -12.5c-2 -10.667 -3.83301 -21.334 -5.5 -32.001s-3.16699 -21 -4.5 -31
c-1.33301 -10.667 -2.83301 -21.334 -4.5 -32.001s-3.16699 -21.334 -4.5 -32.001c-0.666992 -3.33301 -1.16699 -7 -1.5 -11s-0.833008 -8 -1.5 -12l-2 -16c-0.666992 -5.33301 -1 -10.666 -1 -15.999c-0.666992 -6 -1.16699 -11.833 -1.5 -17.5s-0.5 -11.167 -0.5 -16.5
c0 -10 0.833008 -18.833 2.5 -26.5s3.83398 -13.5 6.50098 -17.5c0.666992 0 1.16699 -0.166992 1.5 -0.5s0.5 -0.833008 0.5 -1.5c1.33301 -0.666992 3 -1.33398 5 -2.00098s5 -1 9 -1c18.667 0 38.667 8.33301 60 25s42.666 39.667 63.999 69
c35.333 47.333 69.5 107.166 102.5 179.499s61.167 147.166 84.5 224.499c5.33301 17.333 10.333 34.666 15 51.999s9 34.333 13 51l44 -11v0z" />
    <glyph glyph-name="W" unicode="W" horiz-adv-x="792" 
d="M863 698c-4 -28.667 -14.332 -70.8281 -30.999 -126.495s-38 -114.167 -64 -175.5c-34.667 -84 -76.334 -160.833 -125.001 -230.5s-100 -104.5 -154 -104.5c-6.66699 0 -13.334 1.5 -20.001 4.5s-12.334 7.5 -17.001 13.5c-9.33301 11.333 -15.833 27 -19.5 47
s-5.5 41 -5.5 63v2.5v2.5c0 16 0.833008 31.667 2.5 47l4.5 41c0.666992 6 1.5 11.667 2.5 17s1.83301 10 2.5 14c5.33301 29.333 10.166 58.833 14.499 88.5l13.5 89.5c-4.66699 -10.667 -9.5 -21.167 -14.5 -31.5s-9.83301 -20.833 -14.5 -31.5l-42.5 -83.5
c-14.333 -27.667 -29.166 -54.167 -44.499 -79.5c-33.333 -58 -65.5 -106.5 -96.5 -145.5s-56.833 -58.5 -77.5 -58.5c-4.66699 0 -9.5 1 -14.5 3s-9.16699 5 -12.5 9c-4.66699 5.33301 -8.16699 12.5 -10.5 21.5s-3.5 20.5 -3.5 34.5s1.16699 31 3.5 51
s5.83301 43.667 10.5 71l4 19.5l4 19.5c2 10.667 4.16699 21.5 6.5 32.5s4.83301 21.833 7.5 32.5c2 8.66699 3.83301 17.334 5.5 26.001s3.5 17 5.5 25l12.5 56.5c4.33301 19 8.5 38.167 12.5 57.5l10 56.5c3.33301 19 6 37.833 8 56.5v2c0 0.666992 0.333008 1.66699 1 3
v2v2c0 5.33301 -0.666992 10.166 -2 14.499s-3 7.83301 -5 10.5c-0.666992 1.33301 -1.33398 2 -2.00098 2h-2c-4 0 -8.66699 -1.66699 -14 -5s-10.666 -8.33301 -15.999 -15c-3.33301 -4 -6.66602 -8.5 -9.99902 -13.5s-6.66602 -10.5 -9.99902 -16.5l-20.5 -38
c-7 -12.667 -14.167 -25 -21.5 -37c-1.33301 -2.66699 -2.83301 -5.33398 -4.5 -8.00098s-3.16699 -5.33398 -4.5 -8.00098c-5.33301 -10 -11 -20 -17 -30s-11.667 -20 -17 -30l-40 22c5.33301 10 11 20 17 30s11.667 20 17 30c1.33301 2.66699 2.83301 5.16699 4.5 7.5
s3.16699 4.83301 4.5 7.5l21.5 37.5l20.5 37.5c0.666992 0.666992 1.16699 1.5 1.5 2.5s0.833008 1.83301 1.5 2.5c9.33301 17.333 21.5 33.166 36.5 47.499s31.833 21.5 50.5 21.5c7.33301 0 14.333 -1.5 21 -4.5s12.334 -7.16699 17.001 -12.5s8.33398 -11.333 11.001 -18
s4.66699 -13.334 6 -20.001c0 -3.33301 0.166992 -6.5 0.5 -9.5s0.5 -5.83301 0.5 -8.5v-7.5c0 -2.33301 -0.333008 -4.5 -1 -6.5c-1.33301 -12.667 -3 -25.5 -5 -38.5l-6 -38.5c-4.66699 -26 -9.83398 -51.833 -15.501 -77.5l-17.5 -76.5l-4 -18.5l-4 -19.5
c-2.66699 -10.667 -5.16699 -21.334 -7.5 -32.001s-4.5 -21.334 -6.5 -32.001c-2 -8.66699 -3.83301 -17.167 -5.5 -25.5s-3.16699 -16.833 -4.5 -25.5c-4.66699 -30 -8.16699 -54.167 -10.5 -72.5s-3.5 -32.5 -3.5 -42.5c0 -4.66699 0.166992 -8.5 0.5 -11.5
s0.833008 -5.5 1.5 -7.5c15.333 9.33301 38.666 37.166 69.999 83.499s64 101.833 98 166.5c16 28.667 31.5 58.5 46.5 89.5l43.5 93.5l32.5 79.5c10.333 26.333 19.5 52.166 27.5 77.499l43 -11l-17.5 -106l-16.5 -106c-2.66699 -18.667 -5.5 -37.5 -8.5 -56.5
s-5.83301 -38.167 -8.5 -57.5c-2 -9.33301 -3.66699 -18.833 -5 -28.5s-3 -19.167 -5 -28.5c-4 -22.667 -6.83301 -44 -8.5 -64s-2.5 -38 -2.5 -54c0 -20.667 1.33301 -37.667 4 -51s6 -22.666 10 -27.999c1.33301 -0.666992 2.16602 -1.16699 2.49902 -1.5l0.5 -0.5
c18 0 37.667 9 59 27s43 42 65 72c28 38.667 55.333 84.5 82 137.5s50.334 107.5 71.001 163.5c12 34.667 22.5 68.834 31.5 102.501s15.833 65.834 20.5 96.501l45 -7v0z" />
    <glyph glyph-name="X" unicode="X" horiz-adv-x="606" 
d="M637 696l-0.994141 -46.001h-3.5h-3.5h-3.5h-3.5c-27.333 0 -51 -4.16699 -71 -12.5s-38.667 -24.5 -56 -48.5l-144 -190v-213c0 -16.667 2.5 -31.667 7.5 -45s16.833 -20 35.5 -20h187l-20 -46h-167c-32.667 0 -55.5 11 -68.5 33s-19.5 48 -19.5 78v153l-59 -78
c-23.333 -30.667 -49.166 -59 -77.499 -85l-86.5 -76l-11 -9l-12 -10l-30 34c3.33301 3.33301 6.83301 6.33301 10.5 9s7.16699 5.66699 10.5 9l84.5 73c27.667 24.667 52.5 52 74.5 82l29 38l67 88v248v0.5v1.5c-1.33301 0 -3.33301 -0.333008 -6 -1
s-5.66699 -1.66699 -9 -3c-0.666992 -0.666992 -1.33398 -1.16699 -2.00098 -1.5s-1.33398 -0.833008 -2.00098 -1.5c-14.667 -10 -27.334 -21.167 -38.001 -33.5s-20 -24.833 -28 -37.5l-10 -16c-3.33301 -5.33301 -6.33301 -10.666 -9 -15.999l-39 23
c13.333 22.667 27.5 44.167 42.5 64.5s33.5 37.833 55.5 52.5c5.33301 4 11.166 7.16699 17.499 9.5s12.833 4.16602 19.5 5.49902h4h4h5.5c1.66699 0 3.5 -0.333008 5.5 -1s3.83301 -1.16699 5.5 -1.5s3.5 -1.16602 5.5 -2.49902
c1.33301 -0.666992 2.66602 -1.5 3.99902 -2.5s2.66602 -1.83301 3.99902 -2.5c3.33301 -3.33301 6.66602 -8 9.99902 -14s5 -13.667 5 -23v-187l20 26.5l22 29.5l45 59l20 27c22.667 30.667 47.667 51.5 75 62.5s58.333 16.5 93 16.5h3h3h2.5h2.5v0z" />
    <glyph glyph-name="Y" unicode="Y" horiz-adv-x="717" 
d="M723 -7l-270.991 0.00878906c-24.667 -51.333 -62.834 -93.833 -114.501 -127.5s-105.834 -53.5 -162.501 -59.5c-6 -0.666992 -11.833 -1.16699 -17.5 -1.5s-11.5 -0.5 -17.5 -0.5c-16.667 0 -31.5 2 -44.5 6s-24.167 10.333 -33.5 19
c-8.66699 7.33301 -15.5 16.5 -20.5 27.5s-7.5 22.833 -7.5 35.5c0 3.33301 0.166992 6.66602 0.5 9.99902s0.833008 6.66602 1.5 9.99902c6 32 25.167 61.167 57.5 87.5s72.5 39.5 120.5 39.5h207l63 218.5l62 218.5c-4 -8 -8.33301 -16 -13 -24s-9 -16 -13 -24l-26.5 -49
c-9 -16 -18.5 -31.667 -28.5 -47l-6.5 -10.5l-6.5 -10.5c-36 -58.667 -75.167 -112.167 -117.5 -160.5s-88.166 -72.5 -137.499 -72.5c-19.333 0 -32.833 6.83301 -40.5 20.5s-11.5 30.5 -11.5 50.5c0 9.33301 0.666992 19.166 2 29.499s3 20.833 5 31.5
s4.5 21.334 7.5 32.001l8.5 31c4.66699 15.333 9.16699 29 13.5 41s7.16602 20.333 8.49902 25l16 54.5l18 62.5c0 1.33301 0.333008 2.66602 1 3.99902s1 2.66602 1 3.99902l36.5 129c11 39.333 16.5 58.666 16.5 57.999c0.666992 1.33301 1.16699 3.16602 1.5 5.49902
s0.833008 4.5 1.5 6.5c0 0.666992 0.166992 1.5 0.5 2.5s0.5 1.83301 0.5 2.5c0.666992 3.33301 1.33398 6.5 2.00098 9.5s1 5.5 1 7.5h-1v0c-6 0 -12.833 -3.83301 -20.5 -11.5s-15.5 -17.167 -23.5 -28.5c-4.66699 -6.66699 -9.33398 -14 -14.001 -22l-14 -24
c-9.33301 -16.667 -17.5 -32.5 -24.5 -47.5l-15.5 -32.5l-41 20l18.5 38c7 14.667 14.833 30 23.5 46c14.667 26.667 31.334 51.167 50.001 73.5s39 33.5 61 33.5c8 0 14.667 -1.33301 20 -4s9.66602 -5.33398 12.999 -8.00098l2 -2l2 -2
c3.33301 -4.66699 5.66602 -9.5 6.99902 -14.5s2 -10.167 2 -15.5c0 -2.66699 -0.166992 -5.16699 -0.5 -7.5s-0.5 -4.83301 -0.5 -7.5c-0.666992 -3.33301 -1.33398 -6.33301 -2.00098 -9s-1.33398 -5.66699 -2.00098 -9c-0.666992 -2 -1.16699 -4 -1.5 -6
s-0.833008 -4 -1.5 -6l-14.5 -52l-15.5 -52c-2 -8.66699 -4.33301 -17.334 -7 -26.001s-5 -17.334 -7 -26.001l-22.5 -79l-23.5 -78l-8 -28l-11 -36c-1.33301 -4.66699 -2.5 -9.5 -3.5 -14.5s-2.16699 -9.83301 -3.5 -14.5c-4.66699 -17.333 -8.5 -34.166 -11.5 -50.499
s-4.5 -29.833 -4.5 -40.5c0 -4.66699 0.333008 -8.66699 1 -12s1.66699 -5.66602 3 -6.99902c2 -0.666992 4 -1.16699 6 -1.5s4.33301 -0.5 7 -0.5c11.333 0 23.666 4 36.999 12s26.666 18.333 39.999 31c11.333 11.333 22.666 23.833 33.999 37.5l33 41.5
c17.333 23.333 32.666 45.666 45.999 66.999l29 46l33.5 59.5l54.5 98.5c0.666992 1.33301 1.5 2.66602 2.5 3.99902s1.83301 2.66602 2.5 3.99902l53.5 100.5c16.333 31.667 26.833 52.834 31.5 63.501l43 -15l-44.5 -158l-44.5 -158l-45 -158l-45 -158h254v-46v0z
M401.009 -6.99121l-187 0.000976562c-6.66699 0.666992 -13.334 0.5 -20.001 -0.5s-13.667 -2.5 -21 -4.5c-23.333 -6.66699 -44.666 -18.167 -63.999 -34.5s-29 -36.833 -29 -61.5c0 -6 1 -11.5 3 -16.5s5 -9.16699 9 -12.5c5.33301 -4.66699 12 -8.16699 20 -10.5
s17.333 -3.5 28 -3.5h2.5h3.5c51.333 1.33301 100.5 15.666 147.5 42.999s82.833 61.333 107.5 102v-1z" />
    <glyph glyph-name="Z" unicode="Z" horiz-adv-x="641" 
d="M680 647c-0.666992 -2.66699 -1.50293 -5.16309 -2.50293 -7.49609s-2.5 -4.83301 -4.5 -7.5c-4 -6.66699 -8.83301 -13.5 -14.5 -20.5s-11.834 -13.5 -18.501 -19.5c-4.66699 -4.66699 -9.16699 -8.83398 -13.5 -12.501l-12.5 -10.5l-79 -64l-174 -140l-175 -140.5
l-79 -63.5l-6 -6l-6 -6c-4.66699 -5.33301 -8.5 -10.5 -11.5 -15.5s-4.83301 -8.83301 -5.5 -11.5c0.666992 0 1.16699 -0.166992 1.5 -0.5s0.833008 -0.5 1.5 -0.5c2 -0.666992 4.33301 -1.16699 7 -1.5s5.66699 -0.5 9 -0.5h508v-45h-508h-7.5
c-2.33301 0 -4.83301 0.333008 -7.5 1c-10 1.33301 -19.5 4.16602 -28.5 8.49902s-15.167 11.833 -18.5 22.5c-0.666992 2.66699 -1.33398 5.16699 -2.00098 7.5s-0.666992 4.83301 0 7.5v4.5c0 1.66699 0.333008 3.5 1 5.5c2 9.33301 6 18.666 12 27.999
s12.333 17.333 19 24c2.66699 2.66699 5.16699 5 7.5 7s4.5 4 6.5 6l507 408c14.667 12 25.667 22.333 33 31s12.333 15.334 15 20.001c-1.33301 1.33301 -3.16602 2.5 -5.49902 3.5s-4.83301 1.83301 -7.5 2.5c-14 5.33301 -36.667 10.166 -68 14.499s-70.333 6.5 -117 6.5
c-58 0 -108.333 -5 -151 -15s-70 -21.333 -82 -34c-1.33301 -1.33301 -2.5 -2.83301 -3.5 -4.5s-1.83301 -3.16699 -2.5 -4.5c-0.666992 -0.666992 -1.16699 -1.83398 -1.5 -3.50098s-0.166016 -3.16699 0.500977 -4.5c0 -2 0.333008 -4 1 -6s2 -4.66699 4 -8
c2 -2.66699 4.33301 -5.16699 7 -7.5l9 -7.5c10.667 -7.33301 25.334 -14.166 44.001 -20.499s41.667 -10.833 69 -13.5l-4 -45c-9.33301 0.666992 -19.166 1.83398 -29.499 3.50098s-20.833 3.83398 -31.5 6.50098c-20 5.33301 -39.167 12.666 -57.5 21.999
s-32.833 21.666 -43.5 36.999c-4.66699 6.66699 -8.16699 13.5 -10.5 20.5s-3.5 13.833 -3.5 20.5c0 3.33301 0.333008 6.5 1 9.5s1.33398 5.83301 2.00098 8.5c6 22 23 39.167 51 51.5s58.333 21.5 91 27.5c32 6 61.833 9.5 89.5 10.5s44.834 1.5 51.501 1.5
c13.333 0 29.666 -0.333008 48.999 -1s39.333 -2 60 -4c27.333 -2.66699 53.333 -7.33398 78 -14.001s41.667 -16 51 -28c2.66699 -3.33301 4.5 -7 5.5 -11s1.5 -8 1.5 -12v-4.5c0 -1.66699 -0.333008 -3.5 -1 -5.5v0z" />
    <glyph glyph-name="bracketleft" unicode="[" horiz-adv-x="212" 
d="M110 -165h-150l270 937h150l-16 -55h-100l-238 -827h100l-16 -55v0z" />
    <glyph glyph-name="backslash" unicode="\" horiz-adv-x="382" 
d="M272 0h-55l-207 772h55l207 -772v0z" />
    <glyph glyph-name="bracketright" unicode="]" horiz-adv-x="198" 
d="M64 -165h-150l16 55h100l238 827h-100l16 55h150l-270 -937v0z" />
    <glyph glyph-name="asciicircum" unicode="^" horiz-adv-x="366" 
d="M346 609l-70 -72l-93 83l-93 -83l-70 72l163 163l163 -163v0z" />
    <glyph glyph-name="underscore" unicode="_" horiz-adv-x="800" 
d="M815 -83h-830v76h830v-76v0z" />
    <glyph glyph-name="grave" unicode="`" horiz-adv-x="362" 
d="M248 612l-20 -19l-164 120l40 23l144 -124v0z" />
    <glyph glyph-name="a" unicode="a" horiz-adv-x="534" 
d="M609 119l-12.999 -44.998h-297c-20.667 0 -34.667 4.83301 -42 14.5s-11 21.834 -11 36.501c0 5.33301 0.333008 10.666 1 15.999s1.66699 11 3 17l4 14.5c1.33301 5 3 9.83301 5 14.5l5.5 18.5c1.66699 5.66699 3.16699 10.5 4.5 14.5l-12 -12l-13 -13l-55.5 -55.5
l-25.5 -25.5c-16.667 -16.667 -31.834 -27.5 -45.501 -32.5s-25.167 -7.5 -34.5 -7.5c-4.66699 0 -8.5 0.333008 -11.5 1s-5.5 1.33398 -7.5 2.00098c-10.667 3.33301 -19.167 9.83301 -25.5 19.5s-9.5 20.167 -9.5 31.5v4.5c0 1.66699 0.333008 3.5 1 5.5
c0 1.33301 0.166992 2.83301 0.5 4.5s0.833008 3.16699 1.5 4.5c0.666992 2.66699 1.33398 5.16699 2.00098 7.5s1.33398 5.16602 2.00098 8.49902c2.66699 9.33301 5.16699 19.833 7.5 31.5s5.16602 23.167 8.49902 34.5c8 28.667 19.667 55 35 79s38.666 36 69.999 36h193
l-57 -198c0 -0.666992 -0.166992 -1.33398 -0.5 -2.00098s-0.5 -1.33398 -0.5 -2.00098v-2v-2c0 -4.66699 1.83301 -9 5.5 -13s8.5 -6 14.5 -6h297v0zM292.001 299.002l-147.999 -1.00195c-6.66699 0 -12.667 -1.33301 -18 -4s-9 -7.66699 -11 -15l-38 -132
c-0.666992 -0.666992 -1 -1.5 -1 -2.5v-3.5c0 -4.66699 1.33301 -9 4 -13s6 -6.66699 10 -8c1.33301 -0.666992 2.5 -1 3.5 -1h3.5c2 0 4 0.333008 6 1l6 2c3.33301 2 6.66602 4.33301 9.99902 7s6.33301 5.33398 9 8.00098c1.33301 0.666992 2.33301 1.33398 3 2.00098l2 2
l159 158v0z" />
    <glyph glyph-name="b" unicode="b" horiz-adv-x="587" 
d="M635 120l-12.999 -45.0039h-160.5h-134.5h-135h-162l136 472h45l-92 -321c6.66699 7.33301 14.834 15.5 24.501 24.5l31.5 28.5l32.5 24.5c11 8.33301 22.167 15.833 33.5 22.5c13.333 8.66699 26.833 15.5 40.5 20.5s26.167 7.5 37.5 7.5
c2.66699 0 5.5 -0.166992 8.5 -0.5s6.16699 -1.16602 9.5 -2.49902c6 -2 11.667 -6.33301 17 -13s8 -16.667 8 -30c0 -4.66699 -0.5 -10.167 -1.5 -16.5s-2.5 -13.166 -4.5 -20.499c-1.33301 -5.33301 -2.83301 -10.666 -4.5 -15.999s-3.16699 -10.666 -4.5 -15.999
c-0.666992 -4 -1.5 -7.83301 -2.5 -11.5s-1.83301 -7.16699 -2.5 -10.5c-4.66699 -18 -10.334 -35.5 -17.001 -52.5s-16.334 -31.833 -29.001 -44.5h339v0zM310.001 270.996c0 0.666992 0.332031 1.66895 0.999023 3.00195s1 3 1 5
c0.666992 1.33301 1.16699 2.83301 1.5 4.5s0.833008 3.5 1.5 5.5v3.5v3.5c0 3.33301 -0.666992 6.33301 -2 9s-3.66602 4 -6.99902 4c-10.667 0 -25.167 -5.33301 -43.5 -16s-37.5 -24.334 -57.5 -41.001c-12 -9.33301 -23.667 -19.333 -35 -30s-22 -21.334 -32 -32.001
c-10.667 -12.667 -20.167 -25 -28.5 -37s-14.166 -23 -17.499 -33h126c21.333 0 37.666 8.83301 48.999 26.5s20.333 37.167 27 58.5c3.33301 11.333 6 22.333 8 33s4.33301 20 7 28c0 0.666992 0.166992 1.5 0.5 2.5s0.5 1.83301 0.5 2.5v0z" />
    <glyph glyph-name="c" unicode="c" horiz-adv-x="447" 
d="M490 119l-13.0029 -45.002h-346c-42 0 -70.5 9.16699 -85.5 27.5s-22.5 40.833 -22.5 67.5c0 10 0.833008 20.333 2.5 31s3.83398 21.334 6.50098 32.001c2 9.33301 4.33301 18.5 7 27.5l8 27.5c4 10.667 7.5 20.834 10.5 30.501l8.5 26.5h165
c14.667 0 24.5 -3.5 29.5 -10.5s7.5 -15.5 7.5 -25.5c0 -4 -0.333008 -8 -1 -12l-2 -12c-0.666992 -3.33301 -1.5 -7 -2.5 -11s-2.16699 -7.66699 -3.5 -11c-1.33301 -5.33301 -2.83301 -10.333 -4.5 -15s-2.83398 -8.66699 -3.50098 -12h-46
c0.666992 1.33301 1.66699 3.83301 3 7.5l5 13.5c0.666992 2 1.16699 3.83301 1.5 5.5s0.833008 3.16699 1.5 4.5l3.5 14.5c1 4.33301 1.5 8.16602 1.5 11.499c0 2 -0.166992 3.5 -0.5 4.5s-1.16602 1.5 -2.49902 1.5h-120c-1.33301 -6 -3.16602 -12.167 -5.49902 -18.5
s-4.5 -13.166 -6.5 -20.499c-1.33301 -4 -2.66602 -8.33301 -3.99902 -13l-4 -14c-2.66699 -8.66699 -4.66699 -17.5 -6 -26.5s-2 -17.5 -2 -25.5c0 -17.333 5.16699 -31.833 15.5 -43.5s29.833 -17.5 58.5 -17.5h346v0z" />
    <glyph glyph-name="d" unicode="d" horiz-adv-x="551" 
d="M609 119l-13.0039 -44.999h-297c-20.667 0 -34.667 4.83301 -42 14.5s-11 21.5 -11 35.5c0 4.66699 0.333008 9.5 1 14.5s1.66699 10.167 3 15.5c0.666992 4.66699 1.83398 9.5 3.50098 14.5s3.16699 9.83301 4.5 14.5c1.33301 6 2.83301 11.5 4.5 16.5l4.5 13.5
c-8 -7.33301 -17 -16.166 -27 -26.499l-31 -31.5l-27 -24.5c-9.33301 -8.33301 -18.666 -15.833 -27.999 -22.5c-13.333 -10 -26.5 -18 -39.5 -24s-25.167 -9 -36.5 -9c-3.33301 0 -6.5 0.5 -9.5 1.5s-6.16699 1.83301 -9.5 2.5c-9.33301 3.33301 -16.666 9.5 -21.999 18.5
s-8 19.167 -8 30.5c0 3.33301 0.333008 6.5 1 9.5s1.33398 6.16699 2.00098 9.5l39 138c5.33301 16 14.5 29.833 27.5 41.5s28.167 17.5 45.5 17.5h161l58 202h45l-115 -400c0 -0.666992 -0.166992 -1.33398 -0.5 -2.00098s-0.5 -1.33398 -0.5 -2.00098v-2v-2
c0 -4.66699 1.83301 -9 5.5 -13s8.5 -6 14.5 -6h297v0zM291.996 298.001l-160.999 0.000976562c-4.66699 0 -7.83398 -1.16699 -9.50098 -3.5s-3.16699 -5.5 -4.5 -9.5l-40 -138v-2v-1c-0.666992 -0.666992 -1 -1.33398 -1 -2.00098v-2c0 -4 0.833008 -7.83301 2.5 -11.5
s4.16699 -6.16699 7.5 -7.5h1.5h1.5c0 -0.666992 0.166992 -1 0.5 -1h1.5c5.33301 0 11.333 2 18 6s13.667 9.33301 21 16l158 143l4 13v0z" />
    <glyph glyph-name="e" unicode="e" horiz-adv-x="486" 
d="M561 119l-12.999 -44.9951h-458c-20 0 -35.667 6 -47 18s-16.666 26.667 -15.999 44c0 3.33301 0.333008 6.83301 1 10.5l2 11.5c3.33301 11.333 8.66602 22.166 15.999 32.499s16 19.166 26 26.499c-4 5.33301 -7.16699 11 -9.5 17s-3.5 12.333 -3.5 19v4
c0 1.33301 0.333008 3 1 5c0 1.33301 0.166992 2.66602 0.5 3.99902s0.833008 2.66602 1.5 3.99902c6 20 18.833 37.167 38.5 51.5s40.5 21.833 62.5 22.5h2h2h175l-13 -45h-175c-2 0 -4.33301 -0.166992 -7 -0.5s-5.33398 -0.833008 -8.00098 -1.5
c-6.66699 -2 -13 -5.33301 -19 -10s-10 -10.334 -12 -17.001c-0.666992 -0.666992 -1 -1.5 -1 -2.5v-3.5c0 -6 3 -11.167 9 -15.5s13.333 -6.5 22 -6.5h109l-13 -46h-109c-10.667 0 -20.834 -3.83301 -30.501 -11.5s-16.167 -16.5 -19.5 -26.5
c-0.666992 -2 -1.16699 -3.83301 -1.5 -5.5s-0.166016 -3.16699 0.500977 -4.5c0 -8.66699 2.66699 -15.667 8 -21s12.333 -8 21 -8h458v0z" />
    <glyph glyph-name="f" unicode="f" horiz-adv-x="482" 
d="M537 344l-12.999 -45.998h-329c17.333 -20.667 29.5 -43.334 36.5 -68.001s10.5 -49.667 10.5 -75c0 -16.667 -1.33301 -33.167 -4 -49.5s-6.33398 -32.5 -11.001 -48.5c-8.66699 -28.667 -25 -52.5 -49 -71.5s-49.333 -29.167 -76 -30.5h-2h-2
c-22 0 -39.5 6.66699 -52.5 20s-19.5 29.666 -19.5 48.999c0 4.66699 0.333008 9.16699 1 13.5s1.66699 8.83301 3 13.5l70 247h-57l13 46h57l58 202h46l-58 -202h378v0zM182.001 58.002c3.33301 9.33301 5.99902 18.834 7.99902 28.501s3.33301 19.5 4 29.5
c0.666992 4.66699 1.16699 9.5 1.5 14.5s0.5 9.83301 0.5 14.5c0 25.333 -4.16699 49.666 -12.5 72.999s-22.5 44 -42.5 62l-66 -229c-0.666992 -2.66699 -1.16699 -5.16699 -1.5 -7.5s-0.5 -4.83301 -0.5 -7.5c0 -10 3.33301 -18.5 10 -25.5s16 -10.5 28 -10.5
c17.333 0 32.333 6 45 18s21.334 25.333 26.001 40v0z" />
    <glyph glyph-name="g" unicode="g" horiz-adv-x="583" 
d="M625 119l-13.002 -45.001h-313c-4.66699 0 -9.16699 -0.166992 -13.5 -0.5s-8.5 -0.833008 -12.5 -1.5l-35 -123c-4 -13.333 -12 -25.333 -24 -36s-25.667 -16 -41 -16l-128 -1c14 49.333 36.833 92.666 68.5 129.999s72.834 64.333 123.501 81l33 113l-107 -106
c-16.667 -16.667 -31.667 -27.5 -45 -32.5s-24.666 -7.5 -33.999 -7.5c-4.66699 0 -8.5 0.333008 -11.5 1s-5.5 1.33398 -7.5 2.00098c-10.667 3.33301 -19.167 9.83301 -25.5 19.5s-9.5 20.834 -9.5 33.501c0 2.66699 0.166992 5.5 0.5 8.5s0.833008 5.83301 1.5 8.5
s1.5 5.66699 2.5 9s1.83301 6.66602 2.5 9.99902c2.66699 10 5.16699 20.333 7.5 31s4.83301 21.334 7.5 32.001c8 28.667 19.667 55 35 79s39 36 71 36h193l-65 -226c4 0.666992 8.16699 1 12.5 1h13.5h313v0zM222.998 56.999
c-25.333 -10.667 -48.5 -26.1699 -69.5 -46.5029s-37.167 -43.166 -48.5 -68.499l81 -1l2.5 2.5l2.5 2.5c0 0.666992 0.166992 1.33398 0.5 2.00098s0.5 1.33398 0.5 2.00098l31 107v0zM291.998 297.996l-147 -0.000976562c-6.66699 0 -12.667 -1.33301 -18 -4
s-9 -7.66699 -11 -15l-38 -132c-0.666992 -0.666992 -1 -1.5 -1 -2.5v-3.5c0 -4.66699 1.33301 -9 4 -13s6 -6.66699 10 -8c1.33301 -0.666992 2.5 -1 3.5 -1h2.5c2 0 4.33301 0.333008 7 1s5 1.66699 7 3c3.33301 2 6.5 4.16699 9.5 6.5s5.83301 4.83301 8.5 7.5
c1.33301 0.666992 2.33301 1.33398 3 2.00098l2 2l158 157v0z" />
    <glyph glyph-name="h" unicode="h" horiz-adv-x="540" 
d="M575 119l-12.998 -45.002h-253c-16.667 0 -29 4.33301 -37 13s-12 19.334 -12 32.001c0 4.66699 0.5 9.33398 1.5 14.001s2.16699 9.33398 3.5 14.001l37 132c0.666992 1.33301 1.16699 3 1.5 5s0.5 4.33301 0.5 7c0 3.33301 -0.5 6.66602 -1.5 9.99902
s-3.16699 5.33301 -6.5 6c-4 1.33301 -9.66699 -0.166992 -17 -4.5s-15 -11.166 -23 -20.499l-190 -208h-39l136 472h45l-108 -375l124 135c17.333 19.333 33 31.833 47 37.5s25.333 8.5 34 8.5c3.33301 0 6.33301 -0.166992 9 -0.5s5 -0.833008 7 -1.5
c10 -2.66699 17.667 -8.33398 23 -17.001s8 -18.667 8 -30c0 -4 -0.333008 -8 -1 -12s-1.66699 -8 -3 -12l-38 -132c-0.666992 -2.66699 -1.33398 -5.5 -2.00098 -8.5s-1 -5.5 -1 -7.5c0 -4 1.16699 -7 3.5 -9s6.16602 -3 11.499 -3h253v0z" />
    <glyph glyph-name="i" unicode="i" horiz-adv-x="311" 
d="M356 119l-12.999 -45h-274c-16 0 -28.667 4.83301 -38 14.5s-14 21.834 -14 36.501c0 2 0.166992 4 0.5 6s0.5 4 0.5 6c0.666992 0.666992 1.16699 1.66699 1.5 3s0.5 2.33301 0.5 3l61 215h46l-62 -215c0 -0.666992 -0.166992 -1.33398 -0.5 -2.00098l-0.5 -1v-2v-2
c0 -4.66699 1.66699 -8.66699 5 -12s7.66602 -5 12.999 -5h274v0zM161.001 428c0 -12 -4.33301 -22.333 -13 -31s-19.334 -13 -32.001 -13s-23.334 4.33301 -32.001 13s-13 19 -13 31c0 12.667 4.33301 23.334 13 32.001s19.334 13 32.001 13s23.334 -4.33301 32.001 -13
s13 -19.334 13 -32.001v0z" />
    <glyph glyph-name="j" unicode="j" horiz-adv-x="566" 
d="M600 119l-13.001 -44.999h-304c-4.66699 0 -9.16699 -0.166992 -13.5 -0.5s-8.5 -0.833008 -12.5 -1.5l-35 -123c-4 -13.333 -12 -25.333 -24 -36s-25.667 -16 -41 -16l-128 -1c14 49.333 36.833 92.666 68.5 129.999s72.834 64.333 123.501 81l49 169l-202 -193l-28 27
l258 247h41l-69 -239c4 0.666992 8.16699 1 12.5 1h13.5h304v0zM206.999 57.001c-25.333 -10.667 -48.5 -26.1699 -69.5 -46.5029s-37.167 -43.166 -48.5 -68.499l81 -1l2.5 2.5l2.5 2.5c0 0.666992 0.166992 1.33398 0.5 2.00098s0.5 1.33398 0.5 2.00098l31 107v0z
M372.999 427.998c0 -12 -4.33301 -22.333 -13 -31s-19.334 -13 -32.001 -13c-12 0 -22.5 4.33301 -31.5 13s-13.5 19 -13.5 31c0 12.667 4.5 23.334 13.5 32.001s19.5 13 31.5 13c12.667 0 23.334 -4.33301 32.001 -13s13 -19.334 13 -32.001v0z" />
    <glyph glyph-name="k" unicode="k" horiz-adv-x="653" 
d="M215 546l-136 -472h-46l137 472h45v0zM702 119l-13.001 -44.999h-409c-16.667 0 -28 3.5 -34 10.5s-9 15.833 -9 26.5c0 4.66699 0.5 9.5 1.5 14.5s2.16699 10.167 3.5 15.5c0.666992 3.33301 1.5 6.66602 2.5 9.99902s2.16699 6.66602 3.5 9.99902
c2.66699 8.66699 5 16.667 7 24s3 13.333 3 18c0 2.66699 -0.5 4.66699 -1.5 6s-2.83301 2 -5.5 2h-5h-7c-2 -0.666992 -4.33301 -1 -7 -1h-8h-4h-4c-9.33301 0.666992 -18 2.33398 -26 5.00098s-13 7.33398 -15 14.001c-0.666992 1.33301 -1 2.5 -1 3.5v2.5
c0 5.33301 1.66699 11 5 17s8.33301 12.333 15 19l99 103l30 -26l-88 -91h29c16 0 27 -3.5 33 -10.5s9 -15.5 9 -25.5c0 -5.33301 -0.666992 -10.666 -2 -15.999l-4 -16c-0.666992 -3.33301 -1.5 -6.33301 -2.5 -9s-1.83301 -5.33398 -2.5 -8.00098l-7.5 -24.5
c-2.33301 -7.66699 -3.5 -13.834 -3.5 -18.501c0 -2.66699 0.833008 -5 2.5 -7s3.83398 -3 6.50098 -3h409v0z" />
    <glyph glyph-name="l" unicode="l" horiz-adv-x="299" 
d="M356 119l-13 -44.999h-274c-16 0 -28.667 5 -38 15s-14 22 -14 36c0 3.33301 0.333008 6.5 1 9.5s1.33398 5.83301 2.00098 8.5l115 404h46l-116 -404c0 -0.666992 -0.166992 -1.33398 -0.5 -2.00098l-0.5 -1v-2v-2c0 -4.66699 1.66699 -8.66699 5 -12
s7.66602 -5 12.999 -5h274v0z" />
    <glyph glyph-name="m" unicode="m" horiz-adv-x="691" 
d="M738 119l-13.001 -45.0049h-225c-32.667 0 -54.834 7.16699 -66.501 21.5s-17.5 31.833 -17.5 52.5c0 8 0.666992 16.333 2 25s3 17.334 5 26.001c2 6.66699 3.83301 13.167 5.5 19.5s3.5 12.833 5.5 19.5c2.66699 7.33301 5 14.5 7 21.5l6 20.5
c0.666992 1.33301 1 2.5 1 3.5v3.5c0 4 -1.16699 7.83301 -3.5 11.5s-5.83301 5.83398 -10.5 6.50098h-1.5h-2.5c-4.66699 0 -9.33398 -1.66699 -14.001 -5s-8.33398 -7.33301 -11.001 -12c-0.666992 0 -1.16699 -0.166992 -1.5 -0.5s-0.5 -0.833008 -0.5 -1.5l-149 -212
h-45l59 206c0 0.666992 0.166992 1.33398 0.5 2.00098s0.5 1.33398 0.5 2.00098v2v2c0 4 -0.833008 7.66699 -2.5 11s-4.5 5.33301 -8.5 6h-2h-2c-3.33301 -0.666992 -6.66602 -2.16699 -9.99902 -4.5s-6.33301 -4.83301 -9 -7.5l-4 -4
c-1.33301 -1.33301 -2.33301 -2.66602 -3 -3.99902l-161 -211h-32l78 270h45l-39 -136l73 96c4 5.33301 8 10 12 14s8 7.66699 12 11c9.33301 8 18.5 13.5 27.5 16.5s17.5 4.5 25.5 4.5h6c2 0 3.66699 -0.333008 5 -1c13.333 -2.66699 22.5 -8.66699 27.5 -18
s7.5 -20.333 7.5 -33c0 -5.33301 -0.5 -10.833 -1.5 -16.5s-2.16699 -11.167 -3.5 -16.5c-1.33301 -6 -2.83301 -11.833 -4.5 -17.5s-3.16699 -11.167 -4.5 -16.5l-7.5 -22c-2.33301 -6.66699 -4.16602 -12.334 -5.49902 -17.001l78 111
c5.33301 7.33301 10.833 13.666 16.5 18.999s11.167 10 16.5 14c8 4.66699 15.833 8.16699 23.5 10.5s14.834 3.5 21.501 3.5h6c2 0 4 -0.333008 6 -1c14.667 -2.66699 24.667 -8.83398 30 -18.501s8 -20.834 8 -33.501c0 -5.33301 -0.333008 -10.666 -1 -15.999
s-1.66699 -10.666 -3 -15.999c-1.33301 -6 -2.83301 -11.833 -4.5 -17.5s-3.5 -11.167 -5.5 -16.5c-2 -7.33301 -4.16699 -14.333 -6.5 -21s-4.16602 -12.334 -5.49902 -17.001c-2 -7.33301 -3.66699 -14.166 -5 -20.499s-2 -12.166 -2 -17.499
c0 -11.333 4 -20.166 12 -26.499s21.333 -9.5 40 -9.5h225v0z" />
    <glyph glyph-name="n" unicode="n" horiz-adv-x="554" 
d="M602 119l-13 -45.0029h-271c-32.667 0 -55 6.33301 -67 19s-18 28.334 -18 47.001c0 7.33301 0.666992 15.166 2 23.499s3 16.833 5 25.5c1.33301 5.33301 2.83301 10.5 4.5 15.5s3.5 10.167 5.5 15.5l11 37c3.33301 11.333 5 21 5 29c0 5.33301 -1 9.5 -3 12.5
s-5 4.83301 -9 5.5h-1.5c-0.333008 0 -0.5 0.333008 -0.5 1h-1.5h-1.5c-4 0 -8 -1.33301 -12 -4s-7.66699 -5.66699 -11 -9c-0.666992 -1.33301 -1.5 -2.5 -2.5 -3.5s-1.83301 -2.16699 -2.5 -3.5l-160 -211h-32l77 270h46l-39 -136l73 96
c4.66699 6 9.16699 11.167 13.5 15.5s8.83301 8.16602 13.5 11.499c8.66699 7.33301 17.5 12.333 26.5 15s17.167 4 24.5 4h7c2 0 4 -0.333008 6 -1c14 -3.33301 23.667 -9.16602 29 -17.499s8 -18.166 8 -29.499c0 -10 -1.5 -20.5 -4.5 -31.5l-9.5 -33.5
c-0.666992 -1.33301 -1.16699 -2.66602 -1.5 -3.99902s-0.5 -2.66602 -0.5 -3.99902c-4.66699 -12.667 -8.66699 -25 -12 -37s-5 -23 -5 -33c0 -12 3.66699 -21.667 11 -29s20.333 -11 39 -11h271v0z" />
    <glyph glyph-name="o" unicode="o" horiz-adv-x="498" 
d="M545 119l-13.0039 -44.998h-404c-36.667 0 -63 10.667 -79 32s-23.667 46.333 -23 75c0 9.33301 0.666992 18.666 2 27.999s3.33301 18.666 6 27.999c4.66699 16 10 31.5 16 46.5s16 27.833 30 38.5c9.33301 7.33301 19.833 12.833 31.5 16.5s24.834 5.5 39.501 5.5h269
l-13 -46h-269h-6c-2 0 -3.66699 -0.333008 -5 -1c-4 -0.666992 -7.83301 -1.5 -11.5 -2.5s-7.16699 -2.83301 -10.5 -5.5c-5.33301 -4.66699 -10 -11.5 -14 -20.5s-7.66699 -19.167 -11 -30.5c-1.33301 -5.33301 -2.66602 -11.333 -3.99902 -18s-2.33301 -13.667 -3 -21
v-4.5v-5.5c0 -18 4.33301 -34.167 13 -48.5s24.334 -21.5 47.001 -21.5c32 0 57.167 11.333 75.5 34s32.5 47.334 42.5 74.001c1.33301 5.33301 2.83301 10.5 4.5 15.5s3.16699 9.83301 4.5 14.5h46c-8 -26.667 -17.167 -51.334 -27.5 -74.001s-27.166 -44 -50.499 -64h317
v0z" />
    <glyph glyph-name="p" unicode="p" horiz-adv-x="575" 
d="M646 120l-13 -46.002h-420h-120l-51 -179h-46l133 463h46l-35 -120c6 6.66699 13.167 13.834 21.5 21.501s17.5 15.5 27.5 23.5c10.667 9.33301 22.167 18.333 34.5 27s24.833 16.334 37.5 23.001c12 6.66699 23.833 11.834 35.5 15.501s22.834 5.5 33.501 5.5
c2 0 4.83301 -0.166992 8.5 -0.5s7.5 -1.5 11.5 -3.5c5.33301 -2 10.5 -6 15.5 -12s7.5 -15.333 7.5 -28c0 -4.66699 -0.5 -9.83398 -1.5 -15.501s-2.5 -11.834 -4.5 -18.501c-1.33301 -4 -2.5 -8 -3.5 -12s-1.83301 -8.33301 -2.5 -13l-4 -16.5
c-1.33301 -5.66699 -3 -11.5 -5 -17.5c-4.66699 -17.333 -10.334 -34.666 -17.001 -51.999s-15.667 -32.333 -27 -45h338v0zM322 275.998c0 0.666992 0.166992 1.49902 0.5 2.49902s0.833008 2.16699 1.5 3.5c0 1.33301 0.166992 3 0.5 5s0.833008 4 1.5 6v2.5v2.5
c0 3.33301 -0.666992 6 -2 8s-3.66602 3 -6.99902 3c-10.667 0 -25 -5 -43 -15s-37 -22.667 -57 -38c-16 -13.333 -31.5 -27.666 -46.5 -42.999s-28.167 -31 -39.5 -47c-5.33301 -8 -10 -15.833 -14 -23.5s-7.33301 -15.167 -10 -22.5h119c22.667 0 40 9.33301 52 28
s21 39 27 61c3.33301 10.667 6.16602 21.167 8.49902 31.5l6.5 28.5c0.666992 1.33301 1.16699 2.5 1.5 3.5s0.5 2.16699 0.5 3.5v0z" />
    <glyph glyph-name="q" unicode="q" horiz-adv-x="606" 
d="M690 119l-13 -45.0029h-271c-35.333 0 -68.666 -12.333 -99.999 -37s-52 -54 -62 -88l-45 -1l67 232c-6 -6.66699 -13.167 -13.834 -21.5 -21.501s-17.5 -15.5 -27.5 -23.5c-10.667 -9.33301 -22.167 -18.166 -34.5 -26.499s-24.833 -16.166 -37.5 -23.499
c-12 -6 -23.833 -11 -35.5 -15s-22.834 -6 -33.501 -6c-2 0 -4.83301 0.166992 -8.5 0.5s-7.5 1.5 -11.5 3.5c-6 2.66699 -11.333 7 -16 13s-7 15.333 -7 28c0 4.66699 0.333008 9.83398 1 15.501s2 11.834 4 18.501c0.666992 3.33301 1.5 6.5 2.5 9.5
s1.83301 6.16699 2.5 9.5l6 21.5c2 7 4 14.5 6 22.5c10 34 24.5 65.5 43.5 94.5s50.5 43.5 94.5 43.5h165l-80 -280c19.333 16 41.333 29.167 66 39.5s49.667 15.5 75 15.5h271v0zM299 298.997l-119 0.000976562c-22.667 0 -40 -9.16699 -52 -27.5
s-21.333 -38.833 -28 -61.5c-3.33301 -11.333 -6.16602 -22.5 -8.49902 -33.5s-4.5 -20.5 -6.5 -28.5c0 -1.33301 -0.166992 -2.33301 -0.5 -3s-0.5 -1.33398 -0.5 -2.00098s-0.166992 -1.5 -0.5 -2.5s-0.833008 -2.16699 -1.5 -3.5c0 -1.33301 -0.166992 -3 -0.5 -5
s-0.833008 -4 -1.5 -6v-2.5v-2.5c0 -3.33301 0.666992 -6.16602 2 -8.49902s3.66602 -3.5 6.99902 -3.5c10.667 0 25 5 43 15s37 23 57 39c16 12.667 31.667 27 47 43s28.333 32 39 48c5.33301 8 10 15.667 14 23s7.33301 14.666 10 21.999v0z" />
    <glyph glyph-name="r" unicode="r" horiz-adv-x="554" 
d="M601 119l-12.999 -45.0029h-284c-28.667 0 -48.334 7.33301 -59.001 22s-16 32.334 -16 53.001c0 7.33301 0.5 15 1.5 23s2.5 16 4.5 24c2 8.66699 4.16699 17.334 6.5 26.001s4.83301 16.667 7.5 24l9.5 29.5l7.5 22.5h-119l-49 -170
c-4.66699 -14.667 -13.5 -27.334 -26.5 -38.001s-27.167 -16 -42.5 -16l13 45h1.5h0.5c2 0.666992 3.66699 1.83398 5 3.50098s2.33301 3.5 3 5.5l77 267h45l-14 -51h220l-13 -46h-56l-35 -122c-0.666992 -2.66699 -1.16699 -5.16699 -1.5 -7.5s-0.5 -4.83301 -0.5 -7.5
c0 -11.333 4 -21.166 12 -29.499s18.333 -12.5 31 -12.5h284v0z" />
    <glyph glyph-name="s" unicode="s" horiz-adv-x="548" 
d="M601 119l-12.9961 -44.9961h-213.5h-213.5l13 45h6h6h5h5c18 0 35 2.5 51 7.5s27.333 18.5 34 40.5c0 1.33301 0.166992 2.33301 0.5 3s0.5 1.66699 0.5 3v2.5v2.5c0 7.33301 -1.66699 15 -5 23s-7.33301 16 -12 24c-2 3.33301 -4.16699 6.66602 -6.5 9.99902
s-4.5 7 -6.5 11c-5.33301 7.33301 -10.333 14.666 -15 21.999s-8.33398 14.333 -11.001 21c-2.66699 -4 -5.5 -8 -8.5 -12l-8.5 -11c0 -0.666992 -0.166992 -1.16699 -0.5 -1.5l-1.5 -1.5l-66 -92.5l-30 -42.5c-15.333 -22.667 -30.333 -37.334 -45 -44.001s-27 -10 -37 -10
l13 45c4.66699 0 9 1.66699 13 5s7.66699 7 11 11c1.33301 2 2.83301 4 4.5 6s2.83398 3.66699 3.50098 5l192 269l37 -17l-34 -48c-0.666992 -2.66699 -1.33398 -5.16699 -2.00098 -7.5s-1 -4.83301 -1 -7.5c0 -6.66699 1.66699 -13.334 5 -20.001s6.66602 -13 9.99902 -19
c1.33301 -2 2.5 -3.83301 3.5 -5.5s2.16699 -3.5 3.5 -5.5l5.5 -9.5l5.5 -9.5c2 -2.66699 3.66699 -5.16699 5 -7.5s3 -4.83301 5 -7.5c5.33301 -9.33301 10.166 -19 14.499 -29s6.5 -20.667 6.5 -32c0 -3.33301 -0.333008 -7 -1 -11s-1.66699 -8 -3 -12
c-2.66699 -8.66699 -6.33398 -17 -11.001 -25s-10 -15.667 -16 -23h302v0z" />
    <glyph glyph-name="t" unicode="t" horiz-adv-x="374" 
d="M434 119l-13 -44.998h-280c-28.667 0 -48.334 7.16699 -59.001 21.5s-16 31.833 -16 52.5c0 7.33301 0.666992 15 2 23l4 24c2 8.66699 4.16699 17.167 6.5 25.5s4.83301 16.5 7.5 24.5l9.5 29l7.5 24h-82l13 46h82l41 143h46l-41 -143h83l-13 -46h-83l-35 -122
c-0.666992 -2.66699 -1.16699 -5.33398 -1.5 -8.00098s-0.5 -5.33398 -0.5 -8.00098c0 -11.333 3.83301 -21 11.5 -29s17.834 -12 30.501 -12h280v0z" />
    <glyph glyph-name="u" unicode="u" horiz-adv-x="559" 
d="M610 119l-13.001 -44.9961h-296c-20 0 -33.667 5.16699 -41 15.5s-11 22.833 -11 37.5c0 6 0.5 12.333 1.5 19s2.16699 13.667 3.5 21c1.33301 6 3 12.167 5 18.5s4 12.166 6 17.499l7.5 23.5c2.33301 7 4.16602 12.833 5.49902 17.5l-8.5 -10.5
c-3 -3.66699 -5.83301 -7.5 -8.5 -11.5l-44.5 -53.5c-15 -17.667 -30.833 -34.5 -47.5 -50.5c-4.66699 -4.66699 -9.66699 -9.16699 -15 -13.5s-10.333 -8.16602 -15 -11.499c-10.667 -6.66699 -21 -11.667 -31 -15s-19.667 -5 -29 -5
c-3.33301 0 -6.66602 0.333008 -9.99902 1l-10 2c-9.33301 4 -16.666 10 -21.999 18s-8 17.333 -8 28v5.5c0 1.66699 0.333008 3.16699 1 4.5c0 1.33301 0.166992 2.83301 0.5 4.5s0.833008 3.5 1.5 5.5l58 202h45l-58 -202c0 -0.666992 -0.166992 -1.33398 -0.5 -2.00098
l-0.5 -1v-2v-2c0 -3.33301 0.833008 -6.33301 2.5 -9s4.16699 -4.66699 7.5 -6c1.33301 -0.666992 2.5 -1 3.5 -1h3.5c5.33301 0 12 2 20 6s17.333 10.667 28 20c10 10 20.833 21.5 32.5 34.5s23.167 26.5 34.5 40.5l18 22c6 7.33301 11.667 14.666 17 21.999l31 41.5
c10 13.667 19 26.5 27 38.5h51l-57 -198c0 -0.666992 -0.166992 -1.33398 -0.5 -2.00098s-0.5 -1.33398 -0.5 -2.00098v-2v-2c0 -4.66699 1.83301 -9 5.5 -13s8.5 -6 14.5 -6h296v0z" />
    <glyph glyph-name="v" unicode="v" horiz-adv-x="523" 
d="M587 120l-13 -46.001h-546l63 220l-0.5 1l-0.5 1c-0.666992 0.666992 -1.16699 1.33398 -1.5 2.00098s-0.833008 1 -1.5 1h-54l13 45h55c11.333 0 20.333 -3.66699 27 -11s10 -16.333 10 -27c0 -2 -0.166992 -4 -0.5 -6s-0.833008 -4 -1.5 -6l-49 -173
c58.667 6 107.167 31.167 145.5 75.5s65.166 92.833 80.499 145.5h45c-12.667 -44.667 -32.167 -86.5 -58.5 -125.5s-59.166 -71.167 -98.499 -96.5h386v0z" />
    <glyph glyph-name="w" unicode="w" horiz-adv-x="694" 
d="M758 119l-12.9961 -45h-148h-121h-122h-148l25 87c-26.667 -29.333 -55.834 -51.166 -87.501 -65.499s-67.5 -21.5 -107.5 -21.5l63 220v0.5v1.5c0 0.666992 -0.166992 1.16699 -0.5 1.5l-0.5 0.5h-42l13 46h45c11.333 0 19.666 -4 24.999 -12s8 -16.667 8 -26
c0 -2 -0.166992 -4 -0.5 -6s-0.833008 -4 -1.5 -6l-50 -173c38 6.66699 70.5 25.334 97.5 56.001s48.5 63.667 64.5 99c5.33301 11.333 10.166 22.666 14.499 33.999s8.16602 22.333 11.499 33h45l-63 -222c37.333 6.66699 69.5 25.167 96.5 55.5s48.833 63.166 65.5 98.499
c5.33301 11.333 10 22.5 14 33.5s7.66699 21.833 11 32.5h45c-0.666992 -3.33301 -1.66699 -6.83301 -3 -10.5s-2.33301 -7.16699 -3 -10.5c-12.667 -38 -30.167 -75 -52.5 -111s-49.833 -66 -82.5 -90h402v0z" />
    <glyph glyph-name="x" unicode="x" horiz-adv-x="516" 
d="M576 119l-13.001 -45h-269c-17.333 0 -32.666 4.33301 -45.999 13s-23.666 21 -30.999 37l-6.5 16.5c-4.33301 11 -9.83301 24.167 -16.5 39.5l-45 -41l-18 -16c-12.667 -11.333 -24.5 -20.5 -35.5 -27.5s-21.833 -12.167 -32.5 -15.5c-6 -2 -12 -3.5 -18 -4.5
s-12 -1.5 -18 -1.5l13 45c8 0 16.833 2.5 26.5 7.5s19.834 11.167 30.501 18.5c5.33301 4 10.666 8.33301 15.999 13l16 14l27.5 26.5c8.33301 8.33301 15.166 14.833 20.499 19.5l-30 72c0 0.666992 -0.166992 1.33398 -0.5 2.00098s-0.833008 1.33398 -1.5 2.00098
c-0.666992 1.33301 -1.33398 2.33301 -2.00098 3l-1 1h-94l13 46h94c9.33301 0 17 -2.66699 23 -8s10.667 -12 14 -20l8 -18c5.33301 -12 11.333 -26.333 18 -43l98 89h58l-45.5 -41.5l-72.5 -65.5l-2 -2l-2 -2c-3.33301 -2.66699 -6.5 -5.33398 -9.5 -8.00098
s-5.83301 -5.33398 -8.5 -8.00098l19.5 -46.5l8.5 -19.5c4.66699 -10.667 10.834 -18.667 18.501 -24s16.5 -8 26.5 -8h269v0z" />
    <glyph glyph-name="y" unicode="y" horiz-adv-x="570" 
d="M620 119l-12.9961 -44.9961h-312h-6.5c-2.33301 0 -4.5 -0.333008 -6.5 -1c-2 0 -4.16699 -0.166992 -6.5 -0.5s-4.5 -0.5 -6.5 -0.5c-2.66699 -8.66699 -5.5 -20.334 -8.5 -35.001s-6.83301 -29.667 -11.5 -45c-6.66699 -23.333 -16.167 -45 -28.5 -65
s-29.5 -30 -51.5 -30l-128 -1c14 49.333 37 92.666 69 129.999s73.333 64.333 124 81l36 126c-17.333 -22.667 -35.833 -43.834 -55.5 -63.501s-40.5 -38.5 -62.5 -56.5c-16.667 -14.667 -31.334 -24.334 -44.001 -29.001s-23.334 -7 -32.001 -7
c-4.66699 0 -8.66699 0.5 -12 1.5s-6.33301 1.83301 -9 2.5c-8 3.33301 -14.167 9 -18.5 17s-6.5 17 -6.5 27c0 3.33301 0.333008 6.83301 1 10.5l2 11.5l56 197h45l-56 -197c0 -0.666992 -0.166992 -1.5 -0.5 -2.5s-0.5 -2.16699 -0.5 -3.5v-1.5v-1.5
c0 -2.66699 0.5 -5.5 1.5 -8.5s2.83301 -5.16699 5.5 -6.5c4 -1.33301 9.83301 -0.333008 17.5 3s16.5 9.33301 26.5 18c18 14.667 34.167 29 48.5 43s27.166 28 38.499 42c15.333 18 29.166 36 41.499 54s24.5 36.667 36.5 56c0.666992 0.666992 1.16699 1.5 1.5 2.5
s0.833008 1.83301 1.5 2.5h51l-65 -226c2 0 4.16699 0.166992 6.5 0.5s4.5 0.5 6.5 0.5h6.5h6.5h312v0zM219.004 57.0039c-25.333 -10.667 -48.501 -26.168 -69.501 -46.501s-37.167 -43.166 -48.5 -68.499l81 -1c2 0.666992 4.5 4.66699 7.5 12s5.83301 16 8.5 26
c1.33301 3.33301 2.5 6.83301 3.5 10.5s2.16699 7.16699 3.5 10.5l9 35.5c2.66699 11 4.33398 18.167 5.00098 21.5v0z" />
    <glyph glyph-name="z" unicode="z" horiz-adv-x="450" 
d="M499 119l-13 -44.999h-417h-4h-4c-8.66699 1.33301 -16.5 4.16602 -23.5 8.49902s-11.5 10.833 -13.5 19.5v1.5v1.5c-0.666992 0.666992 -1 1.33398 -1 2.00098v2c0 5.33301 1.83301 12.166 5.5 20.499s10.834 17.5 21.501 27.5l153 141h-147l13 46h241l-232 -215
c-3.33301 -2.66699 -4.83301 -5 -4.5 -7s2.16602 -3 5.49902 -3h1.5h1.5h417v0z" />
    <glyph glyph-name="braceleft" unicode="{" horiz-adv-x="204" 
d="M65 -172l-16.9951 -0.000976562c-22.667 0.666992 -38.667 5.33398 -48 14.001s-14 22 -14 40c0 16 3 36 9 60s13.667 52 23 84l31 107c2 6 3.83301 12.167 5.5 18.5s3.16699 12.833 4.5 19.5l4 26c1.33301 8.66699 2 16.667 2 24c0 13.333 -2.33301 24.5 -7 33.5
s-13.334 13.5 -26.001 13.5l19 64c18.667 0 34.667 9.83301 48 29.5s24.666 41.5 33.999 65.5c2 6.66699 4.16699 13.5 6.5 20.5l6.5 19.5l30 107l13.5 46.5c4.33301 14.333 8.83301 27.833 13.5 40.5c12.667 38 27.167 66 43.5 84s41.166 27 74.499 27h17l-11 -35
c-18 0 -33 -5.33301 -45 -16s-20.667 -25.334 -26 -44.001l-40 -141l-13 -44.5c-4 -14.333 -8 -27.833 -12 -40.5c-13.333 -40.667 -27.333 -74.167 -42 -100.5s-34.334 -43.166 -59.001 -50.499c9.33301 -2.66699 15.666 -9 18.999 -19s5 -22.667 5 -38
c0 -22.667 -3.33301 -49.334 -10 -80.001s-14.667 -62.334 -24 -95.001c-1.33301 -6 -2.83301 -12 -4.5 -18s-3.5 -12 -5.5 -18c-2 -6.66699 -3.83301 -13.167 -5.5 -19.5s-3.5 -12.166 -5.5 -17.499l-20 -72c-1.33301 -4 -2.33301 -8 -3 -12s-1 -7.66699 -1 -11
c0 -11.333 3.5 -20.166 10.5 -26.499s17.167 -9.5 30.5 -9.5l-11 -36v0z" />
    <glyph glyph-name="bar" unicode="|" horiz-adv-x="130" 
d="M95 -171h-50v943h50v-943v0z" />
    <glyph glyph-name="braceright" unicode="}" horiz-adv-x="266" 
d="M227 268c-18.667 0 -34.832 -9.83008 -48.499 -29.4971s-24.834 -41.5 -33.501 -65.5c-2.66699 -6.66699 -5 -13.5 -7 -20.5s-4 -13.5 -6 -19.5l-31 -107l-13 -44.5c-4 -13.667 -8 -26.5 -12 -38.5c-13.333 -38.667 -28.166 -67.334 -44.499 -86.001
s-40.833 -28 -73.5 -28l-18 -1l10 35c18.667 0.666992 34 6.33398 46 17.001s20.667 25.334 26 44.001l20 70l10 35c3.33301 12 7 23.667 11 35c16 55.333 34.167 106.5 54.5 153.5s43.5 74.5 69.5 82.5c-10.667 4 -18.334 10.667 -23.001 20s-6.66699 21 -6 35
c0 21.333 4 47.166 12 77.499l28 103.5l41 141c1.33301 4.66699 2.33301 9 3 13s1 7.66699 1 11c0 11.333 -3.5 20.166 -10.5 26.499s-17.167 9.5 -30.5 9.5l11 35h17c23.333 0 39.666 -4.33301 48.999 -13s14 -22 14 -40c-0.666992 -16 -4.16699 -36 -10.5 -60l-23.5 -85
l-30 -107c-2 -6.66699 -3.83301 -13.334 -5.5 -20.001s-3.16699 -13.334 -4.5 -20.001c-2 -8.66699 -3.5 -17 -4.5 -25s-1.5 -15.667 -1.5 -23c0 -13.333 2.33301 -24.5 7 -33.5s13.334 -13.5 26.001 -13.5l-19 -64v0z" />
    <glyph glyph-name="asciitilde" unicode="~" horiz-adv-x="485" 
d="M485 321c-24 -29.333 -48.666 -49.8311 -73.999 -61.498s-52.666 -17.5 -81.999 -17.5c-19.333 0 -36.333 3.66699 -51 11s-28.334 15.333 -41.001 24c-2.66699 1.33301 -5.16699 2.66602 -7.5 3.99902s-4.5 3 -6.5 5c-10.667 6.66699 -21.334 12.5 -32.001 17.5
s-22.667 7.5 -36 7.5c-16.667 0 -33.167 -3.5 -49.5 -10.5s-32.166 -20.167 -47.499 -39.5l-55 48c22.667 28 46.667 47.5 72 58.5s52.333 16.5 81 16.5c20 0 37.167 -3.5 51.5 -10.5s28.166 -14.5 41.499 -22.5c2 -2 4.16699 -3.66699 6.5 -5s4.83301 -3 7.5 -5
c10 -6.66699 20.333 -12.334 31 -17.001s22.667 -7 36 -7c12.667 0 25 1.83301 37 5.5s24 10.5 36 20.5c4 3.33301 8 7 12 11s8 8.33301 12 13l58 -46v0z" />
    <glyph glyph-name="exclamdown" unicode="&#xa1;" horiz-adv-x="204" 
d="M3 -106l107 371l44 -12l-103 -359h-48v0zM119 357c0 10.667 3.83301 19.667 11.5 27s16.834 11 27.501 11s19.834 -3.66699 27.501 -11s11.5 -16.333 11.5 -27s-3.83301 -19.834 -11.5 -27.501s-16.834 -11.5 -27.501 -11.5s-19.834 3.83301 -27.501 11.5
s-11.5 16.834 -11.5 27.501v0z" />
    <glyph glyph-name="cent" unicode="&#xa2;" horiz-adv-x="384" 
d="M327 746l-76.999 -271.001h33c14 0 23.667 -3.5 29 -10.5s7.66602 -15.5 6.99902 -25.5c0 -4 -0.333008 -8.16699 -1 -12.5s-1.66699 -8.83301 -3 -13.5c-0.666992 -3.33301 -1.5 -6.66602 -2.5 -9.99902s-1.83301 -6.66602 -2.5 -9.99902
c-1.33301 -4.66699 -2.83301 -9.33398 -4.5 -14.001s-2.83398 -8.66699 -3.50098 -12h-45c0 0.666992 0.833008 3.33398 2.5 8.00098l5.5 16c0.666992 1.33301 1.16699 2.66602 1.5 3.99902s0.833008 2.66602 1.5 3.99902c1.33301 4.66699 2.5 9.33398 3.5 14.001
s1.5 8.66699 1.5 12c0 1.33301 -0.166992 2.5 -0.5 3.5s-1.16602 1.5 -2.49902 1.5h-34l-51 -179h2.5h2.5h2.5h2.5h78l-13 -46h-78h-2.5c-1 0 -1.83301 0.333008 -2.5 1h-2.5h-2.5l-108 -380h-47l111 387c-20 7.33301 -34 18.833 -42 34.5s-12 33.167 -12 52.5
c0 9.33301 0.833008 19 2.5 29s3.5 20 5.5 30s4.5 20 7.5 30s6.16699 19.667 9.5 29l9.5 30.5l8.5 26.5h86l78 271h46v0zM190.001 429.999l-40 -0.000976562c-1.33301 -5.33301 -3 -11 -5 -17s-4.33301 -12.333 -7 -19c-1.33301 -5.33301 -2.83301 -10.833 -4.5 -16.5
s-3.5 -11.5 -5.5 -17.5c-2 -8 -3.66699 -16.167 -5 -24.5s-2 -16.166 -2 -23.499c0 -10 1.66699 -19.333 5 -28s9 -15.667 17 -21l47 167v0z" />
    <glyph glyph-name="sterling" unicode="&#xa3;" horiz-adv-x="644" 
d="M611 74l-582.003 0.00292969v45h79h6.5c2.33301 0 4.83301 0.333008 7.5 1c28.667 4 55.834 17.333 81.501 40s44.834 47.334 57.501 74.001l4 11.5l4 11.5l4 12c2.66699 8 5.33398 17.333 8.00098 28h-113v45h125c1.33301 2.66699 2.16602 5.16699 2.49902 7.5
s0.833008 4.83301 1.5 7.5c14.667 52.667 33.5 94.667 56.5 126s46.5 54.333 70.5 69c12.667 7.33301 25 12.666 37 15.999s23.667 5 35 5c20 0 39.333 -1.5 58 -4.5s33.667 -12.167 45 -27.5c5.33301 -6.66699 9.16602 -14.334 11.499 -23.001s3.5 -18.667 3.5 -30
c0 -8.66699 -0.833008 -18.334 -2.5 -29.001s-4.16699 -22.334 -7.5 -35.001l-14 -50l-44 13l14 49c3.33301 11.333 5.66602 21.333 6.99902 30s2 16 2 22c0 6.66699 -0.666992 12 -2 16s-2.66602 7 -3.99902 9c-4.66699 6 -12.667 10 -24 12s-25.666 3 -42.999 3
c-30 0 -55.667 -11.833 -77 -35.5s-38.666 -49.5 -51.999 -77.5c-6 -13.333 -11.333 -26.333 -16 -39s-8.33398 -24 -11.001 -34h112v-45h-124l-15 -52c-0.666992 -2.66699 -1.5 -5.66699 -2.5 -9s-2.16699 -6.33301 -3.5 -9c-7.33301 -19.333 -18.166 -38.5 -32.499 -57.5
s-30.833 -35.833 -49.5 -50.5h386v-45v0z" />
    <glyph glyph-name="currency" unicode="&#xa4;" horiz-adv-x="454" 
d="M433 428l-36.9951 -26.002c-8 11.333 -18.167 20.333 -30.5 27s-25.5 11.334 -39.5 14.001c-1.33301 0 -2.83301 0.166992 -4.5 0.5s-3.16699 0.5 -4.5 0.5h-5.5h-4.5c-8.66699 0 -17.334 -0.666992 -26.001 -2s-17.334 -3.33301 -26.001 -6
c-12.667 -4 -25.5 -9.16699 -38.5 -15.5s-25.5 -14.166 -37.5 -23.499c-9.33301 -7.33301 -18.166 -15.333 -26.499 -24s-15.833 -17.667 -22.5 -27h226v-46h-250c-1.33301 -2.66699 -2.5 -5.66699 -3.5 -9s-2.16699 -6.66602 -3.5 -9.99902h238v-45h-243
c0.666992 -10.667 2.5 -20.834 5.5 -30.501s7.5 -18.5 13.5 -26.5c7.33301 -10.667 17 -19.667 29 -27s25.667 -12 41 -14c3.33301 -0.666992 6.83301 -1.16699 10.5 -1.5s7.5 -0.5 11.5 -0.5c7.33301 0 14.833 0.666992 22.5 2s15.5 3 23.5 5
c13.333 4 26.666 9.33301 39.999 16s26 14.667 38 24l28 -35c-21.333 -16.667 -45.333 -30.334 -72 -41.001s-54 -16 -82 -16c-4.66699 0 -9.16699 0.166992 -13.5 0.5s-8.83301 0.833008 -13.5 1.5c-20.667 3.33301 -39.667 10 -57 20s-31.666 23 -42.999 39
c-8.66699 12.667 -15.334 26 -20.001 40s-7.33398 28.667 -8.00098 44h-27v45h31c2 8.66699 3.66699 14.167 5 16.5s0.333008 3.5 -3 3.5h-2h-3c-1.33301 -0.666992 -2.83301 -1 -4.5 -1h-5.5v46h37c9.33301 16.667 20.5 32.334 33.5 47.001s27.167 28 42.5 40
c17.333 13.333 35.666 24.5 54.999 33.5s39 15.167 59 18.5c6.66699 1.33301 13.167 2.33301 19.5 3s12.833 1 19.5 1h6.5c2.33301 0 4.83301 -0.333008 7.5 -1c2.66699 0 5.16699 -0.166992 7.5 -0.5s4.5 -0.5 6.5 -0.5c21.333 -2.66699 40.666 -9.16699 57.999 -19.5
s31.333 -23.5 42 -39.5v0z" />
    <glyph glyph-name="currency" unicode="&#x20ac;" horiz-adv-x="454" 
d="M433 428l-36.9951 -26.002c-8 11.333 -18.167 20.333 -30.5 27s-25.5 11.334 -39.5 14.001c-1.33301 0 -2.83301 0.166992 -4.5 0.5s-3.16699 0.5 -4.5 0.5h-5.5h-4.5c-8.66699 0 -17.334 -0.666992 -26.001 -2s-17.334 -3.33301 -26.001 -6
c-12.667 -4 -25.5 -9.16699 -38.5 -15.5s-25.5 -14.166 -37.5 -23.499c-9.33301 -7.33301 -18.166 -15.333 -26.499 -24s-15.833 -17.667 -22.5 -27h226v-46h-250c-1.33301 -2.66699 -2.5 -5.66699 -3.5 -9s-2.16699 -6.66602 -3.5 -9.99902h238v-45h-243
c0.666992 -10.667 2.5 -20.834 5.5 -30.501s7.5 -18.5 13.5 -26.5c7.33301 -10.667 17 -19.667 29 -27s25.667 -12 41 -14c3.33301 -0.666992 6.83301 -1.16699 10.5 -1.5s7.5 -0.5 11.5 -0.5c7.33301 0 14.833 0.666992 22.5 2s15.5 3 23.5 5
c13.333 4 26.666 9.33301 39.999 16s26 14.667 38 24l28 -35c-21.333 -16.667 -45.333 -30.334 -72 -41.001s-54 -16 -82 -16c-4.66699 0 -9.16699 0.166992 -13.5 0.5s-8.83301 0.833008 -13.5 1.5c-20.667 3.33301 -39.667 10 -57 20s-31.666 23 -42.999 39
c-8.66699 12.667 -15.334 26 -20.001 40s-7.33398 28.667 -8.00098 44h-27v45h31c2 8.66699 3.66699 14.167 5 16.5s0.333008 3.5 -3 3.5h-2h-3c-1.33301 -0.666992 -2.83301 -1 -4.5 -1h-5.5v46h37c9.33301 16.667 20.5 32.334 33.5 47.001s27.167 28 42.5 40
c17.333 13.333 35.666 24.5 54.999 33.5s39 15.167 59 18.5c6.66699 1.33301 13.167 2.33301 19.5 3s12.833 1 19.5 1h6.5c2.33301 0 4.83301 -0.333008 7.5 -1c2.66699 0 5.16699 -0.166992 7.5 -0.5s4.5 -0.5 6.5 -0.5c21.333 -2.66699 40.666 -9.16699 57.999 -19.5
s31.333 -23.5 42 -39.5v0z" />
    <glyph glyph-name="yen" unicode="&#xa5;" horiz-adv-x="488" 
d="M466 300l-24.0029 -46.001h-91c-4 0 -8.16699 -0.166992 -12.5 -0.5s-8.83301 -0.833008 -13.5 -1.5c-0.666992 -2.66699 -1.16699 -5.5 -1.5 -8.5s-1.16602 -6.16699 -2.49902 -9.5h119l-26 -46h-104c-0.666992 -3.33301 -1.5 -6.5 -2.5 -9.5
s-1.83301 -6.16699 -2.5 -9.5c-6.66699 -23.333 -16.167 -44.666 -28.5 -63.999s-29.166 -29 -50.499 -29h-129c6 21.333 13.5 41.333 22.5 60s19.833 36 32.5 52h-130l26 46h147c13.333 11.333 27.833 21.5 43.5 30.5s32.834 16.5 51.501 22.5l36 126
c-16.667 -22 -35 -43 -55 -63s-40.667 -39 -62 -57c-16 -13.333 -30.167 -22.5 -42.5 -27.5s-22.833 -7.83301 -31.5 -8.5h-1h-2h-3h-94l26 46h25c0 3.33301 0.333008 7.16602 1 11.499l2 13.5l57 196h45l-56 -196c-0.666992 -1.33301 -1 -3 -1 -5v-6
c0 -2.66699 0.333008 -5.33398 1 -8.00098s2.33398 -4.66699 5.00098 -6h0.5h1.5c0.666992 -0.666992 1.16699 -1 1.5 -1h0.5c4.66699 0.666992 10.5 2.83398 17.5 6.50098s14.5 8.83398 22.5 15.501c18 14.667 34.167 29 48.5 43s27.5 28 39.5 42
c15.333 18 29.166 36 41.499 54s24.5 36.667 36.5 56c0.666992 0.666992 1.16699 1.5 1.5 2.5s0.833008 1.83301 1.5 2.5h50l-64 -226c2 0 4 0.166992 6 0.5s4.33301 0.5 7 0.5c2 0.666992 4 1 6 1h6h102v0zM275.997 236.999c-25.333 -10.667 -48.5 -26.166 -69.5 -46.499
s-37.167 -43.5 -48.5 -69.5h81c2 0 4.5 4.16699 7.5 12.5s6.16699 18.166 9.5 29.499c0.666992 2.66699 1.5 5.5 2.5 8.5s1.83301 5.83301 2.5 8.5l9 35.5c2.66699 11 4.66699 18.167 6 21.5v0z" />
    <glyph glyph-name="brokenbar" unicode="&#xa6;" horiz-adv-x="500" 
 />
    <glyph glyph-name="section" unicode="&#xa7;" horiz-adv-x="418" 
d="M403 206c0 -62 -21.165 -112.501 -63.498 -151.501s-90.5 -58.5 -144.5 -58.5c-36.667 0 -66.167 3.66699 -88.5 11s-41.166 15.333 -56.499 24l55 106c1.33301 -0.666992 2.66602 -1.5 3.99902 -2.5s2.66602 -1.83301 3.99902 -2.5
c6.66699 -4.66699 14 -7.83398 22 -9.50098s17.333 -2.5 28 -2.5c12 0 22.5 5.33301 31.5 16s14.167 22.334 15.5 35.001v2.5v2.5c0 3.33301 -0.166992 6.5 -0.5 9.5s-0.5 5.83301 -0.5 8.5c-2.66699 18 -10.334 37.333 -23.001 58s-34.334 47.667 -65.001 81l-21.5 24
l-19.5 23c-20.667 25.333 -36.667 52 -48 80s-17 63.333 -17 106c0 62 21.167 112.667 63.5 152s90.5 59 144.5 59c36.667 0 66.167 -3.66699 88.5 -11s41.166 -15.666 56.499 -24.999l-55 -106c-1.33301 1.33301 -2.66602 2.33301 -3.99902 3l-4 2
c-6.66699 4.66699 -13.834 7.83398 -21.501 9.50098s-17.167 2.5 -28.5 2.5c-12 0 -22.5 -5.33301 -31.5 -16s-14.167 -22.334 -15.5 -35.001v-2.5v-2.5c0 -3.33301 0.166992 -6.5 0.5 -9.5s0.5 -5.83301 0.5 -8.5c2.66699 -18 10.334 -37.333 23.001 -58
s34.334 -47.667 65.001 -81l21.5 -24l19.5 -23c20.667 -25.333 36.667 -52 48 -80s17 -63.333 17 -106v0zM318.002 205.999c0 17.333 -1.33301 33 -4 47s-7.33398 27.667 -14.001 41c-6 12.667 -14.5 26 -25.5 40s-24.5 29.667 -40.5 47
c-5.33301 5.33301 -10.5 10.833 -15.5 16.5s-9.83301 11.5 -14.5 17.5c-23.333 26.667 -42.666 54.334 -57.999 83.001s-23 61.334 -23 98.001c0 5.33301 0.333008 11.166 1 17.499s2 12.5 4 18.5c1.33301 5.33301 3 10.666 5 15.999s4.66699 10.333 8 15
c-14 -14.667 -24.167 -29.667 -30.5 -45s-9.5 -31.666 -9.5 -48.999s1.33301 -33 4 -47s7.33398 -27.333 14.001 -40c6 -13.333 14.5 -27 25.5 -41s24.5 -29.667 40.5 -47c5.33301 -5.33301 10.5 -10.833 15.5 -16.5s9.83301 -11.5 14.5 -17.5
c23.333 -26.667 42.666 -54.334 57.999 -83.001s23 -61.334 23 -98.001c0 -5.33301 -0.333008 -11.166 -1 -17.499s-2 -12.5 -4 -18.5c-1.33301 -5.33301 -3 -10.666 -5 -15.999s-4.66699 -10.333 -8 -15c14 14.667 24.167 29.667 30.5 45s9.5 31.666 9.5 48.999v0z" />
    <glyph glyph-name="dieresis" unicode="&#xa8;" horiz-adv-x="426" 
d="M209 692l-20 -70h-56l20 70h56v0zM313 692l-20 -70h-56l20 70h56v0z" />
    <glyph glyph-name="copyright" unicode="&#xa9;" horiz-adv-x="806" 
d="M770 364c0 -100 -36.167 -185.833 -108.5 -257.5s-158.5 -107.5 -258.5 -107.5c-100.667 0 -186.834 35.667 -258.501 107s-107.5 157.333 -107.5 258s35.833 187 107.5 259s157.834 108 258.501 108c100 0 186.167 -36.167 258.5 -108.5s108.5 -158.5 108.5 -258.5v0z
M701 364c0 81.333 -29.333 151.5 -88 210.5s-128.667 88.5 -210 88.5c-82 0 -152.167 -29.333 -210.5 -88s-87.5 -129 -87.5 -211c0 -82.667 29.167 -153 87.5 -211s128.5 -87 210.5 -87s152.167 29.333 210.5 88s87.5 128.667 87.5 210v0zM582 283
c-9.33301 -39.333 -29.834 -71.168 -61.501 -95.501s-68.167 -36.5 -109.5 -36.5c-64 0 -113.333 18.667 -148 56s-52 87.333 -52 150c0 64 16.833 114.833 50.5 152.5s83.167 56.5 148.5 56.5c38.667 0 72.834 -9.66699 102.501 -29s50.167 -47.666 61.5 -84.999l-58 -15
c-12 24 -26.5 42.5 -43.5 55.5s-40.167 19.5 -69.5 19.5c-44 0 -76 -15.333 -96 -46s-30 -66.334 -30 -107.001c0 -42.667 9.66699 -78.5 29 -107.5s52.333 -43.5 99 -43.5c27.333 0 52.333 8.83301 75 26.5s36.667 39.834 42 66.501l60 -18v0z" />
    <glyph glyph-name="ordfeminine" unicode="&#xaa;" horiz-adv-x="315" 
d="M302 363h-272v30h272v-30v0zM301 449l-8.00098 -30.999h-99c-14 0 -23.5 3.33301 -28.5 10s-7.16699 15 -6.5 25c0 3.33301 0.333008 7 1 11s1.33398 7.66699 2.00098 11s1.5 6.66602 2.5 9.99902s1.83301 6.33301 2.5 9l4 12c1.33301 4 2.33301 7.33301 3 10l-8.5 -8.5
l-9.5 -9.5l-36.5 -36.5l-16.5 -16.5c-11.333 -10.667 -21.5 -17.834 -30.5 -21.501s-16.5 -5.5 -22.5 -5.5c-2.66699 0 -5.16699 0.166992 -7.5 0.5s-4.16602 0.833008 -5.49902 1.5c-7.33301 2.66699 -13.166 7.33398 -17.499 14.001s-6.5 14 -6.5 22
c0 1.33301 0.166992 3 0.5 5s0.833008 4 1.5 6c0.666992 1.33301 1.16699 2.83301 1.5 4.5s0.5 3.16699 0.5 4.5c2 6.66699 3.83301 14 5.5 22s3.5 16 5.5 24c5.33301 19.333 13.166 37 23.499 53s26.166 24 47.499 24h129l-38 -132v-1.5v-0.5v-1.5v-1.5
c0 -3.33301 1.16699 -6.33301 3.5 -9s5.5 -4 9.5 -4h98v0zM189.999 569.001l-99.999 -0.99707c-4 0 -7.83301 -0.833008 -11.5 -2.5s-6.16699 -4.83398 -7.5 -9.50098l-25 -89v-0.5v-1.5c-0.666992 -0.666992 -1 -1.16699 -1 -1.5v-0.5
c0.666992 -2.66699 1.66699 -5.33398 3 -8.00098s3.33301 -4.66699 6 -6h1.5h1.5c0 -0.666992 0.166992 -1 0.5 -1h1.5c1.33301 0 2.66602 0.333008 3.99902 1l4 2c2.66699 1.33301 5.5 3.16602 8.5 5.49902s5.5 4.5 7.5 6.5l107 106v0z" />
    <glyph glyph-name="guillemotleft" unicode="&#xab;" horiz-adv-x="280" 
d="M158 197l-173 177l173 170v-101l-72 -71l72 -73v-102v0zM318 197l-172 177l172 170v-101l-72 -71l72 -73v-102v0z" />
    <glyph glyph-name="logicalnot" unicode="&#xac;" horiz-adv-x="400" 
d="M387 236h-46v116h-331v46h375v-4h2v-158v0z" />
    <glyph glyph-name="sfthyphen" unicode="&#xad;" horiz-adv-x="500" 
 />
    <glyph glyph-name="registered" unicode="&#xae;" horiz-adv-x="348" 
d="M16 573c0 43.333 15.667 80.5 47 111.5s68.333 46.5 111 46.5s79.667 -15.833 111 -47.5s47 -68.5 47 -110.5c0 -43.333 -15.5 -80.5 -46.5 -111.5s-68.167 -46.5 -111.5 -46.5s-80.5 15.333 -111.5 46s-46.5 68 -46.5 112v0zM39 573
c0 -38 13.1709 -70.002 39.5039 -96.002s58.166 -39 95.499 -39s69.166 13.333 95.499 40s39.5 58.334 39.5 95.001c0 36 -13.333 67.5 -40 94.5s-58.334 40.5 -95.001 40.5s-68.334 -13.167 -95.001 -39.5s-40 -58.166 -40 -95.499v0zM115.004 488.998l-0.00195312 175.998
h61c4 0 8 -0.166992 12 -0.5s8 -0.833008 12 -1.5c12.667 -2.66699 24.334 -7.66699 35.001 -15s16 -17.666 16 -30.999c0 -12.667 -3.66699 -23.167 -11 -31.5s-16.666 -14.166 -27.999 -17.499l39 -79h-34l-37 73h-33v-73h-32v0zM170.002 641.996l-23 -0.000976562v-56h34
c8.66699 0 16 2.33301 22 7s9 11.334 9 20.001c0 7.33301 -3 13.333 -9 18s-12.667 7.66699 -20 9c-2 0.666992 -4.16699 1.16699 -6.5 1.5s-4.5 0.5 -6.5 0.5v0z" />
    <glyph glyph-name="overstore" unicode="&#xaf;" 
 />
    <glyph glyph-name="degree" unicode="&#xb0;" horiz-adv-x="250" 
d="M234 643c0 -29.333 -10.499 -54.5 -31.499 -75.5s-46.167 -31.5 -75.5 -31.5c-30 0 -55.5 10.5 -76.5 31.5s-31.5 46.167 -31.5 75.5s10.667 54.5 32 75.5s46.666 31.5 75.999 31.5c28.667 0 53.667 -10.5 75 -31.5s32 -46.167 32 -75.5v0zM193.001 643
c0 18 -6.5 33.667 -19.5 47s-28.5 20 -46.5 20c-18.667 0 -34.5 -6.5 -47.5 -19.5s-19.5 -28.833 -19.5 -47.5s6.5 -34.5 19.5 -47.5s28.833 -19.5 47.5 -19.5c18 0 33.5 6.5 46.5 19.5s19.5 28.833 19.5 47.5v0z" />
    <glyph glyph-name="plusminus" unicode="&#xb1;" horiz-adv-x="400" 
d="M400 67h-405v76h405v-76v0zM400 337h-165v-164h-76v164h-164v76h164v165h76v-165h165v-76v0z" />
    <glyph glyph-name="twosuperior" unicode="&#xb2;" horiz-adv-x="500" 
 />
    <glyph glyph-name="threesuperior" unicode="&#xb3;" horiz-adv-x="500" 
 />
    <glyph glyph-name="acute" unicode="&#xb4;" horiz-adv-x="362" 
d="M298 713l-164 -120l-40 9l144 134l60 -23v0z" />
    <glyph glyph-name="mu" unicode="&#xb5;" horiz-adv-x="413" 
d="M411 501l-58.001 -279.001c-0.666992 -2.66699 -1 -5.5 -1 -8.5v-9.5c0 -12 3.66699 -23.333 11 -34s23 -18.667 47 -24l-32 -72c-20.667 4.66699 -37.834 11.334 -51.501 20.001s-24.5 18.667 -32.5 30c-16 -14 -34.167 -25.5 -54.5 -34.5s-41.166 -13.5 -62.499 -13.5
c-12.667 0 -25.334 2 -38.001 6s-24.667 9.66699 -36 17l-34 -164l-79 -3l122 572l75 -3c-3.33301 -14 -7.16602 -31.167 -11.499 -51.5l-13.5 -63.5l-2 -8l-2 -8c-7.33301 -33.333 -13.833 -65 -19.5 -95s-8.5 -50.667 -8.5 -62c0 -16.667 4.5 -30.834 13.5 -42.501
s22.5 -17.5 40.5 -17.5c4.66699 0 9.33398 0.5 14.001 1.5s9.66699 2.5 15 4.5c14 5.33301 27 13.333 39 24s19.333 22.334 22 35.001l61 286l76 -3v0z" />
    <glyph glyph-name="paragraph" unicode="&#xb6;" horiz-adv-x="431" 
d="M282 -125h-75v410c-58 10.667 -106.167 39.167 -144.5 85.5s-57.5 98.833 -57.5 157.5c0 65.333 20.333 119.5 61 162.5s91.667 70.833 153 83.5c2 0.666992 4 1 6 1h6h5.5h5.5c2 -0.666992 4.16699 -1 6.5 -1h7.5c4 0 8.16699 0.166992 12.5 0.5
s8.83301 0.833008 13.5 1.5v-901v0zM447 699h-45v-824h-74v900h119v-76v0z" />
    <glyph glyph-name="middot" unicode="&#xb7;" 
 />
    <glyph glyph-name="cedilla" unicode="&#xb8;" horiz-adv-x="362" 
d="M185 16l-67 -161l-53 43l81 132l39 -14v0z" />
    <glyph glyph-name="onesuperior" unicode="&#xb9;" horiz-adv-x="500" 
 />
    <glyph glyph-name="ordmasculine" unicode="&#xba;" horiz-adv-x="320" 
d="M302 363h-272v30h272v-30v0zM303 444l-8.99805 -29.999h-210c-24.667 0 -42.334 7.16699 -53.001 21.5s-16 31.166 -16 50.499c0 3.33301 0.166992 6.5 0.5 9.5s0.833008 6.16699 1.5 9.5c0 2.66699 0.5 5.66699 1.5 9s1.83301 6.33301 2.5 9c3.33301 10.667 7 21 11 31
s10.333 18.667 19 26c6.66699 4.66699 14 8.33398 22 11.001s16.667 4 26 4h180l-8 -31h-181h-4.5c-1.66699 0 -3.16699 -0.333008 -4.5 -1c-2.66699 0 -5 -0.5 -7 -1.5s-4 -2.16699 -6 -3.5c-3.33301 -2.66699 -6.33301 -7.16699 -9 -13.5
s-5.33398 -13.166 -8.00098 -20.499c-1.33301 -4.66699 -2.5 -9.83398 -3.5 -15.501s-1.16699 -11.5 -0.5 -17.5c0 -12 2.83301 -22.833 8.5 -32.5s16.167 -14.5 31.5 -14.5c20.667 0 37.334 7.5 50.001 22.5s22 31.167 28 48.5c1.33301 4 2.66602 7.66699 3.99902 11
s2.33301 6.66602 3 9.99902h31c-5.33301 -18 -11.5 -34.5 -18.5 -49.5s-18.167 -29.167 -33.5 -42.5h152v0z" />
    <glyph glyph-name="guillemotright" unicode="&#xbb;" horiz-adv-x="280" 
d="M180 374l-174 -176v101l72 73l-72 71v101l174 -170v0zM340 374l-174 -176v101l72 73l-72 71v101l174 -170v0z" />
    <glyph glyph-name="onequarter" unicode="&#xbc;" horiz-adv-x="315" 
d="M302 363h-272v30h272v-30v0z" />
    <glyph glyph-name="onehalf" unicode="&#xbd;" horiz-adv-x="500" 
 />
    <glyph glyph-name="threequarters" unicode="&#xbe;" horiz-adv-x="500" 
 />
    <glyph glyph-name="questiondown" unicode="&#xbf;" horiz-adv-x="345" 
d="M20 -106c-2 5.33301 -3.50195 10.8291 -4.50195 16.4961s-1.5 11.167 -1.5 16.5c0.666992 16.667 5 32.834 13 48.501s19.333 29.834 34 42.501l104 87c18 15.333 31 32.833 39 52.5s15 39.834 21 60.501c0 0.666992 0.166992 1.5 0.5 2.5s0.5 1.83301 0.5 2.5l44 -12
c-7.33301 -26.667 -16.166 -52 -26.499 -76s-26.833 -45.333 -49.5 -64l-103 -88c-4 -2.66699 -7.5 -5.66699 -10.5 -9s-5.5 -6.33301 -7.5 -9c-4.66699 -6.66699 -8 -13.334 -10 -20.001s-3 -12.667 -3 -18c0 -3.33301 0.333008 -6.16602 1 -8.49902
s1.33398 -4.83301 2.00098 -7.5c2.66699 -7.33301 7 -13.166 13 -17.499s13 -6.5 21 -6.5l111 -1c1.33301 0.666992 2.5 1 3.5 1s1.83301 0.333008 2.5 1c8 1.33301 15.667 5.33301 23 12s12 13.667 14 21l34 116l43 -13l-33 -117c-5.33301 -17.333 -16.333 -32.5 -33 -45.5
s-34.667 -19.5 -54 -19.5l-111 -1c-17.333 0.666992 -33 5.66699 -47 15s-24 22.333 -30 39v-1zM230.998 316.996c0 10.667 3.83301 19.667 11.5 27s16.834 11 27.501 11c11.333 0 20.666 -3.66699 27.999 -11s11 -16.333 11 -27s-3.66699 -19.834 -11 -27.501
s-16.666 -11.5 -27.999 -11.5c-10.667 0 -19.834 3.83301 -27.501 11.5s-11.5 16.834 -11.5 27.501v0z" />
    <glyph glyph-name="Agrave" unicode="&#xc0;" horiz-adv-x="856" 
d="M895 633l-95.999 -337h61v-45h-75l-57 -201l-168 199l-9 -12c-30.667 -42.667 -69 -80.5 -115 -113.5s-119.333 -49.5 -220 -49.5h-173v46h173c69.333 0 126.5 10.167 171.5 30.5s87.5 58.166 127.5 113.499c4.66699 6 8.16699 10.167 10.5 12.5s3.83301 4.5 4.5 6.5
c0 1.33301 -0.833008 2.83301 -2.5 4.5s-4.16699 4.5 -7.5 8.5h18l265 366c5.33301 7.33301 11.166 13.5 17.499 18.5s12.833 8.83301 19.5 11.5c4.66699 2 9 3.5 13 4.5s8 1.5 12 1.5c9.33301 0 17.333 -3 24 -9s10 -15.667 10 -29c0 -4 -0.333008 -8.16699 -1 -12.5
s-1.66699 -9.16602 -3 -14.499v0zM738.001 251h-120l90 -107l7.5 27l7.5 27c2.66699 8.66699 5.16699 17.5 7.5 26.5s4.83301 17.833 7.5 26.5v0zM853.001 650c-2 -1.33301 -4 -3.16797 -6 -5.50098s-4.66699 -5.16602 -8 -8.49902l-45 -62.5l-99 -136.5l-54.5 -76
l-46.5 -65h157l101 350l1 4v0zM924.001 755.998l-20 -19l-164 120l40 23l144 -124v0z" />
    <glyph glyph-name="Aacute" unicode="&#xc1;" horiz-adv-x="859" 
d="M895 633l-95.999 -337h61v-45h-75l-57 -201l-168 199l-9 -12c-30.667 -42.667 -69 -80.5 -115 -113.5s-119.333 -49.5 -220 -49.5h-173v46h173c69.333 0 126.5 10.167 171.5 30.5s87.5 58.166 127.5 113.499c4.66699 6 8.16699 10.167 10.5 12.5s3.83301 4.5 4.5 6.5
c0 1.33301 -0.833008 2.83301 -2.5 4.5s-4.16699 4.5 -7.5 8.5h18l265 366c5.33301 7.33301 11.166 13.5 17.499 18.5s12.833 8.83301 19.5 11.5c4.66699 2 9 3.5 13 4.5s8 1.5 12 1.5c9.33301 0 17.333 -3 24 -9s10 -15.667 10 -29c0 -4 -0.333008 -8.16699 -1 -12.5
s-1.66699 -9.16602 -3 -14.499v0zM738.001 251h-120l90 -107l7.5 27l7.5 27c2.66699 8.66699 5.16699 17.5 7.5 26.5s4.83301 17.833 7.5 26.5v0zM853.001 650c-2 -1.33301 -4 -3.16797 -6 -5.50098s-4.66699 -5.16602 -8 -8.49902l-45 -62.5l-99 -136.5l-54.5 -76
l-46.5 -65h157l101 350l1 4v0zM995.001 846.998l-164 -120l-40 9l144 134l60 -23v0z" />
    <glyph glyph-name="Acircumflex" unicode="&#xc2;" horiz-adv-x="856" 
d="M895 633l-95.999 -337h61v-45h-75l-57 -201l-168 199l-9 -12c-30.667 -42.667 -69 -80.5 -115 -113.5s-119.333 -49.5 -220 -49.5h-173v46h173c69.333 0 126.5 10.167 171.5 30.5s87.5 58.166 127.5 113.499c4.66699 6 8.16699 10.167 10.5 12.5s3.83301 4.5 4.5 6.5
c0 1.33301 -0.833008 2.83301 -2.5 4.5s-4.16699 4.5 -7.5 8.5h18l265 366c5.33301 7.33301 11.166 13.5 17.499 18.5s12.833 8.83301 19.5 11.5c4.66699 2 9 3.5 13 4.5s8 1.5 12 1.5c9.33301 0 17.333 -3 24 -9s10 -15.667 10 -29c0 -4 -0.333008 -8.16699 -1 -12.5
s-1.66699 -9.16602 -3 -14.499v0zM738.001 251h-120l90 -107l7.5 27l7.5 27c2.66699 8.66699 5.16699 17.5 7.5 26.5s4.83301 17.833 7.5 26.5v0zM853.001 650c-2 -1.33301 -4 -3.16797 -6 -5.50098s-4.66699 -5.16602 -8 -8.49902l-45 -62.5l-99 -136.5l-54.5 -76
l-46.5 -65h157l101 350l1 4v0zM991.001 722.998l-34 -12l-92 42l-92 -42l-35 12l127 83l126 -83v0z" />
    <glyph glyph-name="Atilde" unicode="&#xc3;" horiz-adv-x="856" 
d="M895 633l-95.999 -337h61v-45h-75l-57 -201l-168 199l-9 -12c-30.667 -42.667 -69 -80.5 -115 -113.5s-119.333 -49.5 -220 -49.5h-173v46h173c69.333 0 126.5 10.167 171.5 30.5s87.5 58.166 127.5 113.499c4.66699 6 8.16699 10.167 10.5 12.5s3.83301 4.5 4.5 6.5
c0 1.33301 -0.833008 2.83301 -2.5 4.5s-4.16699 4.5 -7.5 8.5h18l265 366c5.33301 7.33301 11.166 13.5 17.499 18.5s12.833 8.83301 19.5 11.5c4.66699 2 9 3.5 13 4.5s8 1.5 12 1.5c9.33301 0 17.333 -3 24 -9s10 -15.667 10 -29c0 -4 -0.333008 -8.16699 -1 -12.5
s-1.66699 -9.16602 -3 -14.499v0zM738.001 251h-120l90 -107l7.5 27l7.5 27c2.66699 8.66699 5.16699 17.5 7.5 26.5s4.83301 17.833 7.5 26.5v0zM853.001 650c-2 -1.33301 -4 -3.16797 -6 -5.50098s-4.66699 -5.16602 -8 -8.49902l-45 -62.5l-99 -136.5l-54.5 -76
l-46.5 -65h157l101 350l1 4v0zM1020 774.998c-9.33301 -11.333 -19.668 -21 -31.001 -29s-22.666 -14.333 -33.999 -19c-6.66699 -2 -13.167 -3.66699 -19.5 -5s-12.5 -2 -18.5 -2c-13.333 0 -24 1.16699 -32 3.5s-15.333 4.83301 -22 7.5h-1.5
c-0.333008 0 -0.833008 0.333008 -1.5 1c-6 2 -12.5 4 -19.5 6s-15.833 3 -26.5 3c-12 0 -23.333 -1.66699 -34 -5s-18.667 -8 -24 -14l-39 5c14.667 18 30.5 31.5 47.5 40.5s35.833 13.5 56.5 13.5c13.333 0 23.833 -1.16699 31.5 -3.5s14.5 -4.83301 20.5 -7.5
c0.666992 0 1.16699 -0.166992 1.5 -0.5s0.833008 -0.5 1.5 -0.5c6 -2.66699 12.167 -5 18.5 -7s14.5 -3 24.5 -3c12.667 0 24.5 2 35.5 6s19.5 9 25.5 15l40 -5v0z" />
    <glyph glyph-name="Adieresis" unicode="&#xc4;" horiz-adv-x="859" 
d="M895 633l-95.999 -337h61v-45h-75l-57 -201l-168 199l-9 -12c-30.667 -42.667 -69 -80.5 -115 -113.5s-119.333 -49.5 -220 -49.5h-173v46h173c69.333 0 126.5 10.167 171.5 30.5s87.5 58.166 127.5 113.499c4.66699 6 8.16699 10.167 10.5 12.5s3.83301 4.5 4.5 6.5
c0 1.33301 -0.833008 2.83301 -2.5 4.5s-4.16699 4.5 -7.5 8.5h18l265 366c5.33301 7.33301 11.166 13.5 17.499 18.5s12.833 8.83301 19.5 11.5c4.66699 2 9 3.5 13 4.5s8 1.5 12 1.5c9.33301 0 17.333 -3 24 -9s10 -15.667 10 -29c0 -4 -0.333008 -8.16699 -1 -12.5
s-1.66699 -9.16602 -3 -14.499v0zM738.001 251h-120l90 -107l7.5 27l7.5 27c2.66699 8.66699 5.16699 17.5 7.5 26.5s4.83301 17.833 7.5 26.5v0zM853.001 650c-2 -1.33301 -4 -3.16797 -6 -5.50098s-4.66699 -5.16602 -8 -8.49902l-45 -62.5l-99 -136.5l-54.5 -76
l-46.5 -65h157l101 350l1 4v0zM867.001 809.998l-20 -70h-56l20 70h56v0zM971.001 809.998l-20 -70h-56l20 70h56v0z" />
    <glyph glyph-name="Aring" unicode="&#xc5;" horiz-adv-x="868" 
d="M895 633l-95.999 -337h61v-45h-75l-57 -201l-168 199l-9 -12c-30.667 -42.667 -69 -80.5 -115 -113.5s-119.333 -49.5 -220 -49.5h-173v46h173c69.333 0 126.5 10.167 171.5 30.5s87.5 58.166 127.5 113.499c4.66699 6 8.16699 10.167 10.5 12.5s3.83301 4.5 4.5 6.5
c0 1.33301 -0.833008 2.83301 -2.5 4.5s-4.16699 4.5 -7.5 8.5h18l265 366c5.33301 7.33301 11.166 13.5 17.499 18.5s12.833 8.83301 19.5 11.5c4.66699 2 9 3.5 13 4.5s8 1.5 12 1.5c9.33301 0 17.333 -3 24 -9s10 -15.667 10 -29c0 -4 -0.333008 -8.16699 -1 -12.5
s-1.66699 -9.16602 -3 -14.499v0zM738.001 251h-120l90 -107l7.5 27l7.5 27c2.66699 8.66699 5.16699 17.5 7.5 26.5s4.83301 17.833 7.5 26.5v0zM853.001 650c-2 -1.33301 -4 -3.16797 -6 -5.50098s-4.66699 -5.16602 -8 -8.49902l-45 -62.5l-99 -136.5l-54.5 -76
l-46.5 -65h157l101 350l1 4v0zM913.001 786.998c0 -17.333 -6.33301 -32.166 -19 -44.499s-27.667 -18.5 -45 -18.5c-18 0 -33.167 6.16699 -45.5 18.5s-18.5 27.166 -18.5 44.499s6.16699 32.166 18.5 44.499s27.5 18.5 45.5 18.5c17.333 0 32.333 -6.16699 45 -18.5
s19 -27.166 19 -44.499v0zM871.001 786.998c0 6 -2.16699 11.333 -6.5 16s-9.83301 7 -16.5 7c-6 0 -11.333 -2.33301 -16 -7s-7 -10 -7 -16c0 -6.66699 2.33301 -12.334 7 -17.001s10 -7 16 -7c6.66699 0 12.167 2.33301 16.5 7s6.5 10.334 6.5 17.001v0z" />
    <glyph glyph-name="AE" unicode="&#xc6;" horiz-adv-x="1168" 
d="M1243 676c1.33301 -2.66699 2.16309 -5.50195 2.49609 -8.50195s0.5 -6.16699 0.5 -9.5c0 -6.66699 -1 -13.334 -3 -20.001s-4.33301 -13.667 -7 -21c-4.66699 -9.33301 -9.83398 -18.5 -15.501 -27.5l-17.5 -26.5l-13.5 -18.5
c-4.33301 -5.66699 -8.16602 -11.167 -11.499 -16.5l-38 25l12.5 17c5 6.66699 10.167 14 15.5 22l4.5 6.5c1.66699 2.33301 3.16699 4.83301 4.5 7.5c6.66699 10 12.334 19.667 17.001 29s7 17 7 23v0.5v1.5c-0.666992 0.666992 -1 1.16699 -1 1.5v0.5
c-1.33301 5.33301 -3.66602 9.5 -6.99902 12.5s-7.66602 5.5 -12.999 7.5c-3.33301 1.33301 -7.5 2.33301 -12.5 3s-10.167 1 -15.5 1c-12.667 0 -28 -2.5 -46 -7.5s-37.667 -13.833 -59 -26.5c-15.333 -8.66699 -29.666 -18.167 -42.999 -28.5s-25 -20.5 -35 -30.5
c-12.667 -12 -22.834 -23.833 -30.501 -35.5s-12.5 -22.167 -14.5 -31.5v-1.5v-0.5v-1.5v-1.5c0 -4.66699 1.16699 -9.66699 3.5 -15s5.5 -11 9.5 -17l6.5 -8.5l7.5 -9.5c4 -5.33301 8 -10.333 12 -15l10 -12c-13.333 -7.33301 -28.5 -16.333 -45.5 -27
s-34.5 -22.667 -52.5 -36c-34 -24.667 -65.333 -52.834 -94 -84.501s-43 -64.167 -43 -97.5c0 -5.33301 0.5 -11 1.5 -17s2.83301 -12 5.5 -18c4.66699 -12 12.667 -21 24 -27s23.333 -10.333 36 -13c7.33301 -2 14.666 -3.16699 21.999 -3.5s14 -0.5 20 -0.5h303v-46h-303
c-5.33301 0 -11 0.166992 -17 0.5s-11.667 0.833008 -17 1.5c-20 2.66699 -39.167 8.16699 -57.5 16.5s-33.166 21.166 -44.499 38.499l-23 -81l-168 199l-9.5 -13.5c-3 -4.33301 -6.16699 -8.5 -9.5 -12.5c-42.667 -54 -88.167 -92.333 -136.5 -115
s-111.166 -34 -188.499 -34h-173v46h173c69.333 0 126.5 10.167 171.5 30.5s87.5 58.166 127.5 113.499c4.66699 6 8.16699 10.167 10.5 12.5s3.83301 4.5 4.5 6.5c0 1.33301 -0.666992 2.83301 -2 4.5l-7 8.5h17l265 366c5.33301 7.33301 11.166 13.5 17.499 18.5
s12.833 8.83301 19.5 11.5c4.66699 2 9 3.5 13 4.5s8 1.5 12 1.5c10 0 18.333 -3.16699 25 -9.5s10 -16.166 10 -29.499c0 -3.33301 -0.333008 -7.16602 -1 -11.499s-1.66699 -9.16602 -3 -14.499l-80 -277c17.333 17.333 36.833 34.5 58.5 51.5s45.834 33.833 72.501 50.5
c-2.66699 3.33301 -5.16699 6.66602 -7.5 9.99902s-4.5 6.66602 -6.5 9.99902c-4.66699 6.66699 -8.5 13.334 -11.5 20.001s-4.5 14.334 -4.5 23.001c0 1.33301 0.166992 2.83301 0.5 4.5s0.5 3.5 0.5 5.5c0 0.666992 0.166992 1.5 0.5 2.5s0.5 1.83301 0.5 2.5
c2.66699 10.667 7.33398 21.834 14.001 33.501s15 23.5 25 35.5c13.333 15.333 29 30.333 47 45s37.667 28.334 59 41.001c23.333 13.333 45.833 23.5 67.5 30.5s41.834 10.5 60.501 10.5c8 0 15.667 -0.666992 23 -2s14.333 -3.33301 21 -6
c11.333 -4 21.166 -10.167 29.499 -18.5s14.166 -18.166 17.499 -29.499v0zM698.997 250.998h-121l90 -107l7.5 27l7.5 27l8 26.5l8 26.5v0zM812.997 649.998c-2 -1.33301 -4 -3.16699 -6 -5.5l-7 -8.5l-246 -340h158l101 354v0z" />
    <glyph glyph-name="Ccedilla" unicode="&#xc7;" horiz-adv-x="491" 
d="M548 663c0.666992 -2.66699 1.16309 -5.50195 1.49609 -8.50195s0.5 -5.83301 0.5 -8.5c0 -26.667 -12.333 -50.834 -37 -72.501s-51.667 -40.5 -81 -56.5c-16 -9.33301 -31.5 -17.666 -46.5 -24.999l-39.5 -19l-20 41l36 17c15.333 7.33301 31.333 15.666 48 24.999
s32.667 19.333 48 30s27 21.334 35 32.001c4 5.33301 7 10.333 9 15s3 9.33398 3 14.001v1.5v1.5c-0.666992 0.666992 -1 1.16699 -1 1.5v1.5c0 0.666992 -0.166992 1.16699 -0.5 1.5l-0.5 0.5c-2 2.66699 -6.66699 5.16699 -14 7.5s-17.666 3.5 -30.999 3.5
c-19.333 0 -40 -3.66699 -62 -11s-44.333 -17.666 -67 -30.999c-46.667 -27.333 -91.167 -64.166 -133.5 -110.499s-73.833 -94.5 -94.5 -144.5c-2.66699 -6 -5.16699 -12.333 -7.5 -19l-6.5 -19c-5.33301 -18 -9.33301 -35.167 -12 -51.5s-4 -31.833 -4 -46.5
c0 -18 2.16699 -34.333 6.5 -49s10.5 -27.667 18.5 -39c12.667 -16 29.334 -28 50.001 -36s45.334 -12 74.001 -12c12 0 24.333 1 37 3s25.667 5 39 9c18.667 5.33301 37 12.333 55 21s34.333 18.334 49 29.001l27 -36c-19.333 -14.667 -41.333 -27.5 -66 -38.5
s-49.667 -19.5 -75 -25.5c-9.33301 -2 -18.833 -3.66699 -28.5 -5s-19.167 -2.33301 -28.5 -3l-68 -136l-46 33l65 107c-26.667 3.33301 -50 10.333 -70 21s-36.667 24.667 -50 42c-11.333 15.333 -19.833 32.666 -25.5 51.999s-8.5 40.666 -8.5 63.999
c0 16.667 1.5 34 4.5 52s7.16699 37 12.5 57c0.666992 1.33301 1.16699 2.83301 1.5 4.5s0.833008 3.16699 1.5 4.5c20.667 66 57.834 129 111.501 189s110.834 105.333 171.501 136c22 10.667 44 19.167 66 25.5s43 9.5 63 9.5c27.333 0 47.5 -4 60.5 -12
s21.5 -16.667 25.5 -26c1.33301 -2 2.16602 -3.83301 2.49902 -5.5s0.833008 -3.5 1.5 -5.5v0z" />
    <glyph glyph-name="Egrave" unicode="&#xc8;" horiz-adv-x="482" 
d="M577 676c1.33301 -2.66699 2.16602 -5.66699 2.49902 -9s0.5 -6.66602 0.5 -9.99902c0 -7.33301 -1.16699 -14.666 -3.5 -21.999s-5.16602 -15 -8.49902 -23c-4 -8 -8.66699 -15.833 -14 -23.5l-16 -23.5l-13.5 -19.5l-12.5 -17.5l-38 25l12.5 17
c5 6.66699 10.167 14 15.5 22l4.5 6.5c1.66699 2.33301 3.16699 4.83301 4.5 7.5c6.66699 10 12.334 19.667 17.001 29s7 17 7 23v0.5v1.5c-0.666992 0.666992 -1 1.16699 -1 1.5v0.5c-1.33301 5.33301 -3.66602 9.5 -6.99902 12.5s-7.66602 5.5 -12.999 7.5
c-3.33301 1.33301 -7.5 2.33301 -12.5 3s-10.167 1 -15.5 1c-12.667 0 -28 -2.5 -46 -7.5s-37.667 -13.833 -59 -26.5c-15.333 -8.66699 -29.666 -18.167 -42.999 -28.5s-25 -20.5 -35 -30.5c-12.667 -12 -22.834 -23.833 -30.501 -35.5s-12.5 -22.167 -14.5 -31.5v-1.5
v-0.5v-1.5v-1.5c0 -4.66699 1.16699 -9.66699 3.5 -15s5.5 -11 9.5 -17l6.5 -8.5l7.5 -9.5c4 -5.33301 8 -10.333 12 -15l10 -12c-13.333 -7.33301 -28.5 -16.333 -45.5 -27s-34.5 -22.667 -52.5 -36c-34 -24.667 -65.333 -52.834 -94 -84.501s-43 -64.167 -43 -97.5
c0 -5.33301 0.5 -11 1.5 -17s2.83301 -12 5.5 -18c5.33301 -12 13.5 -21 24.5 -27s22.833 -10.333 35.5 -13c7.33301 -1.33301 14.666 -2.33301 21.999 -3s14 -1 20 -1h303v-46h-303c-5.33301 0 -10.666 0.166992 -15.999 0.5s-10.666 0.833008 -15.999 1.5
c-22.667 2.66699 -44.5 9.33398 -65.5 20.001s-36.5 27.334 -46.5 50.001c-2.66699 8 -4.83398 16 -6.50098 24s-2.5 16.333 -2.5 25c0 21.333 5.16699 43.666 15.5 66.999s25.166 46.666 44.499 69.999c18 21.333 39.833 42.666 65.5 63.999s54.834 42 87.501 62
l-12.5 16.5l-5.5 7.5c-3.33301 5.33301 -6 11.166 -8 17.499s-3 12.833 -3 19.5v4c0 1.33301 0.333008 3 1 5c0 1.33301 0.166992 2.66602 0.5 3.99902s0.5 2.66602 0.5 3.99902c2 10.667 6.33301 21.834 13 33.501s15 23.5 25 35.5c13.333 15.333 29 30.333 47 45
s38 28.334 60 41.001c23.333 13.333 45.666 23.5 66.999 30.5s41.333 10.5 60 10.5c8 0 15.667 -0.666992 23 -2s14.333 -3.33301 21 -6c11.333 -4 21.166 -10.167 29.499 -18.5s14.166 -18.166 17.499 -29.499v0zM503 778l-20 -19l-164 120l40 23l144 -124v0z" />
    <glyph glyph-name="Eacute" unicode="&#xc9;" horiz-adv-x="479" 
d="M577 676c1.33301 -2.66699 2.16602 -5.66699 2.49902 -9s0.5 -6.66602 0.5 -9.99902c0 -7.33301 -1.16699 -14.666 -3.5 -21.999s-5.16602 -15 -8.49902 -23c-4 -8 -8.66699 -15.833 -14 -23.5l-16 -23.5l-13.5 -19.5l-12.5 -17.5l-38 25l12.5 17
c5 6.66699 10.167 14 15.5 22l4.5 6.5c1.66699 2.33301 3.16699 4.83301 4.5 7.5c6.66699 10 12.334 19.667 17.001 29s7 17 7 23v0.5v1.5c-0.666992 0.666992 -1 1.16699 -1 1.5v0.5c-1.33301 5.33301 -3.66602 9.5 -6.99902 12.5s-7.66602 5.5 -12.999 7.5
c-3.33301 1.33301 -7.5 2.33301 -12.5 3s-10.167 1 -15.5 1c-12.667 0 -28 -2.5 -46 -7.5s-37.667 -13.833 -59 -26.5c-15.333 -8.66699 -29.666 -18.167 -42.999 -28.5s-25 -20.5 -35 -30.5c-12.667 -12 -22.834 -23.833 -30.501 -35.5s-12.5 -22.167 -14.5 -31.5v-1.5
v-0.5v-1.5v-1.5c0 -4.66699 1.16699 -9.66699 3.5 -15s5.5 -11 9.5 -17l6.5 -8.5l7.5 -9.5c4 -5.33301 8 -10.333 12 -15l10 -12c-13.333 -7.33301 -28.5 -16.333 -45.5 -27s-34.5 -22.667 -52.5 -36c-34 -24.667 -65.333 -52.834 -94 -84.501s-43 -64.167 -43 -97.5
c0 -5.33301 0.5 -11 1.5 -17s2.83301 -12 5.5 -18c5.33301 -12 13.5 -21 24.5 -27s22.833 -10.333 35.5 -13c7.33301 -1.33301 14.666 -2.33301 21.999 -3s14 -1 20 -1h303v-46h-303c-5.33301 0 -10.666 0.166992 -15.999 0.5s-10.666 0.833008 -15.999 1.5
c-22.667 2.66699 -44.5 9.33398 -65.5 20.001s-36.5 27.334 -46.5 50.001c-2.66699 8 -4.83398 16 -6.50098 24s-2.5 16.333 -2.5 25c0 21.333 5.16699 43.666 15.5 66.999s25.166 46.666 44.499 69.999c18 21.333 39.833 42.666 65.5 63.999s54.834 42 87.501 62
l-12.5 16.5l-5.5 7.5c-3.33301 5.33301 -6 11.166 -8 17.499s-3 12.833 -3 19.5v4c0 1.33301 0.333008 3 1 5c0 1.33301 0.166992 2.66602 0.5 3.99902s0.5 2.66602 0.5 3.99902c2 10.667 6.33301 21.834 13 33.501s15 23.5 25 35.5c13.333 15.333 29 30.333 47 45
s38 28.334 60 41.001c23.333 13.333 45.666 23.5 66.999 30.5s41.333 10.5 60 10.5c8 0 15.667 -0.666992 23 -2s14.333 -3.33301 21 -6c11.333 -4 21.166 -10.167 29.499 -18.5s14.166 -18.166 17.499 -29.499v0zM603 875l-164 -120l-40 9l144 134l60 -23v0z" />
    <glyph glyph-name="Ecircumflex" unicode="&#xca;" horiz-adv-x="479" 
d="M577 676c1.33301 -2.66699 2.16602 -5.66699 2.49902 -9s0.5 -6.66602 0.5 -9.99902c0 -7.33301 -1.16699 -14.666 -3.5 -21.999s-5.16602 -15 -8.49902 -23c-4 -8 -8.66699 -15.833 -14 -23.5l-16 -23.5l-13.5 -19.5l-12.5 -17.5l-38 25l12.5 17
c5 6.66699 10.167 14 15.5 22l4.5 6.5c1.66699 2.33301 3.16699 4.83301 4.5 7.5c6.66699 10 12.334 19.667 17.001 29s7 17 7 23v0.5v1.5c-0.666992 0.666992 -1 1.16699 -1 1.5v0.5c-1.33301 5.33301 -3.66602 9.5 -6.99902 12.5s-7.66602 5.5 -12.999 7.5
c-3.33301 1.33301 -7.5 2.33301 -12.5 3s-10.167 1 -15.5 1c-12.667 0 -28 -2.5 -46 -7.5s-37.667 -13.833 -59 -26.5c-15.333 -8.66699 -29.666 -18.167 -42.999 -28.5s-25 -20.5 -35 -30.5c-12.667 -12 -22.834 -23.833 -30.501 -35.5s-12.5 -22.167 -14.5 -31.5v-1.5
v-0.5v-1.5v-1.5c0 -4.66699 1.16699 -9.66699 3.5 -15s5.5 -11 9.5 -17l6.5 -8.5l7.5 -9.5c4 -5.33301 8 -10.333 12 -15l10 -12c-13.333 -7.33301 -28.5 -16.333 -45.5 -27s-34.5 -22.667 -52.5 -36c-34 -24.667 -65.333 -52.834 -94 -84.501s-43 -64.167 -43 -97.5
c0 -5.33301 0.5 -11 1.5 -17s2.83301 -12 5.5 -18c5.33301 -12 13.5 -21 24.5 -27s22.833 -10.333 35.5 -13c7.33301 -1.33301 14.666 -2.33301 21.999 -3s14 -1 20 -1h303v-46h-303c-5.33301 0 -10.666 0.166992 -15.999 0.5s-10.666 0.833008 -15.999 1.5
c-22.667 2.66699 -44.5 9.33398 -65.5 20.001s-36.5 27.334 -46.5 50.001c-2.66699 8 -4.83398 16 -6.50098 24s-2.5 16.333 -2.5 25c0 21.333 5.16699 43.666 15.5 66.999s25.166 46.666 44.499 69.999c18 21.333 39.833 42.666 65.5 63.999s54.834 42 87.501 62
l-12.5 16.5l-5.5 7.5c-3.33301 5.33301 -6 11.166 -8 17.499s-3 12.833 -3 19.5v4c0 1.33301 0.333008 3 1 5c0 1.33301 0.166992 2.66602 0.5 3.99902s0.5 2.66602 0.5 3.99902c2 10.667 6.33301 21.834 13 33.501s15 23.5 25 35.5c13.333 15.333 29 30.333 47 45
s38 28.334 60 41.001c23.333 13.333 45.666 23.5 66.999 30.5s41.333 10.5 60 10.5c8 0 15.667 -0.666992 23 -2s14.333 -3.33301 21 -6c11.333 -4 21.166 -10.167 29.499 -18.5s14.166 -18.166 17.499 -29.499v0zM595 763l-34 -12l-92 42l-92 -42l-35 12l127 83l126 -83v0z
" />
    <glyph glyph-name="Edieresis" unicode="&#xcb;" horiz-adv-x="479" 
d="M577 676c1.33301 -2.66699 2.16602 -5.66699 2.49902 -9s0.5 -6.66602 0.5 -9.99902c0 -7.33301 -1.16699 -14.666 -3.5 -21.999s-5.16602 -15 -8.49902 -23c-4 -8 -8.66699 -15.833 -14 -23.5l-16 -23.5l-13.5 -19.5l-12.5 -17.5l-38 25l12.5 17
c5 6.66699 10.167 14 15.5 22l4.5 6.5c1.66699 2.33301 3.16699 4.83301 4.5 7.5c6.66699 10 12.334 19.667 17.001 29s7 17 7 23v0.5v1.5c-0.666992 0.666992 -1 1.16699 -1 1.5v0.5c-1.33301 5.33301 -3.66602 9.5 -6.99902 12.5s-7.66602 5.5 -12.999 7.5
c-3.33301 1.33301 -7.5 2.33301 -12.5 3s-10.167 1 -15.5 1c-12.667 0 -28 -2.5 -46 -7.5s-37.667 -13.833 -59 -26.5c-15.333 -8.66699 -29.666 -18.167 -42.999 -28.5s-25 -20.5 -35 -30.5c-12.667 -12 -22.834 -23.833 -30.501 -35.5s-12.5 -22.167 -14.5 -31.5v-1.5
v-0.5v-1.5v-1.5c0 -4.66699 1.16699 -9.66699 3.5 -15s5.5 -11 9.5 -17l6.5 -8.5l7.5 -9.5c4 -5.33301 8 -10.333 12 -15l10 -12c-13.333 -7.33301 -28.5 -16.333 -45.5 -27s-34.5 -22.667 -52.5 -36c-34 -24.667 -65.333 -52.834 -94 -84.501s-43 -64.167 -43 -97.5
c0 -5.33301 0.5 -11 1.5 -17s2.83301 -12 5.5 -18c5.33301 -12 13.5 -21 24.5 -27s22.833 -10.333 35.5 -13c7.33301 -1.33301 14.666 -2.33301 21.999 -3s14 -1 20 -1h303v-46h-303c-5.33301 0 -10.666 0.166992 -15.999 0.5s-10.666 0.833008 -15.999 1.5
c-22.667 2.66699 -44.5 9.33398 -65.5 20.001s-36.5 27.334 -46.5 50.001c-2.66699 8 -4.83398 16 -6.50098 24s-2.5 16.333 -2.5 25c0 21.333 5.16699 43.666 15.5 66.999s25.166 46.666 44.499 69.999c18 21.333 39.833 42.666 65.5 63.999s54.834 42 87.501 62
l-12.5 16.5l-5.5 7.5c-3.33301 5.33301 -6 11.166 -8 17.499s-3 12.833 -3 19.5v4c0 1.33301 0.333008 3 1 5c0 1.33301 0.166992 2.66602 0.5 3.99902s0.5 2.66602 0.5 3.99902c2 10.667 6.33301 21.834 13 33.501s15 23.5 25 35.5c13.333 15.333 29 30.333 47 45
s38 28.334 60 41.001c23.333 13.333 45.666 23.5 66.999 30.5s41.333 10.5 60 10.5c8 0 15.667 -0.666992 23 -2s14.333 -3.33301 21 -6c11.333 -4 21.166 -10.167 29.499 -18.5s14.166 -18.166 17.499 -29.499v0zM481 824l-20 -70h-56l20 70h56v0zM585 824l-20 -70h-56
l20 70h56v0z" />
    <glyph glyph-name="Igrave" unicode="&#xcc;" horiz-adv-x="452" 
d="M526 602l-19.998 -68.0039l-44 -151l-10 -34.5l-10 -34.5c9.33301 -4.66699 19.166 -9 29.499 -13s21.5 -7.66699 33.5 -11l-13 -44c-10.667 3.33301 -21.167 6.83301 -31.5 10.5s-20.5 7.83398 -30.5 12.501l-23.5 -80l-9.5 -32c-6 -22 -18.5 -40.833 -37.5 -56.5
s-39.5 -24.5 -61.5 -26.5h-3.5h-3.5h-266v46h266h3.5h3.5c12 2 23.5 7.66699 34.5 17s18.167 20 21.5 32l10 36l25 88c-24 17.333 -41.667 38.166 -53 62.499s-17 52.833 -17 85.5c0 9.33301 0.5 18.833 1.5 28.5s2.16699 19.834 3.5 30.501
c1.33301 9.33301 5.5 24.5 12.5 45.5s15.833 43.167 26.5 66.5c14.667 29.333 32.334 56.5 53.001 81.5s44 37.5 70 37.5c7.33301 0 14 -1.66699 20 -5s11.333 -7.66602 16 -12.999c4 -5.33301 7 -11.833 9 -19.5s3.33301 -15.167 4 -22.5v-4v-4v-2v-2
c0 -8 -0.666992 -15.667 -2 -23s-2.33301 -13.666 -3 -18.999c-0.666992 -3.33301 -1.33398 -6.16602 -2.00098 -8.49902s-1.33398 -4.5 -2.00098 -6.5v0zM486.002 684.996c-4.66699 0 -9.66895 -1.50195 -15.002 -4.50195s-10.666 -7.16699 -15.999 -12.5
c-10 -10 -19.833 -23 -29.5 -39s-18.5 -32.667 -26.5 -50c-8 -16 -14.5 -31.833 -19.5 -47.5s-8.5 -28.5 -10.5 -38.5c-1.33301 -9.33301 -2.5 -18.333 -3.5 -27s-1.5 -17 -1.5 -25c0 -21.333 3.33301 -40.166 10 -56.499s16.334 -30.833 29.001 -43.5
c2 8 4.33301 16.167 7 24.5s5 16.833 7 25.5c0.666992 0.666992 1 1.33398 1 2.00098v2l44 151.5l20 68.5c3.33301 10 5.5 19.167 6.5 27.5s1.5 15.5 1.5 21.5c0 5.33301 -0.333008 10 -1 14s-1.66699 6.33301 -3 7v0zM524 777.994l-20 -19l-164 120l40 23l144 -124v0z" />
    <glyph glyph-name="Iacute" unicode="&#xcd;" horiz-adv-x="434" 
d="M526 602l-19.998 -68.0039l-44 -151l-10 -34.5l-10 -34.5c9.33301 -4.66699 19.166 -9 29.499 -13s21.5 -7.66699 33.5 -11l-13 -44c-10.667 3.33301 -21.167 6.83301 -31.5 10.5s-20.5 7.83398 -30.5 12.501l-23.5 -80l-9.5 -32c-6 -22 -18.5 -40.833 -37.5 -56.5
s-39.5 -24.5 -61.5 -26.5h-3.5h-3.5h-266v46h266h3.5h3.5c12 2 23.5 7.66699 34.5 17s18.167 20 21.5 32l10 36l25 88c-24 17.333 -41.667 38.166 -53 62.499s-17 52.833 -17 85.5c0 9.33301 0.5 18.833 1.5 28.5s2.16699 19.834 3.5 30.501
c1.33301 9.33301 5.5 24.5 12.5 45.5s15.833 43.167 26.5 66.5c14.667 29.333 32.334 56.5 53.001 81.5s44 37.5 70 37.5c7.33301 0 14 -1.66699 20 -5s11.333 -7.66602 16 -12.999c4 -5.33301 7 -11.833 9 -19.5s3.33301 -15.167 4 -22.5v-4v-4v-2v-2
c0 -8 -0.666992 -15.667 -2 -23s-2.33301 -13.666 -3 -18.999c-0.666992 -3.33301 -1.33398 -6.16602 -2.00098 -8.49902s-1.33398 -4.5 -2.00098 -6.5v0zM486.002 684.996c-4.66699 0 -9.66895 -1.50195 -15.002 -4.50195s-10.666 -7.16699 -15.999 -12.5
c-10 -10 -19.833 -23 -29.5 -39s-18.5 -32.667 -26.5 -50c-8 -16 -14.5 -31.833 -19.5 -47.5s-8.5 -28.5 -10.5 -38.5c-1.33301 -9.33301 -2.5 -18.333 -3.5 -27s-1.5 -17 -1.5 -25c0 -21.333 3.33301 -40.166 10 -56.499s16.334 -30.833 29.001 -43.5
c2 8 4.33301 16.167 7 24.5s5 16.833 7 25.5c0.666992 0.666992 1 1.33398 1 2.00098v2l44 151.5l20 68.5c3.33301 10 5.5 19.167 6.5 27.5s1.5 15.5 1.5 21.5c0 5.33301 -0.333008 10 -1 14s-1.66699 6.33301 -3 7v0zM656 879.994l-164 -120l-40 9l144 134l60 -23v0z" />
    <glyph glyph-name="Icircumflex" unicode="&#xce;" horiz-adv-x="419" 
d="M526 602l-19.998 -68.0039l-44 -151l-10 -34.5l-10 -34.5c9.33301 -4.66699 19.166 -9 29.499 -13s21.5 -7.66699 33.5 -11l-13 -44c-10.667 3.33301 -21.167 6.83301 -31.5 10.5s-20.5 7.83398 -30.5 12.501l-23.5 -80l-9.5 -32c-6 -22 -18.5 -40.833 -37.5 -56.5
s-39.5 -24.5 -61.5 -26.5h-3.5h-3.5h-266v46h266h3.5h3.5c12 2 23.5 7.66699 34.5 17s18.167 20 21.5 32l10 36l25 88c-24 17.333 -41.667 38.166 -53 62.499s-17 52.833 -17 85.5c0 9.33301 0.5 18.833 1.5 28.5s2.16699 19.834 3.5 30.501
c1.33301 9.33301 5.5 24.5 12.5 45.5s15.833 43.167 26.5 66.5c14.667 29.333 32.334 56.5 53.001 81.5s44 37.5 70 37.5c7.33301 0 14 -1.66699 20 -5s11.333 -7.66602 16 -12.999c4 -5.33301 7 -11.833 9 -19.5s3.33301 -15.167 4 -22.5v-4v-4v-2v-2
c0 -8 -0.666992 -15.667 -2 -23s-2.33301 -13.666 -3 -18.999c-0.666992 -3.33301 -1.33398 -6.16602 -2.00098 -8.49902s-1.33398 -4.5 -2.00098 -6.5v0zM486.002 684.996c-4.66699 0 -9.66895 -1.50195 -15.002 -4.50195s-10.666 -7.16699 -15.999 -12.5
c-10 -10 -19.833 -23 -29.5 -39s-18.5 -32.667 -26.5 -50c-8 -16 -14.5 -31.833 -19.5 -47.5s-8.5 -28.5 -10.5 -38.5c-1.33301 -9.33301 -2.5 -18.333 -3.5 -27s-1.5 -17 -1.5 -25c0 -21.333 3.33301 -40.166 10 -56.499s16.334 -30.833 29.001 -43.5
c2 8 4.33301 16.167 7 24.5s5 16.833 7 25.5c0.666992 0.666992 1 1.33398 1 2.00098v2l44 151.5l20 68.5c3.33301 10 5.5 19.167 6.5 27.5s1.5 15.5 1.5 21.5c0 5.33301 -0.333008 10 -1 14s-1.66699 6.33301 -3 7v0zM607 760.994l-34 -12l-92 42l-92 -42l-35 12l127 83
l126 -83v0z" />
    <glyph glyph-name="Idieresis" unicode="&#xcf;" horiz-adv-x="430" 
d="M526 602l-19.998 -68.0039l-44 -151l-10 -34.5l-10 -34.5c9.33301 -4.66699 19.166 -9 29.499 -13s21.5 -7.66699 33.5 -11l-13 -44c-10.667 3.33301 -21.167 6.83301 -31.5 10.5s-20.5 7.83398 -30.5 12.501l-23.5 -80l-9.5 -32c-6 -22 -18.5 -40.833 -37.5 -56.5
s-39.5 -24.5 -61.5 -26.5h-3.5h-3.5h-266v46h266h3.5h3.5c12 2 23.5 7.66699 34.5 17s18.167 20 21.5 32l10 36l25 88c-24 17.333 -41.667 38.166 -53 62.499s-17 52.833 -17 85.5c0 9.33301 0.5 18.833 1.5 28.5s2.16699 19.834 3.5 30.501
c1.33301 9.33301 5.5 24.5 12.5 45.5s15.833 43.167 26.5 66.5c14.667 29.333 32.334 56.5 53.001 81.5s44 37.5 70 37.5c7.33301 0 14 -1.66699 20 -5s11.333 -7.66602 16 -12.999c4 -5.33301 7 -11.833 9 -19.5s3.33301 -15.167 4 -22.5v-4v-4v-2v-2
c0 -8 -0.666992 -15.667 -2 -23s-2.33301 -13.666 -3 -18.999c-0.666992 -3.33301 -1.33398 -6.16602 -2.00098 -8.49902s-1.33398 -4.5 -2.00098 -6.5v0zM486.002 684.996c-4.66699 0 -9.66895 -1.50195 -15.002 -4.50195s-10.666 -7.16699 -15.999 -12.5
c-10 -10 -19.833 -23 -29.5 -39s-18.5 -32.667 -26.5 -50c-8 -16 -14.5 -31.833 -19.5 -47.5s-8.5 -28.5 -10.5 -38.5c-1.33301 -9.33301 -2.5 -18.333 -3.5 -27s-1.5 -17 -1.5 -25c0 -21.333 3.33301 -40.166 10 -56.499s16.334 -30.833 29.001 -43.5
c2 8 4.33301 16.167 7 24.5s5 16.833 7 25.5c0.666992 0.666992 1 1.33398 1 2.00098v2l44 151.5l20 68.5c3.33301 10 5.5 19.167 6.5 27.5s1.5 15.5 1.5 21.5c0 5.33301 -0.333008 10 -1 14s-1.66699 6.33301 -3 7v0zM488 837.994l-20 -70h-56l20 70h56v0zM592 837.994
l-20 -70h-56l20 70h56v0z" />
    <glyph glyph-name="Eth" unicode="&#xd0;" horiz-adv-x="720" 
d="M687 304c0 -7.33301 -0.170898 -14.6709 -0.503906 -22.0039s-1.16602 -14.666 -2.49902 -21.999c-6.66699 -46.667 -28.5 -89.334 -65.5 -128.001s-103.167 -58 -198.5 -58h-387v46h18h18c7.33301 -0.666992 14.833 -1 22.5 -1h23.5c42 0.666992 82.333 7 121 19
s68.334 40.667 89.001 86l3 7h-113l13 46h122l130 280l-34 37.5c-12.667 14.333 -26.334 28.833 -41.001 43.5l-28.5 27.5l-28.5 25.5c-13.333 12 -26.833 22.667 -40.5 32s-26.5 16.333 -38.5 21c-10.667 4.66699 -21 7.83398 -31 9.50098s-19 2.5 -27 2.5
c-8.66699 0 -16.167 -1.16699 -22.5 -3.5s-10.5 -5.16602 -12.5 -8.49902c-0.666992 -0.666992 -1.16699 -1.83398 -1.5 -3.50098s-0.5 -3.5 -0.5 -5.5c0 -13.333 12.333 -36.166 37 -68.499s73.334 -74.5 146.001 -126.5l-26 -37l-38.5 28c-19 14 -39.5 30.667 -61.5 50
c-14.667 13.333 -29 27.5 -43 42.5s-26 30.167 -36 45.5c-7.33301 11.333 -13.166 22.5 -17.499 33.5s-6.5 21.833 -6.5 32.5c0 5.33301 0.666992 10.5 2 15.5s3.33301 9.83301 6 14.5c6.66699 12 16.834 21.167 30.501 27.5s29.167 9.5 46.5 9.5
c11.333 -0.666992 23.166 -2.16699 35.499 -4.5s24.833 -6.16602 37.5 -11.499c20.667 -8.66699 46.167 -25.667 76.5 -51s61.833 -54.333 94.5 -87l22 -22.5l22 -23.5l35 76l41 -19l-43 -93c31.333 -34.667 58.833 -67.5 82.5 -98.5s39.834 -55.167 48.501 -72.5
c7.33301 -14.667 12.833 -29.667 16.5 -45s5.5 -30.666 5.5 -45.999v0zM641.996 303.995c0 12 -1.49707 24.001 -4.49707 36.001s-7.5 23.667 -13.5 35c-6.66699 13.333 -20 33.166 -40 59.499s-43.667 54.833 -71 85.5l-18.5 -39.5l-19.5 -40.5
c-0.666992 -1.33301 -1.33398 -2.83301 -2.00098 -4.5s-1.33398 -3.16699 -2.00098 -4.5l-37.5 -82l-33.5 -72h89l-13 -46h-97l-9.5 -19l-3.5 -7c-8 -18 -18 -34 -30 -48s-26 -26.333 -42 -37h63.5h62.5c63.333 0 116.166 13.167 158.499 39.5s63.5 74.5 63.5 144.5v0z" />
    <glyph glyph-name="Ntilde" unicode="&#xd1;" horiz-adv-x="470" 
d="M519 660c3.33301 -6 5.83301 -13.0039 7.5 -21.0039s2.5 -17 2.5 -27c0 -14.667 -1.66699 -31.334 -5 -50.001s-8.33301 -40 -15 -64l-147 -512l-43 13l146 511c7.33301 26 12.333 47.333 15 64s4 29.334 4 38.001c0 5.33301 -0.333008 9.83301 -1 13.5
s-1.33398 6.5 -2.00098 8.5l-1.5 1.5c-0.333008 0.333008 -0.5 0.833008 -0.5 1.5c-0.666992 1.33301 -1.16699 2.16602 -1.5 2.49902s-0.833008 0.5 -1.5 0.5h-1.5h-2.5c-14.667 0 -39.167 -17.167 -73.5 -51.5s-70.833 -85.5 -109.5 -153.5l-205 -363l-41 17l155 547l8 28
h-1.5h-1.5c-4 0 -7.5 -0.5 -10.5 -1.5s-5.83301 -2.83301 -8.5 -5.5c-3.33301 -3.33301 -6.5 -7.5 -9.5 -12.5s-6.5 -11.5 -10.5 -19.5l-12 -23.5l-12 -22.5c-4.66699 -7.33301 -9 -14.833 -13 -22.5l-12 -22.5l-16.5 -29.5l-17.5 -30.5l-8 -14.5l-8 -15.5l-40 21l24.5 46
l25.5 45l11.5 21.5c3.66699 7 7.5 13.833 11.5 20.5l11.5 21.5c3.66699 7 7.5 13.833 11.5 20.5c0 0.666992 0.166992 1.33398 0.5 2.00098s0.833008 1 1.5 1c8.66699 17.333 18.5 32.833 29.5 46.5s27.833 20.5 50.5 20.5c9.33301 0 17.333 -1.5 24 -4.5
s12 -7.16699 16 -12.5c3.33301 -4 5.5 -8.16699 6.5 -12.5s1.5 -8.83301 1.5 -13.5c0 -6 -0.666992 -12.167 -2 -18.5s-3 -12.166 -5 -17.499c0 -1.33301 -0.166992 -2.5 -0.5 -3.5s-0.833008 -2.16699 -1.5 -3.5l-103 -363l110 196l8.5 14.5l8.5 14.5
c16.667 26.667 34.334 52.834 53.001 78.501s37.667 47.834 57 66.501c17.333 16.667 34.333 30 51 40s32.334 15 47.001 15c2.66699 0 5.16699 -0.166992 7.5 -0.5s4.5 -0.833008 6.5 -1.5c6.66699 -1.33301 12.667 -4.16602 18 -8.49902s9.66602 -9.5 12.999 -15.5v0z
M523 794.996c-9.33301 -11.333 -19.668 -21 -31.001 -29s-22.666 -14.333 -33.999 -19c-6.66699 -2 -13.167 -3.66699 -19.5 -5s-12.5 -2 -18.5 -2c-13.333 0 -24 1.16699 -32 3.5s-15.333 4.83301 -22 7.5h-1.5c-0.333008 0 -0.833008 0.333008 -1.5 1
c-6 2 -12.5 4 -19.5 6s-15.833 3 -26.5 3c-12 0 -23.333 -1.66699 -34 -5s-18.667 -8 -24 -14l-39 5c14.667 18 30.5 31.5 47.5 40.5s35.833 13.5 56.5 13.5c13.333 0 23.833 -1.16699 31.5 -3.5s14.5 -4.83301 20.5 -7.5c0.666992 0 1.16699 -0.166992 1.5 -0.5
s0.833008 -0.5 1.5 -0.5c6 -2.66699 12.167 -5 18.5 -7s14.5 -3 24.5 -3c12.667 0 24.5 2 35.5 6s19.5 9 25.5 15l40 -5v0z" />
    <glyph glyph-name="Ograve" unicode="&#xd2;" 
 />
    <glyph glyph-name="Oacute" unicode="&#xd3;" horiz-adv-x="480" 
d="M533 644l-139.996 0.00292969c-51.333 0 -98.833 -21.167 -142.5 -63.5s-79.834 -89.166 -108.501 -140.499c-12 -22 -22.667 -44 -32 -66s-16.666 -42 -21.999 -60c-6 -20 -10.333 -39 -13 -57s-4 -34.667 -4 -50c0 -16 1.66699 -30.333 5 -43s8.33301 -23.667 15 -33
c7.33301 -10 16.833 -17.333 28.5 -22s25.5 -7 41.5 -7c15.333 0 36 6 62 18s53 31 81 57c21.333 19.333 42.166 43.166 62.499 71.499s38.5 61.166 54.5 98.499c19.333 45.333 32.166 82.5 38.499 111.5s9.5 51.833 9.5 68.5c0 9.33301 -0.666992 17 -2 23s-3 10.667 -5 14
c0 0.666992 -0.166992 1.33398 -0.5 2.00098s-0.833008 1.33398 -1.5 2.00098c0 0.666992 -0.166992 1.16699 -0.5 1.5l-0.5 0.5c-2.66699 3.33301 -6.5 6.33301 -11.5 9s-12.833 4 -23.5 4c-6.66699 0 -13.834 -1.16699 -21.501 -3.5s-15.5 -5.5 -23.5 -9.5
c-18 -10.667 -35.333 -26.667 -52 -48s-29.334 -47.333 -38.001 -78c-2 -6.66699 -3.33301 -13 -4 -19s-1 -11.333 -1 -16c0 -6 0.5 -10.5 1.5 -13.5s1.83301 -5.16699 2.5 -6.5l-1 -44c-6.66699 0 -13.167 1.5 -19.5 4.5s-11.5 7.16699 -15.5 12.5
c-4.66699 6 -8 13.167 -10 21.5s-3 17.166 -3 26.499c0 7.33301 0.5 14.833 1.5 22.5s2.83301 15.5 5.5 23.5c13.333 47.333 36 87.166 68 119.499s65.667 50.166 101 53.499h4.5h4.5c18 0 32.5 -3 43.5 -9s19.5 -12.333 25.5 -19c0.666992 -1.33301 1.5 -2.5 2.5 -3.5
s1.83301 -2.16699 2.5 -3.5c5.33301 -8.66699 9.5 -18.5 12.5 -29.5s4.5 -23.5 4.5 -37.5c0 -24 -4.33301 -52.5 -13 -85.5s-21.667 -70.167 -39 -111.5c-19.333 -46.667 -42.333 -87.167 -69 -121.5s-53.667 -62.833 -81 -85.5c-28 -22.667 -55.5 -39.5 -82.5 -50.5
s-50.167 -16.5 -69.5 -16.5c-25.333 0 -46 4 -62 12s-28.333 17 -37 27c-1.33301 1.33301 -2.5 2.83301 -3.5 4.5s-2.16699 3.16699 -3.5 4.5c-10 13.333 -17.5 28.666 -22.5 45.999s-7.5 37 -7.5 59c0 17.333 1.66699 35.833 5 55.5s8 40.5 14 62.5
c0.666992 2.66699 1.5 5.5 2.5 8.5s1.83301 5.83301 2.5 8.5c28 86 73.833 165 137.5 237s132.5 108 206.5 108h140v-45v0zM542.004 833.003l-164 -120l-40 9l144 134l60 -23v0z" />
    <glyph glyph-name="Ocircumflex" unicode="&#xd4;" horiz-adv-x="480" 
d="M533 644l-139.996 0.00292969c-51.333 0 -98.833 -21.167 -142.5 -63.5s-79.834 -89.166 -108.501 -140.499c-12 -22 -22.667 -44 -32 -66s-16.666 -42 -21.999 -60c-6 -20 -10.333 -39 -13 -57s-4 -34.667 -4 -50c0 -16 1.66699 -30.333 5 -43s8.33301 -23.667 15 -33
c7.33301 -10 16.833 -17.333 28.5 -22s25.5 -7 41.5 -7c15.333 0 36 6 62 18s53 31 81 57c21.333 19.333 42.166 43.166 62.499 71.499s38.5 61.166 54.5 98.499c19.333 45.333 32.166 82.5 38.499 111.5s9.5 51.833 9.5 68.5c0 9.33301 -0.666992 17 -2 23s-3 10.667 -5 14
c0 0.666992 -0.166992 1.33398 -0.5 2.00098s-0.833008 1.33398 -1.5 2.00098c0 0.666992 -0.166992 1.16699 -0.5 1.5l-0.5 0.5c-2.66699 3.33301 -6.5 6.33301 -11.5 9s-12.833 4 -23.5 4c-6.66699 0 -13.834 -1.16699 -21.501 -3.5s-15.5 -5.5 -23.5 -9.5
c-18 -10.667 -35.333 -26.667 -52 -48s-29.334 -47.333 -38.001 -78c-2 -6.66699 -3.33301 -13 -4 -19s-1 -11.333 -1 -16c0 -6 0.5 -10.5 1.5 -13.5s1.83301 -5.16699 2.5 -6.5l-1 -44c-6.66699 0 -13.167 1.5 -19.5 4.5s-11.5 7.16699 -15.5 12.5
c-4.66699 6 -8 13.167 -10 21.5s-3 17.166 -3 26.499c0 7.33301 0.5 14.833 1.5 22.5s2.83301 15.5 5.5 23.5c13.333 47.333 36 87.166 68 119.499s65.667 50.166 101 53.499h4.5h4.5c18 0 32.5 -3 43.5 -9s19.5 -12.333 25.5 -19c0.666992 -1.33301 1.5 -2.5 2.5 -3.5
s1.83301 -2.16699 2.5 -3.5c5.33301 -8.66699 9.5 -18.5 12.5 -29.5s4.5 -23.5 4.5 -37.5c0 -24 -4.33301 -52.5 -13 -85.5s-21.667 -70.167 -39 -111.5c-19.333 -46.667 -42.333 -87.167 -69 -121.5s-53.667 -62.833 -81 -85.5c-28 -22.667 -55.5 -39.5 -82.5 -50.5
s-50.167 -16.5 -69.5 -16.5c-25.333 0 -46 4 -62 12s-28.333 17 -37 27c-1.33301 1.33301 -2.5 2.83301 -3.5 4.5s-2.16699 3.16699 -3.5 4.5c-10 13.333 -17.5 28.666 -22.5 45.999s-7.5 37 -7.5 59c0 17.333 1.66699 35.833 5 55.5s8 40.5 14 62.5
c0.666992 2.66699 1.5 5.5 2.5 8.5s1.83301 5.83301 2.5 8.5c28 86 73.833 165 137.5 237s132.5 108 206.5 108h140v-45v0zM520.004 725.003l-34 -12l-92 42l-92 -42l-35 12l127 83l126 -83v0z" />
    <glyph glyph-name="Otilde" unicode="&#xd5;" horiz-adv-x="480" 
d="M533 644l-139.996 0.00292969c-51.333 0 -98.833 -21.167 -142.5 -63.5s-79.834 -89.166 -108.501 -140.499c-12 -22 -22.667 -44 -32 -66s-16.666 -42 -21.999 -60c-6 -20 -10.333 -39 -13 -57s-4 -34.667 -4 -50c0 -16 1.66699 -30.333 5 -43s8.33301 -23.667 15 -33
c7.33301 -10 16.833 -17.333 28.5 -22s25.5 -7 41.5 -7c15.333 0 36 6 62 18s53 31 81 57c21.333 19.333 42.166 43.166 62.499 71.499s38.5 61.166 54.5 98.499c19.333 45.333 32.166 82.5 38.499 111.5s9.5 51.833 9.5 68.5c0 9.33301 -0.666992 17 -2 23s-3 10.667 -5 14
c0 0.666992 -0.166992 1.33398 -0.5 2.00098s-0.833008 1.33398 -1.5 2.00098c0 0.666992 -0.166992 1.16699 -0.5 1.5l-0.5 0.5c-2.66699 3.33301 -6.5 6.33301 -11.5 9s-12.833 4 -23.5 4c-6.66699 0 -13.834 -1.16699 -21.501 -3.5s-15.5 -5.5 -23.5 -9.5
c-18 -10.667 -35.333 -26.667 -52 -48s-29.334 -47.333 -38.001 -78c-2 -6.66699 -3.33301 -13 -4 -19s-1 -11.333 -1 -16c0 -6 0.5 -10.5 1.5 -13.5s1.83301 -5.16699 2.5 -6.5l-1 -44c-6.66699 0 -13.167 1.5 -19.5 4.5s-11.5 7.16699 -15.5 12.5
c-4.66699 6 -8 13.167 -10 21.5s-3 17.166 -3 26.499c0 7.33301 0.5 14.833 1.5 22.5s2.83301 15.5 5.5 23.5c13.333 47.333 36 87.166 68 119.499s65.667 50.166 101 53.499h4.5h4.5c18 0 32.5 -3 43.5 -9s19.5 -12.333 25.5 -19c0.666992 -1.33301 1.5 -2.5 2.5 -3.5
s1.83301 -2.16699 2.5 -3.5c5.33301 -8.66699 9.5 -18.5 12.5 -29.5s4.5 -23.5 4.5 -37.5c0 -24 -4.33301 -52.5 -13 -85.5s-21.667 -70.167 -39 -111.5c-19.333 -46.667 -42.333 -87.167 -69 -121.5s-53.667 -62.833 -81 -85.5c-28 -22.667 -55.5 -39.5 -82.5 -50.5
s-50.167 -16.5 -69.5 -16.5c-25.333 0 -46 4 -62 12s-28.333 17 -37 27c-1.33301 1.33301 -2.5 2.83301 -3.5 4.5s-2.16699 3.16699 -3.5 4.5c-10 13.333 -17.5 28.666 -22.5 45.999s-7.5 37 -7.5 59c0 17.333 1.66699 35.833 5 55.5s8 40.5 14 62.5
c0.666992 2.66699 1.5 5.5 2.5 8.5s1.83301 5.83301 2.5 8.5c28 86 73.833 165 137.5 237s132.5 108 206.5 108h140v-45v0zM544.004 779.003c-9.33301 -11.333 -19.668 -21 -31.001 -29s-22.666 -14.333 -33.999 -19c-6.66699 -2 -13.167 -3.66699 -19.5 -5
s-12.5 -2 -18.5 -2c-13.333 0 -24 1.16699 -32 3.5s-15.333 4.83301 -22 7.5h-1.5c-0.333008 0 -0.833008 0.333008 -1.5 1c-6 2 -12.5 4 -19.5 6s-15.833 3 -26.5 3c-12 0 -23.333 -1.66699 -34 -5s-18.667 -8 -24 -14l-39 5c14.667 18 30.5 31.5 47.5 40.5
s35.833 13.5 56.5 13.5c13.333 0 23.833 -1.16699 31.5 -3.5s14.5 -4.83301 20.5 -7.5c0.666992 0 1.16699 -0.166992 1.5 -0.5s0.833008 -0.5 1.5 -0.5c6 -2.66699 12.167 -5 18.5 -7s14.5 -3 24.5 -3c12.667 0 24.5 2 35.5 6s19.5 9 25.5 15l40 -5v0z" />
    <glyph glyph-name="Odieresis" unicode="&#xd6;" horiz-adv-x="480" 
d="M533 644l-139.996 0.00292969c-51.333 0 -98.833 -21.167 -142.5 -63.5s-79.834 -89.166 -108.501 -140.499c-12 -22 -22.667 -44 -32 -66s-16.666 -42 -21.999 -60c-6 -20 -10.333 -39 -13 -57s-4 -34.667 -4 -50c0 -16 1.66699 -30.333 5 -43s8.33301 -23.667 15 -33
c7.33301 -10 16.833 -17.333 28.5 -22s25.5 -7 41.5 -7c15.333 0 36 6 62 18s53 31 81 57c21.333 19.333 42.166 43.166 62.499 71.499s38.5 61.166 54.5 98.499c19.333 45.333 32.166 82.5 38.499 111.5s9.5 51.833 9.5 68.5c0 9.33301 -0.666992 17 -2 23s-3 10.667 -5 14
c0 0.666992 -0.166992 1.33398 -0.5 2.00098s-0.833008 1.33398 -1.5 2.00098c0 0.666992 -0.166992 1.16699 -0.5 1.5l-0.5 0.5c-2.66699 3.33301 -6.5 6.33301 -11.5 9s-12.833 4 -23.5 4c-6.66699 0 -13.834 -1.16699 -21.501 -3.5s-15.5 -5.5 -23.5 -9.5
c-18 -10.667 -35.333 -26.667 -52 -48s-29.334 -47.333 -38.001 -78c-2 -6.66699 -3.33301 -13 -4 -19s-1 -11.333 -1 -16c0 -6 0.5 -10.5 1.5 -13.5s1.83301 -5.16699 2.5 -6.5l-1 -44c-6.66699 0 -13.167 1.5 -19.5 4.5s-11.5 7.16699 -15.5 12.5
c-4.66699 6 -8 13.167 -10 21.5s-3 17.166 -3 26.499c0 7.33301 0.5 14.833 1.5 22.5s2.83301 15.5 5.5 23.5c13.333 47.333 36 87.166 68 119.499s65.667 50.166 101 53.499h4.5h4.5c18 0 32.5 -3 43.5 -9s19.5 -12.333 25.5 -19c0.666992 -1.33301 1.5 -2.5 2.5 -3.5
s1.83301 -2.16699 2.5 -3.5c5.33301 -8.66699 9.5 -18.5 12.5 -29.5s4.5 -23.5 4.5 -37.5c0 -24 -4.33301 -52.5 -13 -85.5s-21.667 -70.167 -39 -111.5c-19.333 -46.667 -42.333 -87.167 -69 -121.5s-53.667 -62.833 -81 -85.5c-28 -22.667 -55.5 -39.5 -82.5 -50.5
s-50.167 -16.5 -69.5 -16.5c-25.333 0 -46 4 -62 12s-28.333 17 -37 27c-1.33301 1.33301 -2.5 2.83301 -3.5 4.5s-2.16699 3.16699 -3.5 4.5c-10 13.333 -17.5 28.666 -22.5 45.999s-7.5 37 -7.5 59c0 17.333 1.66699 35.833 5 55.5s8 40.5 14 62.5
c0.666992 2.66699 1.5 5.5 2.5 8.5s1.83301 5.83301 2.5 8.5c28 86 73.833 165 137.5 237s132.5 108 206.5 108h140v-45v0zM389.004 792.003l-20 -70h-56l20 70h56v0zM493.004 792.003l-20 -70h-56l20 70h56v0z" />
    <glyph glyph-name="multiply" unicode="&#xd7;" horiz-adv-x="400" 
d="M373 339l-123 -124l122 -123l-51 -52l-123 122l-124 -122l-51 52l121 123l-122 125l51 51l124 -122l125 122l51 -52v0z" />
    <glyph glyph-name="Oslash" unicode="&#xd8;" horiz-adv-x="503" 
d="M554 644l-108.999 -0.000976562l-11 -20c27.333 -8.66699 47.833 -26.5 61.5 -53.5s20.5 -58.833 20.5 -95.5c0 -14.667 -1 -29.5 -3 -44.5s-5.33301 -30.167 -10 -45.5c-2.66699 -9.33301 -5.66699 -18.5 -9 -27.5s-7 -18.167 -11 -27.5
c-19.333 -46.667 -42.333 -87.167 -69 -121.5s-53.667 -62.833 -81 -85.5c-28 -22.667 -55.5 -39.5 -82.5 -50.5s-50.167 -16.5 -69.5 -16.5c-14 0 -26.5 1.33301 -37.5 4s-20.833 6.33398 -29.5 11.001l-48 -83l-40 23l52 89
c-0.666992 0.666992 -1.16699 1.33398 -1.5 2.00098s-0.833008 1.33398 -1.5 2.00098c-10 13.333 -17.333 28.666 -22 45.999s-7 37 -7 59c0 17.333 1.5 35.833 4.5 55.5s7.83301 40.5 14.5 62.5c5.33301 17.333 11.666 35.666 18.999 54.999s16 39 26 59
c31.333 62 73.5 118.833 126.5 170.5s113.5 77.5 181.5 77.5l42 72l39 -23l-28 -49h83v-45v0zM441.001 346.999c11.333 26.667 18.999 50.167 22.999 70.5s6 38.5 6 54.5c0 17.333 -1.83301 31.833 -5.5 43.5s-7.83398 21.5 -12.501 29.5
c-3.33301 6 -6.66602 10.833 -9.99902 14.5s-5.66602 6.5 -6.99902 8.5c-2 3.33301 -4.83301 6.33301 -8.5 9s-9.16699 4.66699 -16.5 6l-273 -473c6 -2.66699 12.667 -4.66699 20 -6s15.333 -2 24 -2c15.333 0 35.833 5.83301 61.5 17.5s52.5 30.167 80.5 55.5
c21.333 20 42.333 44.167 63 72.5s39 61.5 55 99.5v0zM391 641.999c-10 -1.33301 -19.999 -3.83008 -29.999 -7.49707s-20 -8.16699 -30 -13.5c-46 -24.667 -89.667 -64.834 -131 -120.501s-72 -117.834 -92 -186.501c-5.33301 -20 -9.5 -39 -12.5 -57
s-4.5 -34.667 -4.5 -50c0 -12.667 1 -24.334 3 -35.001s5 -20 9 -28l125 216l-0.5 0.5l-0.5 0.5l-0.5 0.5l-0.5 0.5c-4.66699 6 -8 13 -10 21s-3 17 -3 27c0 7.33301 0.5 14.833 1.5 22.5s2.83301 15.5 5.5 23.5c13.333 46 35.166 85 65.499 117s62.833 50.333 97.5 55l8 14
v0zM347.001 566.002c-16.667 -10.667 -32.667 -26.5 -48 -47.5s-27 -45.833 -35 -74.5c-2 -6.66699 -3.33301 -12.5 -4 -17.5l-2 -14.5l89 154v0z" />
    <glyph glyph-name="Ugrave" unicode="&#xd9;" horiz-adv-x="491" 
d="M528 645l-100.995 -351.999c-4 -15.333 -8 -32 -12 -50s-7.66699 -36.333 -11 -55c-4 -21.333 -7.33301 -42 -10 -62s-4.33398 -38 -5.00098 -54l-45 2c0.666992 13.333 1.66699 26.666 3 39.999s3 27 5 41c3.33301 23.333 7.33301 46.833 12 70.5s10 46.5 16 68.5
l-16.5 -30l-17.5 -31c-27.333 -45.333 -58.333 -87 -93 -125s-73.667 -57 -117 -57c-14.667 0 -26.667 2.5 -36 7.5s-16.666 10.167 -21.999 15.5c-0.666992 1.33301 -1.33398 2.33301 -2.00098 3l-2 2c-6.66699 9.33301 -11.667 20.5 -15 33.5s-5 26.833 -5 41.5
c0 15.333 1.33301 31.5 4 48.5s6 33.833 10 50.5l8 31.5l8 30.5c1.33301 5.33301 2.83301 10.666 4.5 15.999l4.5 15c4.66699 15.333 9.5 32.166 14.5 50.499s10.5 37.166 16.5 56.499l33 119l15 54c0.666992 1.33301 1.16699 3 1.5 5s0.833008 4 1.5 6
c0 1.33301 0.166992 2.5 0.5 3.5s0.5 1.83301 0.5 2.5c1.33301 3.33301 2.16602 6.33301 2.49902 9s0.5 5 0.5 7v0h-1c-6 0 -12.667 -3.5 -20 -10.5s-15 -15.833 -23 -26.5l-14.5 -23.5c-5 -8.33301 -9.83301 -16.833 -14.5 -25.5c-9.33301 -16.667 -17.5 -32.5 -24.5 -47.5
l-15.5 -32.5l-41 20c5.33301 10.667 11.333 23.334 18 38.001s14.334 29.667 23.001 45c14.667 26.667 31.5 51.334 50.5 74.001s39.5 34 61.5 34c8 0 14.667 -1.33301 20 -4s9.66602 -5.33398 12.999 -8.00098l2 -2l2 -2c3.33301 -4.66699 5.66602 -9.5 6.99902 -14.5
s2 -10.167 2 -15.5c0 -6 -0.5 -11.667 -1.5 -17s-2.16699 -10.333 -3.5 -15c-0.666992 -2 -1.16699 -4 -1.5 -6s-0.833008 -4 -1.5 -6l-74 -260c-2.66699 -8 -5.5 -17.333 -8.5 -28l-9.5 -34c-2.66699 -8.66699 -5.16699 -17.5 -7.5 -26.5s-4.5 -17.833 -6.5 -26.5
c-3.33301 -15.333 -6.16602 -30.166 -8.49902 -44.499s-3.5 -27.833 -3.5 -40.5c0 -10 1 -19.167 3 -27.5s5 -15.166 9 -20.499l1.5 -1.5c0.333008 -0.333008 1.16602 -0.833008 2.49902 -1.5c2 -2 4.66699 -3.66699 8 -5s8 -2 14 -2c31.333 0 61.166 16.167 89.499 48.5
s54.166 67.833 77.499 106.5l23 39.5l20 36.5l1 1c4.66699 8.66699 13.5 28.167 26.5 58.5l40.5 98.5c0.666992 0.666992 1.16699 1.5 1.5 2.5s0.5 1.83301 0.5 2.5l18 44.5l17 41.5l21 51.5l13 32.5l43 -15v0zM423.005 698.001l-20 -19l-164 120l40 23l144 -124v0z" />
    <glyph glyph-name="Uacute" unicode="&#xda;" horiz-adv-x="491" 
d="M528 645l-100.995 -351.999c-4 -15.333 -8 -32 -12 -50s-7.66699 -36.333 -11 -55c-4 -21.333 -7.33301 -42 -10 -62s-4.33398 -38 -5.00098 -54l-45 2c0.666992 13.333 1.66699 26.666 3 39.999s3 27 5 41c3.33301 23.333 7.33301 46.833 12 70.5s10 46.5 16 68.5
l-16.5 -30l-17.5 -31c-27.333 -45.333 -58.333 -87 -93 -125s-73.667 -57 -117 -57c-14.667 0 -26.667 2.5 -36 7.5s-16.666 10.167 -21.999 15.5c-0.666992 1.33301 -1.33398 2.33301 -2.00098 3l-2 2c-6.66699 9.33301 -11.667 20.5 -15 33.5s-5 26.833 -5 41.5
c0 15.333 1.33301 31.5 4 48.5s6 33.833 10 50.5l8 31.5l8 30.5c1.33301 5.33301 2.83301 10.666 4.5 15.999l4.5 15c4.66699 15.333 9.5 32.166 14.5 50.499s10.5 37.166 16.5 56.499l33 119l15 54c0.666992 1.33301 1.16699 3 1.5 5s0.833008 4 1.5 6
c0 1.33301 0.166992 2.5 0.5 3.5s0.5 1.83301 0.5 2.5c1.33301 3.33301 2.16602 6.33301 2.49902 9s0.5 5 0.5 7v0h-1c-6 0 -12.667 -3.5 -20 -10.5s-15 -15.833 -23 -26.5l-14.5 -23.5c-5 -8.33301 -9.83301 -16.833 -14.5 -25.5c-9.33301 -16.667 -17.5 -32.5 -24.5 -47.5
l-15.5 -32.5l-41 20c5.33301 10.667 11.333 23.334 18 38.001s14.334 29.667 23.001 45c14.667 26.667 31.5 51.334 50.5 74.001s39.5 34 61.5 34c8 0 14.667 -1.33301 20 -4s9.66602 -5.33398 12.999 -8.00098l2 -2l2 -2c3.33301 -4.66699 5.66602 -9.5 6.99902 -14.5
s2 -10.167 2 -15.5c0 -6 -0.5 -11.667 -1.5 -17s-2.16699 -10.333 -3.5 -15c-0.666992 -2 -1.16699 -4 -1.5 -6s-0.833008 -4 -1.5 -6l-74 -260c-2.66699 -8 -5.5 -17.333 -8.5 -28l-9.5 -34c-2.66699 -8.66699 -5.16699 -17.5 -7.5 -26.5s-4.5 -17.833 -6.5 -26.5
c-3.33301 -15.333 -6.16602 -30.166 -8.49902 -44.499s-3.5 -27.833 -3.5 -40.5c0 -10 1 -19.167 3 -27.5s5 -15.166 9 -20.499l1.5 -1.5c0.333008 -0.333008 1.16602 -0.833008 2.49902 -1.5c2 -2 4.66699 -3.66699 8 -5s8 -2 14 -2c31.333 0 61.166 16.167 89.499 48.5
s54.166 67.833 77.499 106.5l23 39.5l20 36.5l1 1c4.66699 8.66699 13.5 28.167 26.5 58.5l40.5 98.5c0.666992 0.666992 1.16699 1.5 1.5 2.5s0.5 1.83301 0.5 2.5l18 44.5l17 41.5l21 51.5l13 32.5l43 -15v0zM495.005 793.001l-164 -120l-40 9l144 134l60 -23v0z" />
    <glyph glyph-name="Ucircumflex" unicode="&#xdb;" horiz-adv-x="491" 
d="M528 645l-100.995 -351.999c-4 -15.333 -8 -32 -12 -50s-7.66699 -36.333 -11 -55c-4 -21.333 -7.33301 -42 -10 -62s-4.33398 -38 -5.00098 -54l-45 2c0.666992 13.333 1.66699 26.666 3 39.999s3 27 5 41c3.33301 23.333 7.33301 46.833 12 70.5s10 46.5 16 68.5
l-16.5 -30l-17.5 -31c-27.333 -45.333 -58.333 -87 -93 -125s-73.667 -57 -117 -57c-14.667 0 -26.667 2.5 -36 7.5s-16.666 10.167 -21.999 15.5c-0.666992 1.33301 -1.33398 2.33301 -2.00098 3l-2 2c-6.66699 9.33301 -11.667 20.5 -15 33.5s-5 26.833 -5 41.5
c0 15.333 1.33301 31.5 4 48.5s6 33.833 10 50.5l8 31.5l8 30.5c1.33301 5.33301 2.83301 10.666 4.5 15.999l4.5 15c4.66699 15.333 9.5 32.166 14.5 50.499s10.5 37.166 16.5 56.499l33 119l15 54c0.666992 1.33301 1.16699 3 1.5 5s0.833008 4 1.5 6
c0 1.33301 0.166992 2.5 0.5 3.5s0.5 1.83301 0.5 2.5c1.33301 3.33301 2.16602 6.33301 2.49902 9s0.5 5 0.5 7v0h-1c-6 0 -12.667 -3.5 -20 -10.5s-15 -15.833 -23 -26.5l-14.5 -23.5c-5 -8.33301 -9.83301 -16.833 -14.5 -25.5c-9.33301 -16.667 -17.5 -32.5 -24.5 -47.5
l-15.5 -32.5l-41 20c5.33301 10.667 11.333 23.334 18 38.001s14.334 29.667 23.001 45c14.667 26.667 31.5 51.334 50.5 74.001s39.5 34 61.5 34c8 0 14.667 -1.33301 20 -4s9.66602 -5.33398 12.999 -8.00098l2 -2l2 -2c3.33301 -4.66699 5.66602 -9.5 6.99902 -14.5
s2 -10.167 2 -15.5c0 -6 -0.5 -11.667 -1.5 -17s-2.16699 -10.333 -3.5 -15c-0.666992 -2 -1.16699 -4 -1.5 -6s-0.833008 -4 -1.5 -6l-74 -260c-2.66699 -8 -5.5 -17.333 -8.5 -28l-9.5 -34c-2.66699 -8.66699 -5.16699 -17.5 -7.5 -26.5s-4.5 -17.833 -6.5 -26.5
c-3.33301 -15.333 -6.16602 -30.166 -8.49902 -44.499s-3.5 -27.833 -3.5 -40.5c0 -10 1 -19.167 3 -27.5s5 -15.166 9 -20.499l1.5 -1.5c0.333008 -0.333008 1.16602 -0.833008 2.49902 -1.5c2 -2 4.66699 -3.66699 8 -5s8 -2 14 -2c31.333 0 61.166 16.167 89.499 48.5
s54.166 67.833 77.499 106.5l23 39.5l20 36.5l1 1c4.66699 8.66699 13.5 28.167 26.5 58.5l40.5 98.5c0.666992 0.666992 1.16699 1.5 1.5 2.5s0.5 1.83301 0.5 2.5l18 44.5l17 41.5l21 51.5l13 32.5l43 -15v0zM486.005 707.001l-34 -12l-92 42l-92 -42l-35 12l127 83
l126 -83v0z" />
    <glyph glyph-name="Udieresis" unicode="&#xdc;" horiz-adv-x="491" 
d="M528 645l-100.995 -351.999c-4 -15.333 -8 -32 -12 -50s-7.66699 -36.333 -11 -55c-4 -21.333 -7.33301 -42 -10 -62s-4.33398 -38 -5.00098 -54l-45 2c0.666992 13.333 1.66699 26.666 3 39.999s3 27 5 41c3.33301 23.333 7.33301 46.833 12 70.5s10 46.5 16 68.5
l-16.5 -30l-17.5 -31c-27.333 -45.333 -58.333 -87 -93 -125s-73.667 -57 -117 -57c-14.667 0 -26.667 2.5 -36 7.5s-16.666 10.167 -21.999 15.5c-0.666992 1.33301 -1.33398 2.33301 -2.00098 3l-2 2c-6.66699 9.33301 -11.667 20.5 -15 33.5s-5 26.833 -5 41.5
c0 15.333 1.33301 31.5 4 48.5s6 33.833 10 50.5l8 31.5l8 30.5c1.33301 5.33301 2.83301 10.666 4.5 15.999l4.5 15c4.66699 15.333 9.5 32.166 14.5 50.499s10.5 37.166 16.5 56.499l33 119l15 54c0.666992 1.33301 1.16699 3 1.5 5s0.833008 4 1.5 6
c0 1.33301 0.166992 2.5 0.5 3.5s0.5 1.83301 0.5 2.5c1.33301 3.33301 2.16602 6.33301 2.49902 9s0.5 5 0.5 7v0h-1c-6 0 -12.667 -3.5 -20 -10.5s-15 -15.833 -23 -26.5l-14.5 -23.5c-5 -8.33301 -9.83301 -16.833 -14.5 -25.5c-9.33301 -16.667 -17.5 -32.5 -24.5 -47.5
l-15.5 -32.5l-41 20c5.33301 10.667 11.333 23.334 18 38.001s14.334 29.667 23.001 45c14.667 26.667 31.5 51.334 50.5 74.001s39.5 34 61.5 34c8 0 14.667 -1.33301 20 -4s9.66602 -5.33398 12.999 -8.00098l2 -2l2 -2c3.33301 -4.66699 5.66602 -9.5 6.99902 -14.5
s2 -10.167 2 -15.5c0 -6 -0.5 -11.667 -1.5 -17s-2.16699 -10.333 -3.5 -15c-0.666992 -2 -1.16699 -4 -1.5 -6s-0.833008 -4 -1.5 -6l-74 -260c-2.66699 -8 -5.5 -17.333 -8.5 -28l-9.5 -34c-2.66699 -8.66699 -5.16699 -17.5 -7.5 -26.5s-4.5 -17.833 -6.5 -26.5
c-3.33301 -15.333 -6.16602 -30.166 -8.49902 -44.499s-3.5 -27.833 -3.5 -40.5c0 -10 1 -19.167 3 -27.5s5 -15.166 9 -20.499l1.5 -1.5c0.333008 -0.333008 1.16602 -0.833008 2.49902 -1.5c2 -2 4.66699 -3.66699 8 -5s8 -2 14 -2c31.333 0 61.166 16.167 89.499 48.5
s54.166 67.833 77.499 106.5l23 39.5l20 36.5l1 1c4.66699 8.66699 13.5 28.167 26.5 58.5l40.5 98.5c0.666992 0.666992 1.16699 1.5 1.5 2.5s0.5 1.83301 0.5 2.5l18 44.5l17 41.5l21 51.5l13 32.5l43 -15v0zM357.005 787.001l-20 -70h-56l20 70h56v0zM461.005 787.001
l-20 -70h-56l20 70h56v0z" />
    <glyph glyph-name="Yacute" unicode="&#xdd;" 
 />
    <glyph glyph-name="Thorn" unicode="&#xde;" horiz-adv-x="555" 
d="M523 573c2 -7.33301 3.49902 -15.165 4.49902 -23.498s1.5 -16.833 1.5 -25.5c0 -18.667 -2.16699 -37.834 -6.5 -57.501s-10.5 -39.5 -18.5 -59.5c-5.33301 -12.667 -11.5 -25.167 -18.5 -37.5s-14.5 -24.5 -22.5 -36.5c-24 -34.667 -51 -65.5 -81 -92.5
s-60.667 -48.5 -92 -64.5c-19.333 -9.33301 -38.333 -16.666 -57 -21.999s-36.667 -8 -54 -8h-4h-4c-1.33301 0 -2.66602 0.166992 -3.99902 0.5s-2.66602 0.5 -3.99902 0.5l5 45h3.5h3.5c0.666992 -0.666992 1.66699 -1 3 -1h3c4 0 8 0.166992 12 0.5s8 0.833008 12 1.5
c32.667 5.33301 64.5 19.166 95.5 41.499s58.167 46.166 81.5 71.499c8.66699 9.33301 16.5 18.5 23.5 27.5l19.5 25.5c7.33301 10.667 14 21.5 20 32.5s11.333 21.833 16 32.5c7.33301 17.333 13 34.5 17 51.5s6 33.167 6 48.5c0 6.66699 -0.5 13.167 -1.5 19.5
s-2.16699 12.166 -3.5 17.499c-0.666992 2 -1.33398 4.16699 -2.00098 6.5s-1.33398 4.5 -2.00098 6.5c-2.66699 6.66699 -6.33398 12.834 -11.001 18.501s-10.334 10.167 -17.001 13.5c-3.33301 1.33301 -7.33301 2.66602 -12 3.99902s-9.66699 2 -15 2
s-11.166 -0.666992 -17.499 -2s-13.166 -3.66602 -20.499 -6.99902c-24.667 -10 -60 -41.167 -106 -93.5s-96 -151.833 -150 -298.5l-57 -202l-44 12l224 781h45l-105 -343c34 59.333 66 102.833 96 130.5s56.333 46.167 79 55.5c10.667 4.66699 20.667 7.83398 30 9.50098
s18 2.5 26 2.5c9.33301 0 18 -1 26 -3s14.667 -4.33301 20 -7c14 -6.66699 25.833 -16.334 35.5 -29.001s16.834 -27.667 21.501 -45v0z" />
    <glyph glyph-name="germandbls" unicode="&#xdf;" horiz-adv-x="515" 
d="M572 119l-13.0059 -44.998h-99h-99h-99.5h-99.5c-8.66699 0 -16.834 1.83301 -24.501 5.5s-14.167 8.83398 -19.5 15.501c-3.33301 4.66699 -6 9.83398 -8 15.501s-3 11.5 -3 17.5c0 3.33301 0.333008 6.5 1 9.5s1.33398 5.83301 2.00098 8.5l29 102l43 -13l-29 -102
v-0.5v-1.5c-0.666992 -0.666992 -1 -1.16699 -1 -1.5v-1.5c0 -0.666992 0.166992 -1.5 0.5 -2.5s0.833008 -2.16699 1.5 -3.5c0.666992 -0.666992 1.33398 -1.16699 2.00098 -1.5s1.33398 -0.5 2.00098 -0.5c0.666992 -0.666992 1.33398 -1 2.00098 -1h2h114
c5.33301 0 10.5 1 15.5 3s8.83301 5 11.5 9c1.33301 2.66699 2.5 5.5 3.5 8.5s1.5 6.5 1.5 10.5c0 3.33301 -0.333008 6.5 -1 9.5s-1.66699 6.16699 -3 9.5l-4.5 11l-9.5 24l-9.5 25.5l-4.5 11.5c-2.66699 6 -4.5 12 -5.5 18s-1.5 11.333 -1.5 16
c0 12 2.83301 22.833 8.5 32.5s13.834 16.834 24.501 21.501l56 23c2.66699 1.33301 6 4 10 8s8.33301 9 13 15c3.33301 6 6.83301 12.667 10.5 20s6.83398 15.666 9.50098 24.999c1.33301 5.33301 2.5 10.666 3.5 15.999s1.5 10.333 1.5 15c0 22 -7.16699 40.333 -21.5 55
s-34.166 22 -59.499 22c-3.33301 0 -6.66602 -0.166992 -9.99902 -0.5s-6.66602 -0.833008 -9.99902 -1.5c-29.333 -4.66699 -57 -18.334 -83 -41.001s-43 -48.667 -51 -78l-97 -333h-47l19.5 67l30.5 105c0.666992 1.33301 1.16699 2.66602 1.5 3.99902
s0.5 2.66602 0.5 3.99902c2.66699 7.33301 5 14.5 7 21.5l6 21.5h-39v45h52l22 78c11.333 39.333 34.666 73.666 69.999 102.999s73 45.666 113 48.999c2.66699 0.666992 5.16699 1 7.5 1h7.5c20 0 39.167 -4 57.5 -12s33.5 -20 45.5 -36
c8 -10.667 13.833 -22.167 17.5 -34.5s5.5 -25.166 5.5 -38.499c0 -7.33301 -0.666992 -14.833 -2 -22.5s-3 -15.167 -5 -22.5c-6.66699 -23.333 -16.334 -43.833 -29.001 -61.5s-25.667 -29.167 -39 -34.5l-56 -24c-2.66699 -0.666992 -4.33398 -2.16699 -5.00098 -4.5
s-1 -4.83301 -1 -7.5c0 -2 0.166992 -4 0.5 -6s0.833008 -3.66699 1.5 -5s1.16699 -2.66602 1.5 -3.99902l0.5 -2l28 -73c2.66699 -6.66699 4.5 -13.167 5.5 -19.5s1.5 -12.5 1.5 -18.5v-6.5c0 -2.33301 -0.333008 -4.83301 -1 -7.5s-1.16699 -5.16699 -1.5 -7.5
s-1.16602 -4.5 -2.49902 -6.5h224v0z" />
    <glyph glyph-name="agrave" unicode="&#xe0;" horiz-adv-x="577" 
d="M609 119l-12.999 -44.998h-297c-20.667 0 -34.667 4.83301 -42 14.5s-11 21.834 -11 36.501c0 5.33301 0.333008 10.666 1 15.999s1.66699 11 3 17l4 14.5c1.33301 5 3 9.83301 5 14.5l5.5 18.5c1.66699 5.66699 3.16699 10.5 4.5 14.5l-12 -12l-13 -13l-55.5 -55.5
l-25.5 -25.5c-16.667 -16.667 -31.834 -27.5 -45.501 -32.5s-25.167 -7.5 -34.5 -7.5c-4.66699 0 -8.5 0.333008 -11.5 1s-5.5 1.33398 -7.5 2.00098c-10.667 3.33301 -19.167 9.83301 -25.5 19.5s-9.5 20.167 -9.5 31.5v4.5c0 1.66699 0.333008 3.5 1 5.5
c0 1.33301 0.166992 2.83301 0.5 4.5s0.833008 3.16699 1.5 4.5c0.666992 2.66699 1.33398 5.16699 2.00098 7.5s1.33398 5.16602 2.00098 8.49902c2.66699 9.33301 5.16699 19.833 7.5 31.5s5.16602 23.167 8.49902 34.5c8 28.667 19.667 55 35 79s38.666 36 69.999 36h193
l-57 -198c0 -0.666992 -0.166992 -1.33398 -0.5 -2.00098s-0.5 -1.33398 -0.5 -2.00098v-2v-2c0 -4.66699 1.83301 -9 5.5 -13s8.5 -6 14.5 -6h297v0zM292.001 299.002l-147.999 -1.00195c-6.66699 0 -12.667 -1.33301 -18 -4s-9 -7.66699 -11 -15l-38 -132
c-0.666992 -0.666992 -1 -1.5 -1 -2.5v-3.5c0 -4.66699 1.33301 -9 4 -13s6 -6.66699 10 -8c1.33301 -0.666992 2.5 -1 3.5 -1h3.5c2 0 4 0.333008 6 1l6 2c3.33301 2 6.66602 4.33301 9.99902 7s6.33301 5.33398 9 8.00098c1.33301 0.666992 2.33301 1.33398 3 2.00098l2 2
l159 158v0zM287.002 414l-20 -19l-164 120l40 23l144 -124v0z" />
    <glyph glyph-name="aacute" unicode="&#xe1;" horiz-adv-x="558" 
d="M609 119l-12.999 -44.998h-297c-20.667 0 -34.667 4.83301 -42 14.5s-11 21.834 -11 36.501c0 5.33301 0.333008 10.666 1 15.999s1.66699 11 3 17l4 14.5c1.33301 5 3 9.83301 5 14.5l5.5 18.5c1.66699 5.66699 3.16699 10.5 4.5 14.5l-12 -12l-13 -13l-55.5 -55.5
l-25.5 -25.5c-16.667 -16.667 -31.834 -27.5 -45.501 -32.5s-25.167 -7.5 -34.5 -7.5c-4.66699 0 -8.5 0.333008 -11.5 1s-5.5 1.33398 -7.5 2.00098c-10.667 3.33301 -19.167 9.83301 -25.5 19.5s-9.5 20.167 -9.5 31.5v4.5c0 1.66699 0.333008 3.5 1 5.5
c0 1.33301 0.166992 2.83301 0.5 4.5s0.833008 3.16699 1.5 4.5c0.666992 2.66699 1.33398 5.16699 2.00098 7.5s1.33398 5.16602 2.00098 8.49902c2.66699 9.33301 5.16699 19.833 7.5 31.5s5.16602 23.167 8.49902 34.5c8 28.667 19.667 55 35 79s38.666 36 69.999 36h193
l-57 -198c0 -0.666992 -0.166992 -1.33398 -0.5 -2.00098s-0.5 -1.33398 -0.5 -2.00098v-2v-2c0 -4.66699 1.83301 -9 5.5 -13s8.5 -6 14.5 -6h297v0zM292.001 299.002l-147.999 -1.00195c-6.66699 0 -12.667 -1.33301 -18 -4s-9 -7.66699 -11 -15l-38 -132
c-0.666992 -0.666992 -1 -1.5 -1 -2.5v-3.5c0 -4.66699 1.33301 -9 4 -13s6 -6.66699 10 -8c1.33301 -0.666992 2.5 -1 3.5 -1h3.5c2 0 4 0.333008 6 1l6 2c3.33301 2 6.66602 4.33301 9.99902 7s6.33301 5.33398 9 8.00098c1.33301 0.666992 2.33301 1.33398 3 2.00098l2 2
l159 158v0zM384.002 500l-164 -120l-40 9l144 134l60 -23v0z" />
    <glyph glyph-name="acircumflex" unicode="&#xe2;" horiz-adv-x="566" 
d="M609 119l-12.999 -44.998h-297c-20.667 0 -34.667 4.83301 -42 14.5s-11 21.834 -11 36.501c0 5.33301 0.333008 10.666 1 15.999s1.66699 11 3 17l4 14.5c1.33301 5 3 9.83301 5 14.5l5.5 18.5c1.66699 5.66699 3.16699 10.5 4.5 14.5l-12 -12l-13 -13l-55.5 -55.5
l-25.5 -25.5c-16.667 -16.667 -31.834 -27.5 -45.501 -32.5s-25.167 -7.5 -34.5 -7.5c-4.66699 0 -8.5 0.333008 -11.5 1s-5.5 1.33398 -7.5 2.00098c-10.667 3.33301 -19.167 9.83301 -25.5 19.5s-9.5 20.167 -9.5 31.5v4.5c0 1.66699 0.333008 3.5 1 5.5
c0 1.33301 0.166992 2.83301 0.5 4.5s0.833008 3.16699 1.5 4.5c0.666992 2.66699 1.33398 5.16699 2.00098 7.5s1.33398 5.16602 2.00098 8.49902c2.66699 9.33301 5.16699 19.833 7.5 31.5s5.16602 23.167 8.49902 34.5c8 28.667 19.667 55 35 79s38.666 36 69.999 36h193
l-57 -198c0 -0.666992 -0.166992 -1.33398 -0.5 -2.00098s-0.5 -1.33398 -0.5 -2.00098v-2v-2c0 -4.66699 1.83301 -9 5.5 -13s8.5 -6 14.5 -6h297v0zM292.001 299.002l-147.999 -1.00195c-6.66699 0 -12.667 -1.33301 -18 -4s-9 -7.66699 -11 -15l-38 -132
c-0.666992 -0.666992 -1 -1.5 -1 -2.5v-3.5c0 -4.66699 1.33301 -9 4 -13s6 -6.66699 10 -8c1.33301 -0.666992 2.5 -1 3.5 -1h3.5c2 0 4 0.333008 6 1l6 2c3.33301 2 6.66602 4.33301 9.99902 7s6.33301 5.33398 9 8.00098c1.33301 0.666992 2.33301 1.33398 3 2.00098l2 2
l159 158v0zM349.002 385l-34 -12l-92 42l-92 -42l-35 12l127 83l126 -83v0z" />
    <glyph glyph-name="atilde" unicode="&#xe3;" horiz-adv-x="566" 
d="M609 119l-12.999 -44.998h-297c-20.667 0 -34.667 4.83301 -42 14.5s-11 21.834 -11 36.501c0 5.33301 0.333008 10.666 1 15.999s1.66699 11 3 17l4 14.5c1.33301 5 3 9.83301 5 14.5l5.5 18.5c1.66699 5.66699 3.16699 10.5 4.5 14.5l-12 -12l-13 -13l-55.5 -55.5
l-25.5 -25.5c-16.667 -16.667 -31.834 -27.5 -45.501 -32.5s-25.167 -7.5 -34.5 -7.5c-4.66699 0 -8.5 0.333008 -11.5 1s-5.5 1.33398 -7.5 2.00098c-10.667 3.33301 -19.167 9.83301 -25.5 19.5s-9.5 20.167 -9.5 31.5v4.5c0 1.66699 0.333008 3.5 1 5.5
c0 1.33301 0.166992 2.83301 0.5 4.5s0.833008 3.16699 1.5 4.5c0.666992 2.66699 1.33398 5.16699 2.00098 7.5s1.33398 5.16602 2.00098 8.49902c2.66699 9.33301 5.16699 19.833 7.5 31.5s5.16602 23.167 8.49902 34.5c8 28.667 19.667 55 35 79s38.666 36 69.999 36h193
l-57 -198c0 -0.666992 -0.166992 -1.33398 -0.5 -2.00098s-0.5 -1.33398 -0.5 -2.00098v-2v-2c0 -4.66699 1.83301 -9 5.5 -13s8.5 -6 14.5 -6h297v0zM292.001 299.002l-147.999 -1.00195c-6.66699 0 -12.667 -1.33301 -18 -4s-9 -7.66699 -11 -15l-38 -132
c-0.666992 -0.666992 -1 -1.5 -1 -2.5v-3.5c0 -4.66699 1.33301 -9 4 -13s6 -6.66699 10 -8c1.33301 -0.666992 2.5 -1 3.5 -1h3.5c2 0 4 0.333008 6 1l6 2c3.33301 2 6.66602 4.33301 9.99902 7s6.33301 5.33398 9 8.00098c1.33301 0.666992 2.33301 1.33398 3 2.00098l2 2
l159 158v0zM379.002 459c-9.33301 -11.333 -19.668 -21 -31.001 -29s-22.666 -14.333 -33.999 -19c-6.66699 -2 -13.167 -3.66699 -19.5 -5s-12.5 -2 -18.5 -2c-13.333 0 -24 1.16699 -32 3.5s-15.333 4.83301 -22 7.5h-1.5c-0.333008 0 -0.833008 0.333008 -1.5 1
c-6 2 -12.5 4 -19.5 6s-15.833 3 -26.5 3c-12 0 -23.333 -1.66699 -34 -5s-18.667 -8 -24 -14l-39 5c14.667 18 30.5 31.5 47.5 40.5s35.833 13.5 56.5 13.5c13.333 0 23.833 -1.16699 31.5 -3.5s14.5 -4.83301 20.5 -7.5c0.666992 0 1.16699 -0.166992 1.5 -0.5
s0.833008 -0.5 1.5 -0.5c6 -2.66699 12.167 -5 18.5 -7s14.5 -3 24.5 -3c12.667 0 24.5 2 35.5 6s19.5 9 25.5 15l40 -5v0z" />
    <glyph glyph-name="adieresis" unicode="&#xe4;" horiz-adv-x="566" 
d="M609 119l-12.999 -44.998h-297c-20.667 0 -34.667 4.83301 -42 14.5s-11 21.834 -11 36.501c0 5.33301 0.333008 10.666 1 15.999s1.66699 11 3 17l4 14.5c1.33301 5 3 9.83301 5 14.5l5.5 18.5c1.66699 5.66699 3.16699 10.5 4.5 14.5l-12 -12l-13 -13l-55.5 -55.5
l-25.5 -25.5c-16.667 -16.667 -31.834 -27.5 -45.501 -32.5s-25.167 -7.5 -34.5 -7.5c-4.66699 0 -8.5 0.333008 -11.5 1s-5.5 1.33398 -7.5 2.00098c-10.667 3.33301 -19.167 9.83301 -25.5 19.5s-9.5 20.167 -9.5 31.5v4.5c0 1.66699 0.333008 3.5 1 5.5
c0 1.33301 0.166992 2.83301 0.5 4.5s0.833008 3.16699 1.5 4.5c0.666992 2.66699 1.33398 5.16699 2.00098 7.5s1.33398 5.16602 2.00098 8.49902c2.66699 9.33301 5.16699 19.833 7.5 31.5s5.16602 23.167 8.49902 34.5c8 28.667 19.667 55 35 79s38.666 36 69.999 36h193
l-57 -198c0 -0.666992 -0.166992 -1.33398 -0.5 -2.00098s-0.5 -1.33398 -0.5 -2.00098v-2v-2c0 -4.66699 1.83301 -9 5.5 -13s8.5 -6 14.5 -6h297v0zM292.001 299.002l-147.999 -1.00195c-6.66699 0 -12.667 -1.33301 -18 -4s-9 -7.66699 -11 -15l-38 -132
c-0.666992 -0.666992 -1 -1.5 -1 -2.5v-3.5c0 -4.66699 1.33301 -9 4 -13s6 -6.66699 10 -8c1.33301 -0.666992 2.5 -1 3.5 -1h3.5c2 0 4 0.333008 6 1l6 2c3.33301 2 6.66602 4.33301 9.99902 7s6.33301 5.33398 9 8.00098c1.33301 0.666992 2.33301 1.33398 3 2.00098l2 2
l159 158v0zM220.002 462l-20 -70h-56l20 70h56v0zM324.002 462l-20 -70h-56l20 70h56v0z" />
    <glyph glyph-name="aring" unicode="&#xe5;" horiz-adv-x="569" 
d="M609 119l-12.999 -44.998h-297c-20.667 0 -34.667 4.83301 -42 14.5s-11 21.834 -11 36.501c0 5.33301 0.333008 10.666 1 15.999s1.66699 11 3 17l4 14.5c1.33301 5 3 9.83301 5 14.5l5.5 18.5c1.66699 5.66699 3.16699 10.5 4.5 14.5l-12 -12l-13 -13l-55.5 -55.5
l-25.5 -25.5c-16.667 -16.667 -31.834 -27.5 -45.501 -32.5s-25.167 -7.5 -34.5 -7.5c-4.66699 0 -8.5 0.333008 -11.5 1s-5.5 1.33398 -7.5 2.00098c-10.667 3.33301 -19.167 9.83301 -25.5 19.5s-9.5 20.167 -9.5 31.5v4.5c0 1.66699 0.333008 3.5 1 5.5
c0 1.33301 0.166992 2.83301 0.5 4.5s0.833008 3.16699 1.5 4.5c0.666992 2.66699 1.33398 5.16699 2.00098 7.5s1.33398 5.16602 2.00098 8.49902c2.66699 9.33301 5.16699 19.833 7.5 31.5s5.16602 23.167 8.49902 34.5c8 28.667 19.667 55 35 79s38.666 36 69.999 36h193
l-57 -198c0 -0.666992 -0.166992 -1.33398 -0.5 -2.00098s-0.5 -1.33398 -0.5 -2.00098v-2v-2c0 -4.66699 1.83301 -9 5.5 -13s8.5 -6 14.5 -6h297v0zM292.001 299.002l-147.999 -1.00195c-6.66699 0 -12.667 -1.33301 -18 -4s-9 -7.66699 -11 -15l-38 -132
c-0.666992 -0.666992 -1 -1.5 -1 -2.5v-3.5c0 -4.66699 1.33301 -9 4 -13s6 -6.66699 10 -8c1.33301 -0.666992 2.5 -1 3.5 -1h3.5c2 0 4 0.333008 6 1l6 2c3.33301 2 6.66602 4.33301 9.99902 7s6.33301 5.33398 9 8.00098c1.33301 0.666992 2.33301 1.33398 3 2.00098l2 2
l159 158v0zM297.002 441c0 -17.333 -6.33301 -32.166 -19 -44.499s-27.667 -18.5 -45 -18.5c-18 0 -33.167 6.16699 -45.5 18.5s-18.5 27.166 -18.5 44.499s6.16699 32.166 18.5 44.499s27.5 18.5 45.5 18.5c17.333 0 32.333 -6.16699 45 -18.5s19 -27.166 19 -44.499v0z
M255.002 441c0 6 -2.16699 11.333 -6.5 16s-9.83301 7 -16.5 7c-6 0 -11.333 -2.33301 -16 -7s-7 -10 -7 -16c0 -6.66699 2.33301 -12.334 7 -17.001s10 -7 16 -7c6.66699 0 12.167 2.33301 16.5 7s6.5 10.334 6.5 17.001v0z" />
    <glyph glyph-name="ae" unicode="&#xe6;" horiz-adv-x="564" 
d="M614 120l-12.999 -44.9951h-296c-20 0 -35.667 6 -47 18s-16.666 26.667 -15.999 44c0 3.33301 0.333008 6.83301 1 10.5l2 11.5c3.33301 11.333 8.83301 22.166 16.5 32.499s16.167 19.5 25.5 27.5c-2.66699 2.66699 -4.66699 5.66699 -6 9l-4 10l-12 -13.5
c-3.33301 -3.66699 -4.66602 -4.83398 -3.99902 -3.50098l-12.5 -12.5l-13.5 -13.5l-55.5 -55l-25.5 -25c-16.667 -16.667 -31.834 -27.5 -45.501 -32.5s-25.167 -7.5 -34.5 -7.5c-4 0 -7.66699 0.333008 -11 1s-6 1.33398 -8 2.00098c-10.667 4 -19 10.833 -25 20.5
s-9 20.5 -9 32.5c0 2.66699 0.166992 5.5 0.5 8.5s0.833008 5.83301 1.5 8.5c0.666992 3.33301 1.5 6.66602 2.5 9.99902s1.83301 6.66602 2.5 9.99902c2.66699 9.33301 5.16699 19.166 7.5 29.499l7.5 32.5c8 28.667 19.667 55 35 79s38.666 36 69.999 36h194l-3 -9l10.5 4
c3.66699 1.33301 7.5 2.33301 11.5 3c3.33301 0.666992 6.83301 1.16699 10.5 1.5s7.16699 0.5 10.5 0.5h175l-13 -45h-175c-2 0 -4.33301 -0.166992 -7 -0.5s-5.33398 -0.833008 -8.00098 -1.5c-6.66699 -2 -13 -5.33301 -19 -10s-10 -10.334 -12 -17.001
c-0.666992 -0.666992 -1 -1.5 -1 -2.5v-3.5c0 -6 3 -11.167 9 -15.5s13.333 -6.5 22 -6.5h109l-13 -46h-109h-3.5c-1 0 -1.83301 -0.333008 -2.5 -1c-10 -1.33301 -19.167 -5.5 -27.5 -12.5s-13.5 -15.167 -15.5 -24.5c-0.666992 -2 -1.16699 -4 -1.5 -6
s-0.5 -3.66699 -0.5 -5c0.666992 -8 3.5 -14.667 8.5 -20s11.833 -8 20.5 -8h296v0zM284.001 300.005l-148.999 -1.00098c-6 0 -11.667 -1.33301 -17 -4s-9 -7.33398 -11 -14.001l-38 -133c-0.666992 -0.666992 -1 -1.5 -1 -2.5v-3.5c0 -4.66699 1.33301 -9 4 -13
s6 -6.66699 10 -8c1.33301 -0.666992 2.5 -1 3.5 -1h3.5c2 0 4 0.333008 6 1l6 2c3.33301 2 6.66602 4.33301 9.99902 7s6.33301 5.33398 9 8.00098c1.33301 0.666992 2.33301 1.33398 3 2.00098l2 2l159 158v0z" />
    <glyph glyph-name="ccedilla" unicode="&#xe7;" horiz-adv-x="444" 
d="M490 119l-13.0029 -45.0029h-52c-34.667 0 -73.667 0.333008 -117 1h-10h-9h-115.5h-68.5l-7 -15l-15 -33l-15 -33l-7 -15l-56 -1c0 0.666992 3 6.33398 9 17.001l20 36l20 36.5l9 16.5c-16.667 7.33301 -28.167 18 -34.5 32s-9.5 29.667 -9.5 47
c0 10.667 1 21.834 3 33.501s4.66699 23.167 8 34.5c2 8.66699 4.33301 17.167 7 25.5l8 24.5l11.5 34c3.66699 10.667 6.83398 20.334 9.50098 29.001h165c14.667 0 24.5 -3.5 29.5 -10.5s7.5 -15.5 7.5 -25.5c0 -4 -0.333008 -8 -1 -12l-2 -12
c-0.666992 -3.33301 -1.5 -7 -2.5 -11s-2.16699 -7.66699 -3.5 -11c-1.33301 -5.33301 -2.83301 -10.333 -4.5 -15s-2.83398 -8.66699 -3.50098 -12h-46c0.666992 1.33301 1.66699 3.83301 3 7.5l5 13.5c0.666992 2 1.16699 3.83301 1.5 5.5s0.833008 3.16699 1.5 4.5
l3.5 14.5c1 4.33301 1.5 8.16602 1.5 11.499c0 2 -0.166992 3.5 -0.5 4.5s-1.16602 1.5 -2.49902 1.5h-120c-1.33301 -6 -3.16602 -12.167 -5.49902 -18.5s-4.5 -13.166 -6.5 -20.499c-1.33301 -4 -2.66602 -8.33301 -3.99902 -13l-4 -14
c-2.66699 -8.66699 -4.66699 -17.5 -6 -26.5s-2 -17.5 -2 -25.5c0 -17.333 5.16699 -31.833 15.5 -43.5s29.833 -17.5 58.5 -17.5h346v0z" />
    <glyph glyph-name="egrave" unicode="&#xe8;" horiz-adv-x="518" 
d="M561 119l-12.999 -44.9951h-458c-20 0 -35.667 6 -47 18s-16.666 26.667 -15.999 44c0 3.33301 0.333008 6.83301 1 10.5l2 11.5c3.33301 11.333 8.66602 22.166 15.999 32.499s16 19.166 26 26.499c-4 5.33301 -7.16699 11 -9.5 17s-3.5 12.333 -3.5 19v4
c0 1.33301 0.333008 3 1 5c0 1.33301 0.166992 2.66602 0.5 3.99902s0.833008 2.66602 1.5 3.99902c6 20 18.833 37.167 38.5 51.5s40.5 21.833 62.5 22.5h2h2h175l-13 -45h-175c-2 0 -4.33301 -0.166992 -7 -0.5s-5.33398 -0.833008 -8.00098 -1.5
c-6.66699 -2 -13 -5.33301 -19 -10s-10 -10.334 -12 -17.001c-0.666992 -0.666992 -1 -1.5 -1 -2.5v-3.5c0 -6 3 -11.167 9 -15.5s13.333 -6.5 22 -6.5h109l-13 -46h-109c-10.667 0 -20.834 -3.83301 -30.501 -11.5s-16.167 -16.5 -19.5 -26.5
c-0.666992 -2 -1.16699 -3.83301 -1.5 -5.5s-0.166016 -3.16699 0.500977 -4.5c0 -8.66699 2.66699 -15.667 8 -21s12.333 -8 21 -8h458v0zM299.001 382.005l-20 -19l-164 120l40 23l144 -124v0z" />
    <glyph glyph-name="eacute" unicode="&#xe9;" horiz-adv-x="525" 
d="M561 119l-12.999 -44.9951h-458c-20 0 -35.667 6 -47 18s-16.666 26.667 -15.999 44c0 3.33301 0.333008 6.83301 1 10.5l2 11.5c3.33301 11.333 8.66602 22.166 15.999 32.499s16 19.166 26 26.499c-4 5.33301 -7.16699 11 -9.5 17s-3.5 12.333 -3.5 19v4
c0 1.33301 0.333008 3 1 5c0 1.33301 0.166992 2.66602 0.5 3.99902s0.833008 2.66602 1.5 3.99902c6 20 18.833 37.167 38.5 51.5s40.5 21.833 62.5 22.5h2h2h175l-13 -45h-175c-2 0 -4.33301 -0.166992 -7 -0.5s-5.33398 -0.833008 -8.00098 -1.5
c-6.66699 -2 -13 -5.33301 -19 -10s-10 -10.334 -12 -17.001c-0.666992 -0.666992 -1 -1.5 -1 -2.5v-3.5c0 -6 3 -11.167 9 -15.5s13.333 -6.5 22 -6.5h109l-13 -46h-109c-10.667 0 -20.834 -3.83301 -30.501 -11.5s-16.167 -16.5 -19.5 -26.5
c-0.666992 -2 -1.16699 -3.83301 -1.5 -5.5s-0.166016 -3.16699 0.500977 -4.5c0 -8.66699 2.66699 -15.667 8 -21s12.333 -8 21 -8h458v0zM387.001 493.005l-164 -120l-40 9l144 134l60 -23v0z" />
    <glyph glyph-name="ecircumflex" unicode="&#xea;" horiz-adv-x="518" 
d="M561 119l-12.999 -44.9951h-458c-20 0 -35.667 6 -47 18s-16.666 26.667 -15.999 44c0 3.33301 0.333008 6.83301 1 10.5l2 11.5c3.33301 11.333 8.66602 22.166 15.999 32.499s16 19.166 26 26.499c-4 5.33301 -7.16699 11 -9.5 17s-3.5 12.333 -3.5 19v4
c0 1.33301 0.333008 3 1 5c0 1.33301 0.166992 2.66602 0.5 3.99902s0.833008 2.66602 1.5 3.99902c6 20 18.833 37.167 38.5 51.5s40.5 21.833 62.5 22.5h2h2h175l-13 -45h-175c-2 0 -4.33301 -0.166992 -7 -0.5s-5.33398 -0.833008 -8.00098 -1.5
c-6.66699 -2 -13 -5.33301 -19 -10s-10 -10.334 -12 -17.001c-0.666992 -0.666992 -1 -1.5 -1 -2.5v-3.5c0 -6 3 -11.167 9 -15.5s13.333 -6.5 22 -6.5h109l-13 -46h-109c-10.667 0 -20.834 -3.83301 -30.501 -11.5s-16.167 -16.5 -19.5 -26.5
c-0.666992 -2 -1.16699 -3.83301 -1.5 -5.5s-0.166016 -3.16699 0.500977 -4.5c0 -8.66699 2.66699 -15.667 8 -21s12.333 -8 21 -8h458v0zM352.001 379.005l-34 -12l-92 42l-92 -42l-35 12l127 83l126 -83v0z" />
    <glyph glyph-name="edieresis" unicode="&#xeb;" horiz-adv-x="525" 
d="M561 119l-12.999 -44.9951h-458c-20 0 -35.667 6 -47 18s-16.666 26.667 -15.999 44c0 3.33301 0.333008 6.83301 1 10.5l2 11.5c3.33301 11.333 8.66602 22.166 15.999 32.499s16 19.166 26 26.499c-4 5.33301 -7.16699 11 -9.5 17s-3.5 12.333 -3.5 19v4
c0 1.33301 0.333008 3 1 5c0 1.33301 0.166992 2.66602 0.5 3.99902s0.833008 2.66602 1.5 3.99902c6 20 18.833 37.167 38.5 51.5s40.5 21.833 62.5 22.5h2h2h175l-13 -45h-175c-2 0 -4.33301 -0.166992 -7 -0.5s-5.33398 -0.833008 -8.00098 -1.5
c-6.66699 -2 -13 -5.33301 -19 -10s-10 -10.334 -12 -17.001c-0.666992 -0.666992 -1 -1.5 -1 -2.5v-3.5c0 -6 3 -11.167 9 -15.5s13.333 -6.5 22 -6.5h109l-13 -46h-109c-10.667 0 -20.834 -3.83301 -30.501 -11.5s-16.167 -16.5 -19.5 -26.5
c-0.666992 -2 -1.16699 -3.83301 -1.5 -5.5s-0.166016 -3.16699 0.500977 -4.5c0 -8.66699 2.66699 -15.667 8 -21s12.333 -8 21 -8h458v0zM238.001 437.005l-20 -70h-56l20 70h56v0zM342.001 437.005l-20 -70h-56l20 70h56v0z" />
    <glyph glyph-name="igrave" unicode="&#xec;" horiz-adv-x="318" 
d="M356 119l-12.999 -45h-274c-16 0 -28.667 4.83301 -38 14.5s-14 21.834 -14 36.501c0 2 0.166992 4 0.5 6s0.5 4 0.5 6c0.666992 0.666992 1.16699 1.66699 1.5 3s0.5 2.33301 0.5 3l61 215h46l-62 -215c0 -0.666992 -0.166992 -1.33398 -0.5 -2.00098l-0.5 -1v-2v-2
c0 -4.66699 1.66699 -8.66699 5 -12s7.66602 -5 12.999 -5h274v0zM147.001 398l-20 -19l-164 120l40 23l144 -124v0z" />
    <glyph glyph-name="iacute" unicode="&#xed;" horiz-adv-x="318" 
d="M356 119l-12.999 -45h-274c-16 0 -28.667 4.83301 -38 14.5s-14 21.834 -14 36.501c0 2 0.166992 4 0.5 6s0.5 4 0.5 6c0.666992 0.666992 1.16699 1.66699 1.5 3s0.5 2.33301 0.5 3l61 215h46l-62 -215c0 -0.666992 -0.166992 -1.33398 -0.5 -2.00098l-0.5 -1v-2v-2
c0 -4.66699 1.66699 -8.66699 5 -12s7.66602 -5 12.999 -5h274v0zM283.001 499l-164 -120l-40 9l144 134l60 -23v0z" />
    <glyph glyph-name="icircumflex" unicode="&#xee;" horiz-adv-x="311" 
d="M356 119l-12.999 -45h-274c-16 0 -28.667 4.83301 -38 14.5s-14 21.834 -14 36.501c0 2 0.166992 4 0.5 6s0.5 4 0.5 6c0.666992 0.666992 1.16699 1.66699 1.5 3s0.5 2.33301 0.5 3l61 215h46l-62 -215c0 -0.666992 -0.166992 -1.33398 -0.5 -2.00098l-0.5 -1v-2v-2
c0 -4.66699 1.66699 -8.66699 5 -12s7.66602 -5 12.999 -5h274v0zM238.001 381l-34 -12l-92 42l-92 -42l-35 12l127 83l126 -83v0z" />
    <glyph glyph-name="idieresis" unicode="&#xef;" horiz-adv-x="318" 
d="M356 119l-12.999 -45h-274c-16 0 -28.667 4.83301 -38 14.5s-14 21.834 -14 36.501c0 2 0.166992 4 0.5 6s0.5 4 0.5 6c0.666992 0.666992 1.16699 1.66699 1.5 3s0.5 2.33301 0.5 3l61 215h46l-62 -215c0 -0.666992 -0.166992 -1.33398 -0.5 -2.00098l-0.5 -1v-2v-2
c0 -4.66699 1.66699 -8.66699 5 -12s7.66602 -5 12.999 -5h274v0zM117.001 472l-20 -70h-56l20 70h56v0zM221.001 472l-20 -70h-56l20 70h56v0z" />
    <glyph glyph-name="eth" unicode="&#xf0;" horiz-adv-x="579" 
d="M606 120l-13.0039 -44.998h-297c-20.667 0 -34.667 4.83301 -42 14.5s-11 21.5 -11 35.5c0 4.66699 0.333008 9.5 1 14.5s1.66699 10.167 3 15.5c0.666992 4.66699 1.83398 9.5 3.50098 14.5s3.16699 9.83301 4.5 14.5c1.33301 6 2.83301 11.5 4.5 16.5l4.5 13.5
c-8 -7.33301 -17 -16.166 -27 -26.499l-31 -31.5l-27 -24.5c-9.33301 -8.33301 -18.666 -15.833 -27.999 -22.5c-13.333 -10 -26.5 -18 -39.5 -24s-25.167 -9 -36.5 -9c-3.33301 0 -6.5 0.5 -9.5 1.5s-6.16699 1.83301 -9.5 2.5c-9.33301 4 -16.666 10.5 -21.999 19.5
s-8 18.833 -8 29.5c0 3.33301 0.333008 6.5 1 9.5s1.33398 6.16699 2.00098 9.5l39 138c5.33301 16 14.5 29.833 27.5 41.5s28.167 17.5 45.5 17.5h161l20 70l-65 -19v47l80 23c0.666992 3.33301 1.16699 6.16602 1.5 8.49902s0.5 4.83301 0.5 7.5
c0 5.33301 -1.33301 10 -4 14s-7.66699 6 -15 6h-74l13 45h74c20 0 33.833 -4.83301 41.5 -14.5s11.5 -21.167 11.5 -34.5c0 -2.66699 -0.166992 -5.5 -0.5 -8.5s-0.833008 -6.16699 -1.5 -9.5l52 14v-47l-64 -18c-0.666992 -0.666992 -1.16699 -1.5 -1.5 -2.5
s-0.5 -2.16699 -0.5 -3.5h-1l-79 -276c0 -0.666992 -0.166992 -1.33398 -0.5 -2.00098s-0.5 -1.33398 -0.5 -2.00098v-2v-2c0 -4.66699 1.83301 -9 5.5 -13s8.5 -6 14.5 -6h297v0zM288.996 299.002l-160.997 -0.000976562c-4.66699 0 -7.83398 -1.16699 -9.50098 -3.5
s-3.16699 -5.5 -4.5 -9.5l-40 -138v-2v-1c-0.666992 -0.666992 -1 -1.33398 -1 -2.00098v-2c0 -4 0.833008 -7.66699 2.5 -11s4.16699 -5.66602 7.5 -6.99902c1.33301 -0.666992 2.5 -1 3.5 -1h2.5c5.33301 0 11.166 1.83301 17.499 5.5s13.166 8.83398 20.499 15.501
l158 143l4 13v0z" />
    <glyph glyph-name="ntilde" unicode="&#xf1;" horiz-adv-x="565" 
d="M602 119l-13 -45.0029h-271c-32.667 0 -55 6.33301 -67 19s-18 28.334 -18 47.001c0 7.33301 0.666992 15.166 2 23.499s3 16.833 5 25.5c1.33301 5.33301 2.83301 10.5 4.5 15.5s3.5 10.167 5.5 15.5l11 37c3.33301 11.333 5 21 5 29c0 5.33301 -1 9.5 -3 12.5
s-5 4.83301 -9 5.5h-1.5c-0.333008 0 -0.5 0.333008 -0.5 1h-1.5h-1.5c-4 0 -8 -1.33301 -12 -4s-7.66699 -5.66699 -11 -9c-0.666992 -1.33301 -1.5 -2.5 -2.5 -3.5s-1.83301 -2.16699 -2.5 -3.5l-160 -211h-32l77 270h46l-39 -136l73 96
c4.66699 6 9.16699 11.167 13.5 15.5s8.83301 8.16602 13.5 11.499c8.66699 7.33301 17.5 12.333 26.5 15s17.167 4 24.5 4h7c2 0 4 -0.333008 6 -1c14 -3.33301 23.667 -9.16602 29 -17.499s8 -18.166 8 -29.499c0 -10 -1.5 -20.5 -4.5 -31.5l-9.5 -33.5
c-0.666992 -1.33301 -1.16699 -2.66602 -1.5 -3.99902s-0.5 -2.66602 -0.5 -3.99902c-4.66699 -12.667 -8.66699 -25 -12 -37s-5 -23 -5 -33c0 -12 3.66699 -21.667 11 -29s20.333 -11 39 -11h271v0zM386 434.997c-9.33301 -11.333 -19.668 -21 -31.001 -29
s-22.666 -14.333 -33.999 -19c-6.66699 -2 -13.167 -3.66699 -19.5 -5s-12.5 -2 -18.5 -2c-13.333 0 -24 1.16699 -32 3.5s-15.333 4.83301 -22 7.5h-1.5c-0.333008 0 -0.833008 0.333008 -1.5 1c-6 2 -12.5 4 -19.5 6s-15.833 3 -26.5 3c-12 0 -23.333 -1.66699 -34 -5
s-18.667 -8 -24 -14l-39 5c14.667 18 30.5 31.5 47.5 40.5s35.833 13.5 56.5 13.5c13.333 0 23.833 -1.16699 31.5 -3.5s14.5 -4.83301 20.5 -7.5c0.666992 0 1.16699 -0.166992 1.5 -0.5s0.833008 -0.5 1.5 -0.5c6 -2.66699 12.167 -5 18.5 -7s14.5 -3 24.5 -3
c12.667 0 24.5 2 35.5 6s19.5 9 25.5 15l40 -5v0z" />
    <glyph glyph-name="ograve" unicode="&#xf2;" horiz-adv-x="504" 
d="M545 119l-13.0039 -44.998h-404c-36.667 0 -63 10.667 -79 32s-23.667 46.333 -23 75c0 9.33301 0.666992 18.666 2 27.999s3.33301 18.666 6 27.999c4.66699 16 10 31.5 16 46.5s16 27.833 30 38.5c9.33301 7.33301 19.833 12.833 31.5 16.5s24.834 5.5 39.501 5.5h269
l-13 -46h-269h-6c-2 0 -3.66699 -0.333008 -5 -1c-4 -0.666992 -7.83301 -1.5 -11.5 -2.5s-7.16699 -2.83301 -10.5 -5.5c-5.33301 -4.66699 -10 -11.5 -14 -20.5s-7.66699 -19.167 -11 -30.5c-1.33301 -5.33301 -2.66602 -11.333 -3.99902 -18s-2.33301 -13.667 -3 -21
v-4.5v-5.5c0 -18 4.33301 -34.167 13 -48.5s24.334 -21.5 47.001 -21.5c32 0 57.167 11.333 75.5 34s32.5 47.334 42.5 74.001c1.33301 5.33301 2.83301 10.5 4.5 15.5s3.16699 9.83301 4.5 14.5h46c-8 -26.667 -17.167 -51.334 -27.5 -74.001s-27.166 -44 -50.499 -64h317
v0zM285.996 387.002l-20 -19l-164 120l40 23l144 -124v0z" />
    <glyph glyph-name="oacute" unicode="&#xf3;" horiz-adv-x="511" 
d="M545 119l-13.0039 -44.998h-404c-36.667 0 -63 10.667 -79 32s-23.667 46.333 -23 75c0 9.33301 0.666992 18.666 2 27.999s3.33301 18.666 6 27.999c4.66699 16 10 31.5 16 46.5s16 27.833 30 38.5c9.33301 7.33301 19.833 12.833 31.5 16.5s24.834 5.5 39.501 5.5h269
l-13 -46h-269h-6c-2 0 -3.66699 -0.333008 -5 -1c-4 -0.666992 -7.83301 -1.5 -11.5 -2.5s-7.16699 -2.83301 -10.5 -5.5c-5.33301 -4.66699 -10 -11.5 -14 -20.5s-7.66699 -19.167 -11 -30.5c-1.33301 -5.33301 -2.66602 -11.333 -3.99902 -18s-2.33301 -13.667 -3 -21
v-4.5v-5.5c0 -18 4.33301 -34.167 13 -48.5s24.334 -21.5 47.001 -21.5c32 0 57.167 11.333 75.5 34s32.5 47.334 42.5 74.001c1.33301 5.33301 2.83301 10.5 4.5 15.5s3.16699 9.83301 4.5 14.5h46c-8 -26.667 -17.167 -51.334 -27.5 -74.001s-27.166 -44 -50.499 -64h317
v0zM372.996 478.002l-164 -120l-40 9l144 134l60 -23v0z" />
    <glyph glyph-name="ocircumflex" unicode="&#xf4;" horiz-adv-x="515" 
d="M545 119l-13.0039 -44.998h-404c-36.667 0 -63 10.667 -79 32s-23.667 46.333 -23 75c0 9.33301 0.666992 18.666 2 27.999s3.33301 18.666 6 27.999c4.66699 16 10 31.5 16 46.5s16 27.833 30 38.5c9.33301 7.33301 19.833 12.833 31.5 16.5s24.834 5.5 39.501 5.5h269
l-13 -46h-269h-6c-2 0 -3.66699 -0.333008 -5 -1c-4 -0.666992 -7.83301 -1.5 -11.5 -2.5s-7.16699 -2.83301 -10.5 -5.5c-5.33301 -4.66699 -10 -11.5 -14 -20.5s-7.66699 -19.167 -11 -30.5c-1.33301 -5.33301 -2.66602 -11.333 -3.99902 -18s-2.33301 -13.667 -3 -21
v-4.5v-5.5c0 -18 4.33301 -34.167 13 -48.5s24.334 -21.5 47.001 -21.5c32 0 57.167 11.333 75.5 34s32.5 47.334 42.5 74.001c1.33301 5.33301 2.83301 10.5 4.5 15.5s3.16699 9.83301 4.5 14.5h46c-8 -26.667 -17.167 -51.334 -27.5 -74.001s-27.166 -44 -50.499 -64h317
v0zM332.996 381.002l-34 -12l-92 42l-92 -42l-35 12l127 83l126 -83v0z" />
    <glyph glyph-name="otilde" unicode="&#xf5;" horiz-adv-x="504" 
d="M545 119l-13.0039 -44.998h-404c-36.667 0 -63 10.667 -79 32s-23.667 46.333 -23 75c0 9.33301 0.666992 18.666 2 27.999s3.33301 18.666 6 27.999c4.66699 16 10 31.5 16 46.5s16 27.833 30 38.5c9.33301 7.33301 19.833 12.833 31.5 16.5s24.834 5.5 39.501 5.5h269
l-13 -46h-269h-6c-2 0 -3.66699 -0.333008 -5 -1c-4 -0.666992 -7.83301 -1.5 -11.5 -2.5s-7.16699 -2.83301 -10.5 -5.5c-5.33301 -4.66699 -10 -11.5 -14 -20.5s-7.66699 -19.167 -11 -30.5c-1.33301 -5.33301 -2.66602 -11.333 -3.99902 -18s-2.33301 -13.667 -3 -21
v-4.5v-5.5c0 -18 4.33301 -34.167 13 -48.5s24.334 -21.5 47.001 -21.5c32 0 57.167 11.333 75.5 34s32.5 47.334 42.5 74.001c1.33301 5.33301 2.83301 10.5 4.5 15.5s3.16699 9.83301 4.5 14.5h46c-8 -26.667 -17.167 -51.334 -27.5 -74.001s-27.166 -44 -50.499 -64h317
v0zM369.996 430.002c-9.33301 -11.333 -19.668 -21 -31.001 -29s-22.666 -14.333 -33.999 -19c-6.66699 -2 -13.167 -3.66699 -19.5 -5s-12.5 -2 -18.5 -2c-13.333 0 -24 1.16699 -32 3.5s-15.333 4.83301 -22 7.5h-1.5c-0.333008 0 -0.833008 0.333008 -1.5 1
c-6 2 -12.5 4 -19.5 6s-15.833 3 -26.5 3c-12 0 -23.333 -1.66699 -34 -5s-18.667 -8 -24 -14l-39 5c14.667 18 30.5 31.5 47.5 40.5s35.833 13.5 56.5 13.5c13.333 0 23.833 -1.16699 31.5 -3.5s14.5 -4.83301 20.5 -7.5c0.666992 0 1.16699 -0.166992 1.5 -0.5
s0.833008 -0.5 1.5 -0.5c6 -2.66699 12.167 -5 18.5 -7s14.5 -3 24.5 -3c12.667 0 24.5 2 35.5 6s19.5 9 25.5 15l40 -5v0z" />
    <glyph glyph-name="odieresis" unicode="&#xf6;" horiz-adv-x="511" 
d="M545 119l-13.0039 -44.998h-404c-36.667 0 -63 10.667 -79 32s-23.667 46.333 -23 75c0 9.33301 0.666992 18.666 2 27.999s3.33301 18.666 6 27.999c4.66699 16 10 31.5 16 46.5s16 27.833 30 38.5c9.33301 7.33301 19.833 12.833 31.5 16.5s24.834 5.5 39.501 5.5h269
l-13 -46h-269h-6c-2 0 -3.66699 -0.333008 -5 -1c-4 -0.666992 -7.83301 -1.5 -11.5 -2.5s-7.16699 -2.83301 -10.5 -5.5c-5.33301 -4.66699 -10 -11.5 -14 -20.5s-7.66699 -19.167 -11 -30.5c-1.33301 -5.33301 -2.66602 -11.333 -3.99902 -18s-2.33301 -13.667 -3 -21
v-4.5v-5.5c0 -18 4.33301 -34.167 13 -48.5s24.334 -21.5 47.001 -21.5c32 0 57.167 11.333 75.5 34s32.5 47.334 42.5 74.001c1.33301 5.33301 2.83301 10.5 4.5 15.5s3.16699 9.83301 4.5 14.5h46c-8 -26.667 -17.167 -51.334 -27.5 -74.001s-27.166 -44 -50.499 -64h317
v0zM221.996 445.002l-20 -70h-56l20 70h56v0zM325.996 445.002l-20 -70h-56l20 70h56v0z" />
    <glyph glyph-name="divide" unicode="&#xf7;" horiz-adv-x="400" 
d="M253 262c0 -2 -0.334961 -4.33301 -1.00195 -7s-1.66699 -5.33398 -3 -8.00098c-3.33301 -7.33301 -8.33301 -14.333 -15 -21s-13.667 -10.334 -21 -11.001h-1.5h-1.5h-9c-2 0 -4.33301 0.333008 -7 1s-5 1.66699 -7 3c-5.33301 2.66699 -10.166 6.33398 -14.499 11.001
s-7.83301 9.33398 -10.5 14.001c-1.33301 2 -2.33301 4.16699 -3 6.5s-1 4.5 -1 6.5v9c0 8 3.33301 15.667 10 23s14 13 22 17l8 2c2.66699 0.666992 5 1 7 1c12.667 0 23.834 -4.66699 33.501 -14s14.5 -20.333 14.5 -33v0zM399.998 337h-405v76h405v-76v0zM252.998 482
c0 -2 -0.334961 -4.33301 -1.00195 -7s-1.66699 -5.33398 -3 -8.00098c-3.33301 -7.33301 -8.33301 -14.333 -15 -21s-13.667 -10.334 -21 -11.001h-1.5h-1.5h-9c-2 0 -4.33301 0.333008 -7 1s-5 1.66699 -7 3c-5.33301 2.66699 -10.166 6.33398 -14.499 11.001
s-7.83301 9.33398 -10.5 14.001c-1.33301 2 -2.33301 4.16699 -3 6.5s-1 4.5 -1 6.5v9c0 8 3.33301 15.667 10 23s14 13 22 17l8 2c2.66699 0.666992 5 1 7 1c12.667 0 23.834 -4.66699 33.501 -14s14.5 -20.333 14.5 -33v0z" />
    </font>
</defs>
</svg>
